<?xml version="1.0" encoding="utf-8"?>
<!-- Generator: Adobe Illustrator 24.0.1, SVG Export Plug-In . SVG Version: 6.00 Build 0)  -->
<svg version="1.1" id="Layer_1" xmlns="http://www.w3.org/2000/svg" xmlns:xlink="http://www.w3.org/1999/xlink" x="0px" y="0px"
	 viewBox="0 0 177 34" style="enable-background:new 0 0 177 34;" xml:space="preserve">
<style type="text/css">
	.st0{fill:#FFFFFF;}
</style>
<g>
	<path class="st0" d="M22.3-0.2v24.5h21.4V-0.2H22.3z M40,18.8c-1.8,1.8-4.1,2.7-7,2.7c-2.9,0-5.2-0.9-7-2.7
		c-1.8-1.8-2.6-4.1-2.6-6.7c0-2.7,0.9-4.9,2.6-6.8c1.7-1.8,4.1-2.7,7-2.7c2.9,0,5.2,0.9,7,2.7c1.8,1.8,2.6,4.1,2.6,6.8
		C42.6,14.7,41.7,17,40,18.8z"/>
	<path class="st0" d="M0.1-0.2v24.5h21.4V-0.2H0.1z M17.7,14.2c0,2.5-0.7,4.3-2,5.4c-1.4,1.1-3,1.6-5,1.6c-1.9,0-3.5-0.5-4.8-1.5
		c-1.3-1-2-2.6-2-4.8H7c0,1.2,0.4,2.2,1.1,2.8c0.7,0.6,1.6,0.9,2.6,0.9c1,0,1.9-0.3,2.6-1c0.7-0.7,1.1-1.8,1.1-3.4V2.9h3.3V14.2z"/>
	<path class="st0" d="M44.5-0.2v24.5h21.4V-0.2H44.5z M64.3,21.1h-3.8c-2-2.5-5.6-7.2-10.9-14v14h-3.3V3H50c2.6,3.3,6.2,8,10.9,14V3
		h3.4V21.1z"/>
	<path class="st0" d="M66.8-0.2v24.5h21.4V-0.2H66.8z M84.4,18.8c-1.8,1.8-4.1,2.7-7,2.7c-2.9,0-5.2-0.9-7-2.7
		c-1.8-1.8-2.6-4.1-2.6-6.7c0-2.7,0.9-4.9,2.6-6.8c1.7-1.8,4.1-2.7,7-2.7c2.9,0,5.2,0.9,7,2.7c1.8,1.8,2.6,4.1,2.6,6.8
		C87.1,14.7,86.2,17,84.4,18.8z"/>
	<path class="st0" d="M89-0.2v24.5h21.4V-0.2H89z M108,8.7c0,1.8-0.7,3.2-2,4.2c-1.3,1-3.1,1.5-5.4,1.5h-5.8v6.7h-3.3V3h9.2
		c2.3,0,4.2,0.5,5.5,1.5C107.3,5.5,108,6.9,108,8.7L108,8.7z"/>
	<path class="st0" d="M111.3-0.2v24.5h21.4V-0.2H111.3z M128.5,21.1c-0.4-1-1-2.3-1.8-3.9H117c-0.6,1.3-1.2,2.6-1.8,3.9h-3.5
		c1.4-3,4.3-9,8.7-18h3.2c1.9,4,4.8,10,8.7,18H128.5z"/>
	<path class="st0" d="M133.5-0.2v24.5h21.4V-0.2H133.5z M153.1,5.7h-7.2v15.4h-3.4V5.7h-7.2V3h17.7V5.7z"/>
	<path class="st0" d="M155.7-0.2v24.5h21.4V-0.2H155.7z M175.5,21.1h-3.4v-7.9h-11.4v7.9h-3.3V3h3.3v7.5h11.4V3h3.4V21.1z"/>
	<g>
		<path class="st0" d="M0.8,27.9v-0.3c0-0.9,0.9-1.6,2.9-1.6c2.1,0,2.9,0.7,2.9,1.6v0.2c0,0.1-0.1,0.2-0.4,0.2H6.2
			c-0.2,0-0.4-0.1-0.4-0.2v-0.2c0-0.7-0.5-1.1-2-1.1c-1.5,0-2,0.5-2,1.1v0.2c0,0.7,0.6,1,1.4,1.3L5,29.8c1,0.4,1.8,0.8,1.8,1.5v0.4
			c0,0.9-1,1.6-3,1.6c-2.1,0-3-0.7-3-1.6v-0.3c0-0.1,0.1-0.2,0.4-0.2h0.2c0.2,0,0.4,0.1,0.4,0.2v0.3c0,0.7,0.6,1.1,2.1,1.1
			s2.1-0.5,2.1-1.1v-0.1c0-0.7-0.5-0.9-1.4-1.3l-1.8-0.7C1.7,29.2,0.8,28.6,0.8,27.9z"/>
		<path class="st0" d="M15.3,33.3c-2.1,0-3-0.7-3-1.6v-4c0-0.9,0.9-1.6,3-1.6s3,0.7,3,1.6v4C18.2,32.6,17.3,33.3,15.3,33.3z
			 M15.3,26.5c-1.5,0-2,0.5-2,1.1v4c0,0.7,0.6,1.1,2,1.1c1.5,0,2-0.5,2-1.1v-4C17.3,26.9,16.7,26.5,15.3,26.5z"/>
		<path class="st0" d="M28.6,26.3L28.6,26.3c0,0.2-0.1,0.3-0.4,0.3h-2V33c0,0.1-0.1,0.2-0.4,0.2h-0.2c-0.2,0-0.4-0.1-0.4-0.2v-6.4
			h-2c-0.2,0-0.4-0.1-0.4-0.2v-0.1c0-0.1,0.1-0.2,0.4-0.2h4.9C28.4,26.1,28.6,26.2,28.6,26.3z"/>
		<path class="st0" d="M37.6,26.3L37.6,26.3c0,0.2-0.1,0.3-0.4,0.3h-2V33c0,0.1-0.1,0.2-0.4,0.2h-0.2c-0.2,0-0.4-0.1-0.4-0.2v-6.4
			h-2c-0.2,0-0.4-0.1-0.4-0.2v-0.1c0-0.1,0.1-0.2,0.4-0.2h4.9C37.5,26.1,37.6,26.2,37.6,26.3z"/>
		<path class="st0" d="M47.2,33.2h-4.4c-0.2,0-0.4-0.1-0.4-0.2v-6.6c0-0.1,0.1-0.2,0.4-0.2h4.4c0.2,0,0.4,0.1,0.4,0.2v0.1
			c0,0.1-0.1,0.2-0.4,0.2h-3.8v2.8h3.3c0.2,0,0.4,0.1,0.4,0.2v0.1c0,0.1-0.1,0.2-0.4,0.2h-3.3v2.8h3.8c0.2,0,0.4,0.1,0.4,0.2V33
			C47.6,33.1,47.5,33.2,47.2,33.2z"/>
		<path class="st0" d="M58.6,33.2h-0.1c-0.3,0-0.5-0.1-0.6-0.3l-1.7-2.7c-0.1,0-0.3,0-0.4,0h-1.8V33c0,0.1-0.1,0.2-0.4,0.2h-0.2
			c-0.2,0-0.4-0.1-0.4-0.2v-6.6c0-0.1,0.1-0.2,0.4-0.2h2.4c2.1,0,3,0.7,3,1.6v1c0,0.7-0.5,1.2-1.6,1.5l1.8,2.8
			C59,33,58.9,33.2,58.6,33.2z M55.7,29.8c1.5,0,2-0.4,2-1.1v-1c0-0.7-0.6-1.1-2-1.1h-1.8v3.2H55.7z"/>
		<path class="st0" d="M66.8,30.3L66.8,30.3c0-0.2,0.1-0.3,0.4-0.3h0.4c1.5,0,2-0.4,2-1.1v-1.2c0-0.7-0.6-1.1-2-1.1h-1.8V33
			c0,0.1-0.1,0.2-0.4,0.2h-0.2c-0.2,0-0.4-0.1-0.4-0.2v-6.6c0-0.1,0.1-0.2,0.4-0.2h2.4c2.1,0,3,0.7,3,1.6v1.2c0,0.9-0.9,1.6-3,1.6
			h-0.4C66.9,30.5,66.8,30.4,66.8,30.3z"/>
		<path class="st0" d="M78.8,33.3c-2.1,0-3-0.7-3-1.6v-4c0-0.9,0.9-1.6,3-1.6c2.1,0,3,0.7,3,1.6v4C81.8,32.6,80.9,33.3,78.8,33.3z
			 M78.8,26.5c-1.5,0-2,0.5-2,1.1v4c0,0.7,0.6,1.1,2,1.1c1.5,0,2-0.5,2-1.1v-4C80.9,26.9,80.3,26.5,78.8,26.5z"/>
		<path class="st0" d="M92.1,26.3L92.1,26.3c0,0.2-0.1,0.3-0.4,0.3h-2V33c0,0.1-0.1,0.2-0.4,0.2h-0.2c-0.2,0-0.4-0.1-0.4-0.2v-6.4
			h-2c-0.2,0-0.4-0.1-0.4-0.2v-0.1c0-0.1,0.1-0.2,0.4-0.2h4.9C92,26.1,92.1,26.2,92.1,26.3z"/>
		<path class="st0" d="M103.2,26.3V33c0,0.1-0.1,0.2-0.4,0.2h-0.2c-0.2,0-0.4-0.1-0.4-0.2v-3h-4.4v3c0,0.1-0.1,0.2-0.4,0.2h-0.2
			c-0.2,0-0.4-0.1-0.4-0.2v-6.6c0-0.1,0.1-0.2,0.4-0.2h0.2c0.2,0,0.4,0.1,0.4,0.2v3.1h4.4v-3.1c0-0.1,0.1-0.2,0.4-0.2h0.2
			C103.1,26.1,103.2,26.2,103.2,26.3z"/>
		<path class="st0" d="M114.4,33.2H110c-0.2,0-0.4-0.1-0.4-0.2v-6.6c0-0.1,0.1-0.2,0.4-0.2h4.4c0.2,0,0.4,0.1,0.4,0.2v0.1
			c0,0.1-0.1,0.2-0.4,0.2h-3.8v2.8h3.3c0.2,0,0.4,0.1,0.4,0.2v0.1c0,0.1-0.1,0.2-0.4,0.2h-3.3v2.8h3.8c0.2,0,0.4,0.1,0.4,0.2V33
			C114.7,33.1,114.6,33.2,114.4,33.2z"/>
		<path class="st0" d="M121,27c0,0,0.1,0.8,0.1,2.1V33c0,0.1-0.1,0.2-0.4,0.2h-0.2c-0.2,0-0.4-0.1-0.4-0.2v-6.6
			c0-0.1,0.1-0.2,0.4-0.2h0.5c0.2,0,0.4,0.1,0.4,0.2l2.7,3.8c1,1.5,1.5,2.2,1.5,2.2s0-0.5,0-2.1v-3.8c0-0.1,0.1-0.2,0.4-0.2h0.2
			c0.2,0,0.4,0.1,0.4,0.2V33c0,0.1-0.1,0.2-0.4,0.2h-0.5c-0.2,0-0.4-0.1-0.4-0.2l-2.7-3.8C121.7,28,121,27,121,27z"/>
		<path class="st0" d="M132.9,33v-6.6c0-0.1,0.1-0.2,0.4-0.2h0.2c0.2,0,0.4,0.1,0.4,0.2V33c0,0.1-0.1,0.2-0.4,0.2h-0.2
			C133,33.2,132.9,33.1,132.9,33z"/>
		<path class="st0" d="M145.7,33.2h-0.1c-0.3,0-0.5-0.1-0.6-0.3l-1.7-2.7c-0.1,0-0.3,0-0.4,0h-1.8V33c0,0.1-0.1,0.2-0.4,0.2h-0.2
			c-0.2,0-0.4-0.1-0.4-0.2v-6.6c0-0.1,0.1-0.2,0.4-0.2h2.4c2.1,0,3,0.7,3,1.6v1c0,0.7-0.5,1.2-1.6,1.5l1.8,2.8
			C146.1,33,146,33.2,145.7,33.2z M142.9,29.8c1.5,0,2-0.4,2-1.1v-1c0-0.7-0.6-1.1-2-1.1h-1.8v3.2H142.9z"/>
		<path class="st0" d="M153.7,33l-2.7-6.6c-0.1-0.1,0.1-0.2,0.3-0.2h0.2c0.2,0,0.4,0.1,0.4,0.2l1.6,4c0.8,2,0.9,2.5,0.9,2.5
			s0.1-0.5,0.9-2.5l1.6-4c0.1-0.1,0.2-0.2,0.4-0.2h0.2c0.3,0,0.4,0.1,0.3,0.2l-2.7,6.6c-0.1,0.1-0.2,0.2-0.4,0.2h-0.7
			C153.9,33.2,153.8,33.1,153.7,33z"/>
		<path class="st0" d="M163.3,33v-6.6c0-0.1,0.1-0.2,0.4-0.2h0.2c0.2,0,0.4,0.1,0.4,0.2V33c0,0.1-0.1,0.2-0.4,0.2h-0.2
			C163.4,33.2,163.3,33.1,163.3,33z"/>
		<path class="st0" d="M171.5,26.3V33c0,0.1-0.1,0.2-0.4,0.2h-0.2c-0.2,0-0.4-0.1-0.4-0.2v-6.6c0-0.1,0.1-0.2,0.4-0.2h0.2
			C171.3,26.1,171.5,26.2,171.5,26.3z M176.4,26.4l-2.6,3.2l2.8,3.4c0.1,0.1,0,0.3-0.3,0.3H176c-0.2,0-0.3,0-0.4-0.2l-2.7-3.3
			c-0.1-0.1-0.1-0.2,0-0.3l2.6-3.2c0.1-0.1,0.2-0.2,0.4-0.2h0.2C176.4,26.1,176.5,26.2,176.4,26.4z"/>
	</g>
</g>
</svg>
