<?xml version="1.0" encoding="utf-8"?>
<!-- Generator: Adobe Illustrator 24.0.1, SVG Export Plug-In . SVG Version: 6.00 Build 0)  -->
<svg version="1.1" id="Layer_1" xmlns="http://www.w3.org/2000/svg" xmlns:xlink="http://www.w3.org/1999/xlink" x="0px" y="0px"
	 viewBox="0 0 177 34" style="enable-background:new 0 0 177 34;" xml:space="preserve">
<style type="text/css">
	.st0{fill:#FFFFFF;stroke:#000000;stroke-width:0.5;stroke-miterlimit:10;}
	.st1{fill:#BE1E2D;}
	.st2{fill:#FFFFFF;}
</style>
<g>
	<g>
		<g>
			<path class="st0" d="M12.9,0.3v11.8c0,2.6-0.6,4.5-1.9,5.6c-1.3,1.1-2.8,1.7-4.7,1.7c-1.8,0-3.3-0.5-4.6-1.6
				c-1.3-1-1.9-2.7-1.9-5h3c0,1.3,0.4,2.3,1.1,2.9c0.7,0.6,1.5,0.9,2.5,0.9c0.9,0,1.8-0.3,2.5-1c0.7-0.7,1-1.8,1-3.5V0.3H12.9z"/>
		</g>
		<g>
			<path class="st1" d="M31.8,4.8c1.1,1.3,1.6,3,1.6,5.1c0,2.1-0.5,3.8-1.6,5.1c-1.1,1.3-2.5,2-4.2,2c-1.7,0-3.1-0.7-4.2-2
				c-1.1-1.3-1.6-3-1.6-5.1c0-2.1,0.6-3.8,1.6-5.1c1.1-1.3,2.5-2,4.2-2C29.3,2.9,30.7,3.5,31.8,4.8z"/>
			<g>
				<path class="st0" d="M34.2,2.9C32.6,1,30.4,0,27.6,0c-2.7,0-4.9,1-6.6,2.9c-1.7,1.9-2.5,4.3-2.5,7.1c0,2.8,0.8,5.1,2.5,7
					c1.7,1.9,3.9,2.9,6.6,2.9c2.8,0,5-0.9,6.6-2.9c1.7-1.9,2.5-4.3,2.5-7C36.7,7.1,35.9,4.8,34.2,2.9z M31.8,15
					c-1.1,1.3-2.5,2-4.2,2c-1.7,0-3.1-0.7-4.2-2c-1.1-1.3-1.6-3-1.6-5.1c0-2.1,0.6-3.8,1.6-5.1c1.1-1.3,2.5-2,4.2-2
					c1.7,0,3.1,0.7,4.2,2c1.1,1.3,1.6,3,1.6,5.1C33.4,12,32.9,13.7,31.8,15z"/>
			</g>
		</g>
		<g>
			<path class="st0" d="M60.6,0.5v18.8h-3.7c-1.9-2.6-5.3-7.5-10.3-14.6v14.6h-3.2V0.5h3.6C49.5,4,53,8.8,57.4,15.1V0.5H60.6z"/>
		</g>
		<g>
			<path class="st1" d="M79.5,4.8c1.1,1.3,1.6,3,1.6,5.1c0,2.1-0.5,3.8-1.6,5.1c-1.1,1.3-2.5,2-4.2,2c-1.7,0-3.1-0.7-4.2-2
				c-1.1-1.3-1.6-3-1.6-5.1c0-2.1,0.5-3.8,1.6-5.1c1.1-1.3,2.5-2,4.2-2C77,2.9,78.4,3.5,79.5,4.8z"/>
			<g>
				<path class="st0" d="M81.9,2.9C80.3,1,78.1,0,75.3,0c-2.7,0-4.9,1-6.6,2.9c-1.7,1.9-2.5,4.3-2.5,7.1c0,2.8,0.8,5.1,2.5,7
					c1.7,1.9,3.9,2.9,6.6,2.9c2.7,0,5-0.9,6.6-2.9c1.7-1.9,2.5-4.3,2.5-7C84.4,7.1,83.6,4.8,81.9,2.9z M79.5,15
					c-1.1,1.3-2.5,2-4.2,2c-1.7,0-3.1-0.7-4.2-2c-1.1-1.3-1.6-3-1.6-5.1c0-2.1,0.5-3.8,1.6-5.1c1.1-1.3,2.5-2,4.2-2
					c1.7,0,3.1,0.7,4.2,2c1.1,1.3,1.6,3,1.6,5.1C81.1,12,80.6,13.7,79.5,15z"/>
			</g>
		</g>
		<g>
			<path class="st1" d="M104.9,6.4c0,1.2-0.3,2-1,2.4c-0.6,0.4-1.5,0.7-2.7,0.7h-5.5V3.3h5.5c1.2,0,2.1,0.2,2.7,0.7
				C104.6,4.5,104.9,5.3,104.9,6.4z"/>
			<g>
				<path class="st0" d="M106.5,2.1c-1.2-1-2.9-1.6-5.2-1.6h-8.7v18.8h3.2v-7h5.5c2.2,0,4-0.5,5.1-1.6c1.2-1,1.8-2.5,1.9-4.4v0
					C108.3,4.6,107.7,3.1,106.5,2.1z M104,8.9c-0.6,0.4-1.5,0.7-2.7,0.7h-5.5V3.3h5.5c1.2,0,2.1,0.2,2.7,0.7c0.6,0.5,1,1.3,1,2.4
					S104.6,8.4,104,8.9z"/>
			</g>
		</g>
		<g>
			<path class="st1" d="M122.3,4c1.4,3.3,2.5,6.2,3.5,8.6h-7.1C120.1,9.3,121.3,6.4,122.3,4z"/>
			<g>
				<path class="st0" d="M123.9,0.5h-3c-4.1,9.4-6.9,15.7-8.2,18.8h3.3c0.6-1.4,1.2-2.8,1.7-4.1h9.3c0.7,1.7,1.3,3.1,1.7,4.1h3.5
					C128.5,11,125.7,4.7,123.9,0.5z M118.7,12.6c1.4-3.3,2.6-6.2,3.6-8.6c1.4,3.3,2.5,6.2,3.5,8.6H118.7z"/>
			</g>
		</g>
		<g>
			<polygon class="st0" points="152.2,0.5 152.2,3.3 145.4,3.3 145.4,19.3 142.2,19.3 142.2,3.3 135.4,3.3 135.4,0.5 			"/>
		</g>
		<g>
			<polygon class="st0" points="177,0.5 177,19.3 173.8,19.3 173.8,11.1 163,11.1 163,19.3 159.9,19.3 159.9,0.5 163,0.5 163,8.3 
				173.8,8.3 173.8,0.5 			"/>
		</g>
	</g>
	<g>
		<path class="st2" d="M-0.2,28.1v-0.3c0-1,0.9-1.8,3-1.8c2.1,0,3,0.8,3,1.8v0.2c0,0.2-0.1,0.2-0.4,0.2H5.2c-0.2,0-0.4-0.1-0.4-0.2
			v-0.2c0-0.8-0.5-1.3-2-1.3c-1.5,0-2.1,0.5-2.1,1.3V28c0,0.7,0.6,1.1,1.4,1.4L4,30.2c1,0.4,1.8,0.9,1.8,1.7v0.4c0,1-1,1.8-3.1,1.8
			c-2.1,0-3-0.8-3-1.8v-0.3c0-0.2,0.1-0.2,0.4-0.2h0.2c0.2,0,0.4,0.1,0.4,0.2v0.3c0,0.8,0.6,1.3,2.1,1.3s2.1-0.5,2.1-1.3v-0.2
			c0-0.7-0.5-1-1.4-1.4l-1.9-0.8C0.7,29.5-0.2,28.9-0.2,28.1z"/>
		<path class="st2" d="M14.4,34c-2.1,0-3-0.8-3-1.8v-4.5c0-1,0.9-1.8,3-1.8s3,0.8,3,1.8v4.5C17.4,33.2,16.5,34,14.4,34z M14.4,26.5
			c-1.5,0-2.1,0.5-2.1,1.3v4.5c0,0.8,0.6,1.3,2.1,1.3c1.5,0,2-0.5,2-1.3v-4.5C16.4,27,15.9,26.5,14.4,26.5z"/>
		<path class="st2" d="M27.8,26.3L27.8,26.3c0,0.2-0.1,0.3-0.4,0.3h-2v7c0,0.2-0.1,0.2-0.4,0.2h-0.2c-0.2,0-0.4-0.1-0.4-0.2v-7h-2
			c-0.2,0-0.4-0.1-0.4-0.2v-0.1c0-0.2,0.1-0.2,0.4-0.2h5C27.7,26.1,27.8,26.2,27.8,26.3z"/>
		<path class="st2" d="M36.9,26.3L36.9,26.3c0,0.2-0.1,0.3-0.4,0.3h-2v7c0,0.2-0.1,0.2-0.4,0.2h-0.2c-0.2,0-0.4-0.1-0.4-0.2v-7h-2
			c-0.2,0-0.4-0.1-0.4-0.2v-0.1c0-0.2,0.1-0.2,0.4-0.2h5C36.8,26.1,36.9,26.2,36.9,26.3z"/>
		<path class="st2" d="M46.6,33.9h-4.4c-0.2,0-0.4-0.1-0.4-0.2v-7.3c0-0.2,0.1-0.2,0.4-0.2h4.4c0.2,0,0.4,0.1,0.4,0.2v0.1
			c0,0.2-0.1,0.2-0.4,0.2h-3.9v3.1h3.3c0.2,0,0.4,0.1,0.4,0.2V30c0,0.2-0.1,0.2-0.4,0.2h-3.3v3.1h3.9c0.2,0,0.4,0.1,0.4,0.2v0.1
			C47,33.8,46.8,33.9,46.6,33.9z"/>
		<path class="st2" d="M58.1,33.9h-0.2c-0.3,0-0.5-0.1-0.6-0.3l-1.7-3c-0.1,0-0.3,0-0.4,0h-1.8v3c0,0.2-0.1,0.2-0.4,0.2h-0.2
			c-0.2,0-0.4-0.1-0.4-0.2v-7.3c0-0.2,0.1-0.2,0.4-0.2h2.4c2.1,0,3,0.8,3,1.8v1.1c0,0.8-0.5,1.4-1.6,1.6l1.8,3.1
			C58.5,33.8,58.4,33.9,58.1,33.9z M55.2,30.1c1.5,0,2-0.5,2-1.2v-1.1c0-0.8-0.6-1.2-2-1.2h-1.8v3.5H55.2z"/>
		<path class="st2" d="M66.3,30.7v-0.1c0-0.2,0.1-0.2,0.4-0.2h0.4c1.5,0,2-0.5,2-1.2v-1.3c0-0.8-0.6-1.2-2-1.2h-1.8v7
			c0,0.2-0.1,0.2-0.4,0.2h-0.2c-0.2,0-0.4-0.1-0.4-0.2v-7.3c0-0.2,0.1-0.2,0.4-0.2h2.4c2.1,0,3,0.8,3,1.8v1.3c0,1-0.9,1.8-3,1.8
			h-0.4C66.5,30.9,66.3,30.9,66.3,30.7z"/>
		<path class="st2" d="M78.5,34c-2.1,0-3-0.8-3-1.8v-4.5c0-1,0.9-1.8,3-1.8c2.1,0,3,0.8,3,1.8v4.5C81.5,33.2,80.6,34,78.5,34z
			 M78.5,26.5c-1.5,0-2,0.5-2,1.3v4.5c0,0.8,0.6,1.3,2,1.3c1.5,0,2-0.5,2-1.3v-4.5C80.5,27,80,26.5,78.5,26.5z"/>
		<path class="st2" d="M91.9,26.3L91.9,26.3c0,0.2-0.1,0.3-0.4,0.3h-2v7c0,0.2-0.1,0.2-0.4,0.2H89c-0.2,0-0.4-0.1-0.4-0.2v-7h-2
			c-0.2,0-0.4-0.1-0.4-0.2v-0.1c0-0.2,0.1-0.2,0.4-0.2h5C91.8,26.1,91.9,26.2,91.9,26.3z"/>
		<path class="st2" d="M103.1,26.3v7.3c0,0.2-0.1,0.2-0.4,0.2h-0.2c-0.2,0-0.4-0.1-0.4-0.2v-3.3h-4.4v3.3c0,0.2-0.1,0.2-0.4,0.2
			h-0.2c-0.2,0-0.4-0.1-0.4-0.2v-7.3c0-0.2,0.1-0.2,0.4-0.2h0.2c0.2,0,0.4,0.1,0.4,0.2v3.5h4.4v-3.5c0-0.2,0.1-0.2,0.4-0.2h0.2
			C103,26.1,103.1,26.2,103.1,26.3z"/>
		<path class="st2" d="M114.3,33.9h-4.4c-0.2,0-0.4-0.1-0.4-0.2v-7.3c0-0.2,0.1-0.2,0.4-0.2h4.4c0.2,0,0.4,0.1,0.4,0.2v0.1
			c0,0.2-0.1,0.2-0.4,0.2h-3.9v3.1h3.3c0.2,0,0.4,0.1,0.4,0.2V30c0,0.2-0.1,0.2-0.4,0.2h-3.3v3.1h3.9c0.2,0,0.4,0.1,0.4,0.2v0.1
			C114.7,33.8,114.6,33.9,114.3,33.9z"/>
		<path class="st2" d="M121,27.1c0,0,0.1,0.9,0.1,2.4v4.2c0,0.2-0.1,0.2-0.4,0.2h-0.2c-0.2,0-0.4-0.1-0.4-0.2v-7.3
			c0-0.2,0.1-0.2,0.4-0.2h0.5c0.2,0,0.4,0.1,0.4,0.2l2.7,4.3c1.1,1.7,1.5,2.4,1.5,2.4s0-0.6,0-2.4v-4.2c0-0.2,0.1-0.2,0.4-0.2h0.2
			c0.2,0,0.4,0.1,0.4,0.2v7.3c0,0.2-0.1,0.2-0.4,0.2h-0.5c-0.2,0-0.4-0.1-0.4-0.2l-2.7-4.2C121.7,28.2,121,27.1,121,27.1z"/>
		<path class="st2" d="M132.9,33.6v-7.3c0-0.2,0.1-0.2,0.4-0.2h0.2c0.2,0,0.4,0.1,0.4,0.2v7.3c0,0.2-0.1,0.2-0.4,0.2h-0.2
			C133.1,33.9,132.9,33.8,132.9,33.6z"/>
		<path class="st2" d="M145.9,33.9h-0.2c-0.3,0-0.5-0.1-0.6-0.3l-1.7-3c-0.1,0-0.3,0-0.4,0h-1.8v3c0,0.2-0.1,0.2-0.4,0.2h-0.2
			c-0.2,0-0.4-0.1-0.4-0.2v-7.3c0-0.2,0.1-0.2,0.4-0.2h2.4c2.1,0,3,0.8,3,1.8v1.1c0,0.8-0.5,1.4-1.6,1.6l1.8,3.1
			C146.3,33.8,146.2,33.9,145.9,33.9z M143,30.1c1.5,0,2-0.5,2-1.2v-1.1c0-0.8-0.6-1.2-2-1.2h-1.8v3.5H143z"/>
		<path class="st2" d="M154,33.7l-2.8-7.4c-0.1-0.2,0.1-0.3,0.3-0.3h0.2c0.2,0,0.4,0.1,0.4,0.2l1.6,4.4c0.8,2.2,0.9,2.7,0.9,2.7
			s0.1-0.6,0.9-2.7l1.6-4.4c0.1-0.1,0.2-0.2,0.4-0.2h0.2c0.3,0,0.4,0.1,0.3,0.3l-2.8,7.4c-0.1,0.1-0.2,0.2-0.4,0.2h-0.7
			C154.2,33.9,154,33.8,154,33.7z"/>
		<path class="st2" d="M163.6,33.6v-7.3c0-0.2,0.1-0.2,0.4-0.2h0.2c0.2,0,0.4,0.1,0.4,0.2v7.3c0,0.2-0.1,0.2-0.4,0.2H164
			C163.7,33.9,163.6,33.8,163.6,33.6z"/>
		<path class="st2" d="M171.9,26.3v7.3c0,0.2-0.1,0.2-0.4,0.2h-0.2c-0.2,0-0.4-0.1-0.4-0.2v-7.3c0-0.2,0.1-0.2,0.4-0.2h0.2
			C171.7,26.1,171.9,26.2,171.9,26.3z M176.8,26.4l-2.7,3.5l2.8,3.7c0.1,0.2,0,0.3-0.3,0.3h-0.3c-0.2,0-0.3,0-0.4-0.2l-2.7-3.7
			c-0.1-0.1-0.1-0.2,0-0.3l2.6-3.5c0.1-0.1,0.2-0.2,0.4-0.2h0.2C176.8,26.1,176.9,26.2,176.8,26.4z"/>
	</g>
</g>
</svg>
