<?xml version="1.0" encoding="utf-8"?>
<!-- Generator: Adobe Illustrator 24.0.1, SVG Export Plug-In . SVG Version: 6.00 Build 0)  -->
<svg version="1.1" id="Layer_1" xmlns="http://www.w3.org/2000/svg" xmlns:xlink="http://www.w3.org/1999/xlink" x="0px" y="0px"
	 viewBox="0 0 188 136" style="enable-background:new 0 0 188 136;" xml:space="preserve">
<style type="text/css">
	.st0{fill:url(#SVGID_1_);}
	.st1{fill:url(#SVGID_2_);}
	.st2{fill:#FFFFFF;}
	.st3{fill:url(#SVGID_3_);}
	.st4{fill:#39B54A;}
	.st5{fill:#FF0000;}
	.st6{fill:url(#SVGID_4_);}
	.st7{fill:url(#SVGID_5_);}
	.st8{fill:url(#SVGID_6_);}
</style>
<g>
	<g>
		<linearGradient id="SVGID_1_" gradientUnits="userSpaceOnUse" x1="8.1777" y1="110.351" x2="182.1777" y2="110.351">
			<stop  offset="0" style="stop-color:#39B54A"/>
			<stop  offset="9.234369e-03" style="stop-color:#38B149"/>
			<stop  offset="0.1077" style="stop-color:#338A3E"/>
			<stop  offset="0.2135" style="stop-color:#2E6935"/>
			<stop  offset="0.3263" style="stop-color:#2A4E2D"/>
			<stop  offset="0.4485" style="stop-color:#273927"/>
			<stop  offset="0.5848" style="stop-color:#252A23"/>
			<stop  offset="0.7468" style="stop-color:#232221"/>
			<stop  offset="1" style="stop-color:#231F20"/>
		</linearGradient>
		<rect x="8.2" y="109.8" class="st0" width="174" height="1.1"/>
		<linearGradient id="SVGID_2_" gradientUnits="userSpaceOnUse" x1="8.1777" y1="107.351" x2="182.1777" y2="107.351">
			<stop  offset="0" style="stop-color:#39B54A"/>
			<stop  offset="9.234369e-03" style="stop-color:#38B149"/>
			<stop  offset="0.1077" style="stop-color:#338A3E"/>
			<stop  offset="0.2135" style="stop-color:#2E6935"/>
			<stop  offset="0.3263" style="stop-color:#2A4E2D"/>
			<stop  offset="0.4485" style="stop-color:#273927"/>
			<stop  offset="0.5848" style="stop-color:#252A23"/>
			<stop  offset="0.7468" style="stop-color:#232221"/>
			<stop  offset="1" style="stop-color:#231F20"/>
		</linearGradient>
		<rect x="8.2" y="106.8" class="st1" width="174" height="1.1"/>
	</g>
	<g>
		<path class="st2" d="M179.9,60.9l-2.4-3.7c-0.4-0.6-1-0.9-1.7-0.9h-3.1l-0.1-1.2c-0.1-0.6-0.4-1.1-0.9-1.5l-3.4-2.2
			c-0.3-0.2-0.7-0.3-1.1-0.3c-0.2,0-0.3,0-0.5,0.1l-0.3,0.1c-0.9,0.2-1.5,1-1.5,1.9v32.8c-1.2-1.2-2.5-2.4-3.8-3.4
			c-0.9-0.6-1.8-1.2-2.7-1.8c1.7-1.1,3-2.4,4-4.1c1.1-1.9,1.6-4.1,1.6-6.8c0-2.7-0.6-5.2-1.8-7.2c-1.2-2.1-2.9-3.7-5-4.8
			c-2.1-1.1-4.4-1.7-6.9-1.7c-2.2,0-4.2,0.4-5.9,1.1c-1.1,0.5-2,1.1-2.7,1.8l-1.2-1.8c-0.4-0.6-1-0.9-1.7-0.9h-3.1l-0.1-1.2
			c-0.1-0.6-0.4-1.1-0.9-1.5l-3.4-2.2c-0.3-0.2-0.7-0.3-1.1-0.3c-0.2,0-0.3,0-0.5,0.1l-0.3,0.1c-0.9,0.2-1.5,1-1.5,1.9v10
			c0,0.3,0,0.7,0,1c-0.3-0.4-0.6-0.8-0.9-1.2c-1.9-2.3-4-4-6.1-5.2c-2.2-1.2-4.7-1.8-7.2-1.8c-2.3,0-4.6,0.6-6.7,1.6
			c-2.1,1.1-4.1,2.6-5.9,4.5c0,0-0.1,0.1-0.1,0.1c0-0.4,0-0.9-0.3-1.3l-2.3-3.7c-0.4-0.6-1-0.9-1.7-0.9H7.9c-0.7,0-1.4,0.4-1.8,1
			c-0.4,0.6-0.3,1.4,0.1,2l2.4,3.7c0.4,0.6,1,0.9,1.7,0.9h13.5c-0.3,0.3-0.5,0.7-0.8,1.1c-0.8,1.1-1.4,2.3-1.8,3.6
			c-0.4,1.3-0.7,2.6-0.7,4c0,2.3,0.5,4.4,1.5,6.2c1,1.9,2.3,3.4,4,4.6c1.7,1.1,3.7,1.7,5.9,1.7c1.7,0,3.4-0.3,5-1
			c1.1-0.5,2.1-1,3-1.7c-0.1,0.8-0.3,1.5-0.7,2.3c-0.5,0.9-1.2,1.6-2.3,2.2c-1.1,0.6-2.6,0.9-4.4,0.9c-2.6,0-4.8-0.7-6.8-2.1
			c-2-1.5-3.8-3.7-5.4-6.8c-1.6-3.2-3.2-7.5-4.5-12.5c-0.1-0.5-0.5-1-1-1.2c-0.3-0.2-0.6-0.3-1-0.3c-0.2,0-0.4,0-0.6,0.1l-2.8,0.8
			c-1,0.3-1.6,1.3-1.4,2.3c1.4,6.6,3.1,12.2,5.2,16.5c2.1,4.5,4.7,7.9,7.7,10.1c3,2.3,6.6,3.5,10.5,3.5c3.3,0,6.1-0.7,8.3-2.1
			c2.2-1.4,3.8-3.3,4.9-5.6c1-2.3,1.5-4.8,1.5-7.6c0-1.7-0.2-3.4-0.5-4.9c-0.4-1.6-1-3.2-1.8-4.7c0,0,0,0,0,0
			c0.6,0.3,1.1,0.6,1.7,0.9c0.9,0.4,1.9,0.8,2.8,1.1c-0.2,0.8-0.4,1.7-0.6,2.6c-0.5,2.4-0.7,4.9-0.7,7.2c0,3,0.3,5.8,0.8,8.2
			c0.5,2.4,1.3,5,2.4,7.6c0.2,0.5,0.6,0.9,1.1,1.1c0.2,0.1,0.5,0.1,0.8,0.1c0.3,0,0.6-0.1,0.8-0.2l2.8-1.2c0.9-0.4,1.4-1.5,1.1-2.4
			c-0.4-1.3-0.7-2.6-1-3.7c-0.2-1.2-0.4-2.4-0.5-3.6c-0.1-1.2-0.2-2.4-0.2-3.7c0-2.2,0.4-4.4,1.2-6.5c0.8-2.2,1.9-4.4,3.5-6.5
			c0.5-0.7,0.5-1.6,0-2.3l-3.3-4.7c-0.4-0.5-1-0.9-1.6-0.9c-2.5,0-4.7-0.3-6.5-0.8c-1.4-0.4-2.6-0.9-3.7-1.7h39.7v11.9
			c-0.6-0.8-1.3-1.5-2-2.2c-1.4-1.4-3.1-2.5-4.9-3.3c-1.8-0.8-3.9-1.2-6-1.2c-3,0-5.4,0.8-7.3,2.5c-2,1.7-3,4.1-3,7
			c0,2.6,0.8,4.8,2.3,6.5c1.6,1.9,3.9,2.8,6.9,2.8c1.7,0,3.2-0.3,4.4-1c1.3-0.7,2.3-1.7,2.9-3c0.5-0.9,0.7-1.9,0.9-2.9
			c0.8,0.6,1.6,1.5,2.2,2.5c0.8,1.2,1.5,2.7,2.1,4.2c0.6,1.6,1.1,3.2,1.5,4.9c0.4,1.7,0.6,3.3,0.7,4.9c0,0.6,0.3,1.1,0.8,1.5
			l3.2,2.5c0.4,0.3,0.8,0.4,1.2,0.4c0.2,0,0.4,0,0.6-0.1l0.4-0.1c0.8-0.3,1.4-1,1.4-1.9V64h5.2c0.2,0,0.3,0,0.4-0.1
			c-1.2,1.5-2.3,3.1-3.4,4.9c-0.5,0.8-0.3,1.8,0.3,2.4l5.1,5c0.4,0.4,0.9,0.6,1.4,0.6c0.4,0,0.9-0.1,1.2-0.4c0.5-0.4,1-0.7,1.5-0.9
			c0.4-0.2,0.9-0.3,1.6-0.3c0.3,0,0.5,0.1,0.8,0.2c0.1,0.1,0.2,0.1,0.3,0.3c0,0.1,0.1,0.3,0.1,0.8c0,0.9-0.2,1.7-0.7,2.4
			c-0.6,0.8-1.4,1.7-2.3,2.4c-0.4,0.3-0.7,0.9-0.8,1.4c0,0.6,0.2,1.1,0.5,1.5l4.4,4.7c0.4,0.4,0.9,0.6,1.4,0.6c0,0,0,0,0,0
			c0.5,0,1-0.2,1.4-0.6l13.9-14.1c0.5,0.9,1.1,1.8,1.6,2.8v20.9c0,0.8,0.4,1.4,1.1,1.8l3.8,2c0.3,0.1,0.6,0.2,0.9,0.2
			c0.2,0,0.3,0,0.5-0.1l0.3-0.1c0.9-0.2,1.5-1,1.5-1.9V64h3c-0.1,0.5-0.1,0.9-0.1,1.4c0,2.6,0.8,4.6,2.3,6c1.5,1.4,3.2,2.1,5.3,2.1
			c2.1,0,3.8-0.6,5-1.8c1.2-1.2,1.8-2.8,1.8-4.7c0-0.7-0.1-1.4-0.3-2.1c0.8,0.1,1.5,0.3,2,0.9c0.6,0.6,0.9,1.5,0.9,2.6
			s-0.3,2-0.9,2.7c-0.7,0.8-1.6,1.5-2.8,2c-1.3,0.5-2.7,0.9-4.2,1.1c-1.1,0.1-2.2,0.2-3.3,0.2c-0.4,0-0.9,0-1.3,0c0,0-0.1,0-0.1,0
			c-0.6,0-1.2,0.3-1.6,0.8c-0.4,0.5-0.5,1.2-0.3,1.9l2.8,7.9c0.3,0.7,0.9,1.3,1.7,1.3c3,0.3,5.7,0.9,8.1,2c2.4,1,4.6,2.4,6.5,4.1
			c1.9,1.7,3.6,3.8,5,6.1c0.1,0.2,0.3,0.4,0.6,0.6l3.4,2.5c0.3,0.2,0.8,0.4,1.2,0.4c0.1,0,0.2,0,0.3,0l0.4-0.1c1-0.2,1.7-1,1.7-2V64
			h5.2c0.7,0,1.4-0.4,1.8-1C180.3,62.3,180.3,61.5,179.9,60.9z M38.7,69.6c-1.5,1.9-2.9,3.5-4.3,4.6c-1.1,0.9-2.2,1.4-3.2,1.4
			c-0.7,0-1.2-0.2-1.6-0.5c-0.1-0.1-0.4-0.4-0.4-1.3c0-0.7,0.2-1.4,0.6-2.1c0.5-0.8,1.2-1.7,2.2-2.6c1-0.9,2.2-1.8,3.6-2.7
			c0.4-0.3,0.9-0.5,1.4-0.8c0.7,1.2,1.5,2.4,2.4,3.4C39.1,69.1,38.9,69.4,38.7,69.6z M114.8,72.2c-0.3-1.1-0.8-2-1.5-2.8
			c-0.8-0.9-1.8-1.5-2.9-1.9c0.7-0.6,1.4-1.1,2.1-1.4c0.9-0.4,1.8-0.7,2.6-0.7c1.1,0,2.2,0.2,3.2,0.7c0.5,0.2,1,0.5,1.5,0.9
			L114.8,72.2z"/>
		<g>
			<path d="M96.5,58.3H61.6H60H7.9l2.4,3.7h18.4c-0.5,0.4-1.1,0.9-1.6,1.4c-1,0.9-1.8,1.9-2.4,2.8c-0.7,1-1.2,2-1.6,3.1
				c-0.4,1.1-0.6,2.2-0.6,3.4c0,2,0.4,3.7,1.2,5.3c0.8,1.6,1.9,2.9,3.3,3.8c1.4,0.9,3,1.4,4.8,1.4c1.5,0,2.9-0.3,4.2-0.8
				c1.3-0.6,2.5-1.3,3.6-2.3c0.6-0.5,1.1-1,1.6-1.6c0,0,0,0.1,0.1,0.1c0.3,0.9,0.5,2,0.5,3.2c0,1.4-0.3,2.7-1,4
				c-0.7,1.3-1.7,2.3-3.1,3c-1.4,0.8-3.2,1.1-5.3,1.1c-3,0-5.7-0.8-8-2.5c-2.3-1.6-4.3-4.2-6-7.5c-1.7-3.4-3.3-7.7-4.6-12.9
				l-2.8,0.8c1.3,6.5,3,11.9,5,16.1c2,4.2,4.3,7.4,7.1,9.4c2.7,2,5.8,3.1,9.3,3.1c2.9,0,5.4-0.6,7.2-1.8c1.9-1.2,3.3-2.8,4.2-4.8
				c0.9-2,1.4-4.3,1.4-6.7c0-1.6-0.2-3.1-0.5-4.5c-0.3-1.4-0.9-2.8-1.6-4.1c-0.8-1.3-1.7-2.5-3-3.6c-1.6,2.1-3.1,3.7-4.6,4.9
				c-1.5,1.2-3,1.8-4.4,1.8c-1.2,0-2.2-0.3-2.9-1c-0.7-0.7-1.1-1.6-1.1-2.8c0-1.1,0.3-2.1,0.9-3.2c0.6-1,1.5-2,2.5-3
				c1.1-1,2.4-2,3.9-2.9c1-0.6,2.1-1.2,3.3-1.8c1.1,2.3,2.5,4.2,4,5.7c1.7,1.6,3.6,2.9,5.6,3.8c1.5,0.7,3,1.2,4.5,1.5
				c-0.5,1.3-0.9,2.8-1.2,4.3c-0.5,2.3-0.7,4.6-0.7,6.9c0,2.9,0.3,5.5,0.8,7.8c0.5,2.3,1.3,4.8,2.3,7.3L56,99c-0.4-1.4-0.8-2.7-1-4
				c-0.2-1.3-0.4-2.5-0.5-3.8c-0.1-1.3-0.2-2.5-0.2-3.8c0-2.4,0.4-4.8,1.3-7.2c0.8-2.4,2.1-4.7,3.7-7l-3.3-4.7c-2.6,0-5-0.3-7-0.8
				s-3.7-1.4-5.2-2.7c-0.9-0.8-1.7-1.8-2.5-3h21H64h23.5v15c0,1.3,0,2.8,0.1,4.4c0,1.2,0.1,2.3,0.2,3.3c-0.1-0.2-0.1-0.3-0.2-0.5
				c-0.6-1.7-1.3-3.4-2.2-4.9c-0.9-1.6-2-3-3.3-4.2c-1.3-1.2-2.7-2.2-4.3-2.9c-1.6-0.7-3.4-1-5.3-1c-2.5,0-4.5,0.7-6,2
				c-1.5,1.3-2.3,3.2-2.3,5.5c0,2.1,0.6,3.8,1.8,5.2c1.2,1.4,3,2.1,5.4,2.1c1.3,0,2.5-0.3,3.4-0.8c0.9-0.5,1.6-1.2,2.1-2.2
				c0.5-0.9,0.7-2,0.7-3.1c0-0.6-0.1-1.3-0.3-1.9c1.1,0.1,2.1,0.5,3.1,1.2c1.1,0.8,2.2,1.9,3.1,3.3c0.9,1.4,1.7,2.9,2.3,4.6
				c0.6,1.7,1.2,3.4,1.6,5.2c0.4,1.8,0.6,3.5,0.7,5.2l3.2,2.5l0.4-0.1V62h7.2L96.5,58.3z"/>
			<path d="M138.8,58.3h-4.9l-0.3-3l-3.4-2.2l-0.3,0.1v9.9c0,1.6,0,3.2,0.1,4.6c0.1,1.1,0.1,2.4,0.2,3.9c-1.5-2.9-3.1-5.4-4.8-7.4
				c-1.8-2.1-3.6-3.7-5.6-4.7c-2-1.1-4-1.6-6.2-1.6c-2,0-3.9,0.5-5.8,1.4c-1.9,1-3.7,2.3-5.4,4.1c-1.7,1.8-3.3,3.9-4.8,6.4l5.1,5
				c0.6-0.5,1.2-0.9,1.9-1.2c0.7-0.3,1.5-0.5,2.4-0.5c0.6,0,1.1,0.1,1.6,0.3c0.5,0.2,0.9,0.6,1.2,1c0.3,0.5,0.5,1.1,0.5,1.9
				c0,1.3-0.4,2.5-1.1,3.5c-0.7,1-1.6,2-2.8,2.8l4.4,4.7l15.7-15.8c1.1,1.6,2.2,3.4,3.3,5.5v21.4l3.8,2l0.3-0.1V62h7.2L138.8,58.3z
				 M107.7,69.1c-0.5,0-1,0-1.4,0.1c0.6-0.9,1.2-1.6,1.8-2.3c1.1-1.2,2.3-2,3.4-2.6c1.2-0.6,2.3-0.9,3.5-0.9c1.4,0,2.8,0.3,4.1,0.9
				c1.2,0.6,2.4,1.5,3.6,2.6l-9.6,9.8c0.1-0.5,0.1-0.9,0.1-1.4c0-2-0.5-3.5-1.5-4.6C110.7,69.6,109.4,69.1,107.7,69.1z"/>
			<path d="M175.8,58.3h-4.9l-0.3-3l-3.4-2.2l-0.3,0.1v38.7c-0.8-1.4-1.7-2.6-2.7-3.8c-1.3-1.5-2.7-2.8-4.3-3.9
				c-1.6-1.1-3.2-2.1-5-3c-0.4-0.2-0.8-0.3-1.1-0.5c1.1-0.3,2.2-0.8,3.1-1.3c1.7-0.9,3-2.2,3.9-3.7c0.9-1.6,1.4-3.5,1.4-5.8
				c0-2.4-0.5-4.5-1.6-6.2c-1-1.8-2.4-3.1-4.2-4.1c-1.8-1-3.8-1.5-6-1.5c-2,0-3.6,0.3-5,0.9c-1.4,0.6-2.5,1.5-3.2,2.6
				c-0.7,1.1-1.1,2.4-1.1,3.7c0,2,0.5,3.5,1.6,4.5c1.1,1,2.4,1.5,3.9,1.5c1.6,0,2.8-0.4,3.6-1.2c0.8-0.8,1.2-1.9,1.2-3.3
				c0-1-0.2-1.8-0.6-2.5c-0.2-0.3-0.4-0.6-0.7-0.9c0.1-0.1,0.3-0.2,0.4-0.2c0.7-0.3,1.4-0.5,2.3-0.5c1.5,0,2.8,0.5,3.7,1.5
				c1,1,1.4,2.3,1.4,4c0,1.6-0.5,2.9-1.4,4c-0.9,1.1-2.1,1.9-3.5,2.5c-1.5,0.6-3,1-4.7,1.2c-1.7,0.2-3.3,0.3-4.9,0.2l2.8,7.9
				c3.2,0.3,6,1,8.6,2.1c2.6,1.1,4.9,2.6,7,4.4c2.1,1.8,3.9,4,5.4,6.6l3.4,2.5l0.4-0.1V62h7.2L175.8,58.3z"/>
		</g>
	</g>
	<path d="M99.9,26.3l-0.9-1.4c-0.4-0.5-1-0.9-1.7-0.9h-29c0.5-0.8,0.5-1.8-0.2-2.5c-1.1-1.1-2.2-2.2-3.4-3.2c-1.2-1-2.4-1.8-3.6-2.5
		c-1.3-0.7-2.6-1.3-3.9-1.7c-1.4-0.4-2.7-0.6-4-0.6c-1.7,0-3.3,0.4-4.8,1.1c-1.5,0.7-2.8,1.7-4,3c-1.2,1.2-2.2,2.8-3,4.5
		c-0.3,0.7-0.2,1.4,0.2,2H25c-0.3-1.6-0.8-2.8-1.5-3.8c-0.8-1.1-2.4-2.5-5.2-2.5c-0.6,0-1.3,0-1.9,0.1c-0.5,0.1-1,0.1-1.5,0.2
		c-0.5,0.1-1,0.1-1.6,0.1c-0.8,0-1.2-0.1-1.4-0.2c0,0-0.1-0.1-0.1-0.1c0-0.1-0.2-0.5-0.2-1.4c0-0.1,0-0.3,0-0.4c0-0.2,0-0.3,0-0.5
		c0.1-0.5-0.1-1.1-0.4-1.5c-0.3-0.4-0.8-0.7-1.4-0.7l-1.2-0.1c-0.1,0-0.1,0-0.2,0c-0.9,0-1.8,0.7-2,1.6c-0.1,0.3-0.1,0.7-0.1,1.1
		c0,0.4,0,0.7,0,1.1c0,1.5,0.2,2.7,0.7,3.8c0.5,1.2,1.4,2.1,2.5,2.7c1,0.6,2.2,0.8,3.7,0.8c0.8,0,1.6,0,2.2-0.1
		c0.6-0.1,1.2-0.1,1.7-0.2c0.5-0.1,1-0.1,1.6-0.1c0.2,0,0.4,0,0.6,0.1c0.1,0.1,0.1,0.1,0.2,0.2c-1,0.2-1.9,0.6-2.8,1.1
		c-1.3,0.8-2.5,1.9-3.5,3.2c-1,1.3-1.7,2.8-2.2,4.5c-0.5,1.7-0.8,3.4-0.8,5.2c0,2.7,0.4,5.1,1.3,7c0.9,2,2,3.6,3.5,4.7
		c1.5,1.2,3.2,1.8,4.9,1.8c1.8,0,2.9-0.7,3.5-1.3c0.9-0.9,1.3-2,1.3-3.4c0-1.2-0.4-2.3-1.2-3.2c-0.6-0.6-1.6-1.4-3.3-1.4
		c-1.1,0-2.2,0.4-3,1.1c-0.1,0.1-0.2,0.2-0.3,0.3c-0.2-0.4-0.3-0.8-0.5-1.2c-0.3-1.1-0.5-2.3-0.5-3.6c0-1.4,0.2-2.8,0.6-4
		c0.4-1.2,1-2.2,1.6-3.1c0.7-0.9,1.4-1.5,2.2-2c0.7-0.4,1.4-0.6,2.2-0.6h2.4v12c0,0.7,0.3,1.3,0.9,1.7l1.4,0.9
		c0.3,0.2,0.7,0.3,1.1,0.3c0.5,0,1.1-0.2,1.5-0.6c1.1-1.2,2.3-2.4,3.5-3.4c0.6-0.6,1.3-1.1,1.9-1.7c-0.1,0.7-0.1,1.5-0.1,2.2
		c0,1.7,0.2,3.4,0.6,5c0.4,1.6,0.9,3.2,1.5,4.7c0.2,0.5,0.6,0.9,1.1,1.1c0.2,0.1,0.5,0.1,0.8,0.1c0.3,0,0.5-0.1,0.8-0.2l1.1-0.5
		c1-0.4,1.4-1.5,1.1-2.5c-0.3-0.8-0.5-1.5-0.7-2.2c-0.2-0.7-0.3-1.4-0.5-2.2c-0.1-0.8-0.2-1.6-0.2-2.5c0-1.4,0.2-2.8,0.5-4.1
		c0.3-1.3,0.8-2.4,1.4-3.3c0.5-0.8,0.4-1.9-0.3-2.5L40,29.7c-0.1-0.1-0.3-0.2-0.4-0.3h4.8v20c0,0.7,0.4,1.4,1,1.7l1.4,0.8
		c0.3,0.2,0.6,0.3,1,0.3c0.2,0,0.4,0,0.6-0.1l0.1,0c0.8-0.3,1.4-1,1.4-1.9V29.4h13.7v5.5c-0.8-0.8-1.7-1.4-2.7-1.9
		c-1.3-0.6-2.7-0.9-4.2-0.9c-1.6,0-3,0.5-4.1,1.4c-1.2,1-1.8,2.4-1.8,4c0,1.4,0.4,2.6,1.3,3.6c0.6,0.7,1.8,1.6,3.8,1.6
		c1,0,1.8-0.2,2.5-0.6c0.7-0.4,1.3-1,1.7-1.8c0.1-0.2,0.2-0.4,0.3-0.7c0.3,0.3,0.5,0.6,0.8,0.9c0.5,0.8,0.9,1.6,1.3,2.6
		c0.4,1,0.7,2,0.9,3c0.2,1,0.3,2,0.3,2.8c0,0.6,0.3,1.2,0.8,1.5l1.2,0.9c0.4,0.3,0.8,0.4,1.2,0.4c0.2,0,0.3,0,0.5-0.1l0.2,0
		c0.9-0.2,1.5-1,1.5-1.9V29.4H81c-0.4,0.1-0.7,0.3-1,0.5c-1.5,0.7-3.1,1.5-4.6,2.4c-1.5,0.9-3,1.9-4.6,2.9c-0.8,0.5-1.1,1.5-0.7,2.4
		l1.1,2.8c0.2,0.6,0.8,1.1,1.4,1.2c1.6,0.4,3.1,0.9,4.5,1.6c1.3,0.7,2.5,1.7,3.6,2.7c1.1,1.1,2.1,2.4,2.9,3.9
		c0.1,0.2,0.3,0.4,0.5,0.6l1.2,1c0.4,0.3,0.8,0.4,1.3,0.4c0.2,0,0.3,0,0.5-0.1l0.2,0c0.9-0.2,1.5-1,1.5-1.9v-8
		c0.2,0.5,0.5,0.9,0.8,1.4c0.6,0.6,1.6,1.4,3.3,1.4c1.5,0,2.8-0.6,3.7-1.8c0.8-1,1.2-2.5,1.2-4.3c0-1.8-0.5-3.6-1.6-5.2
		c-1-1.5-2.4-2.8-4.1-3.8c-0.1,0-0.2-0.1-0.3-0.1h6.4c0.7,0,1.4-0.4,1.8-1.1C100.3,27.7,100.3,26.9,99.9,26.3z M34.5,31.3
		c-1.1,0.7-2.1,1.5-3.1,2.3c-0.3,0.3-0.7,0.5-1,0.8v-5h7.2C36.6,29.9,35.6,30.5,34.5,31.3z M48.5,24C48.5,24,48.5,24,48.5,24
		c-0.3-0.4-0.5-0.7-0.7-0.9c0.2-0.4,0.5-0.8,0.9-1.3c0.6-0.7,1.4-1.3,2.3-1.8c0.8-0.4,1.7-0.7,2.7-0.7c1,0,2,0.2,3.1,0.5
		c1.1,0.4,2.3,1,3.6,1.8c1,0.6,2,1.4,3.1,2.4H48.5z M83.1,40.7c-1.2-1.1-2.6-2.1-4-2.9c-0.2-0.1-0.3-0.2-0.5-0.3
		c0.1,0,0.1-0.1,0.2-0.1c1.3-0.7,2.6-1.4,3.8-1.9c0.1-0.1,0.3-0.1,0.4-0.2V40.7z M89.4,37.3c-0.3,0.4-0.6,0.8-0.7,1.2v-4.1
		c0.2,0,0.3,0.1,0.5,0.2c0.7,0.3,1.3,0.6,1.8,1c0.2,0.1,0.3,0.3,0.5,0.4C90.4,36.4,89.7,36.9,89.4,37.3z"/>
	<path class="st2" d="M91.1,31.3c-1.3-0.8-2.8-1.2-4.5-1.3v-2.5h11.6L97.3,26H70.4h-0.9H51.2h-0.9h-2.7c-0.2-0.3-0.4-0.5-0.7-0.9
		c-0.3-0.3-0.5-0.6-0.7-1c-0.2-0.3-0.4-0.6-0.6-0.9c0.4-0.9,0.9-1.9,1.7-2.8c0.8-0.9,1.7-1.7,2.8-2.3c1.1-0.6,2.3-0.9,3.6-0.9
		c1.2,0,2.5,0.2,3.7,0.6c1.3,0.4,2.6,1.1,4,2c1.4,0.9,2.9,2.1,4.5,3.6l0.7-0.7c-1-1.1-2.1-2.1-3.2-3c-1.1-0.9-2.2-1.7-3.4-2.4
		c-1.1-0.7-2.3-1.2-3.5-1.6c-1.2-0.4-2.3-0.5-3.4-0.5c-1.4,0-2.7,0.3-3.9,0.9c-1.2,0.6-2.4,1.4-3.4,2.5s-1.9,2.4-2.7,4
		c0.4,0.5,0.9,1,1.4,1.6c0.5,0.5,1,1.1,1.5,1.6H43h-0.9H23.9h-0.6c-0.2-2.1-0.7-3.6-1.4-4.7c-0.8-1.1-2-1.6-3.6-1.6
		c-0.5,0-1.1,0-1.6,0.1c-0.5,0.1-1,0.1-1.6,0.2c-0.5,0.1-1.2,0.1-1.8,0.1c-0.9,0-1.6-0.1-2.1-0.3c-0.6-0.2-1-0.6-1.2-1.1
		c-0.3-0.5-0.4-1.3-0.4-2.3c0-0.2,0-0.3,0-0.5c0-0.2,0-0.4,0.1-0.6l-1.2-0.1c-0.1,0.3-0.1,0.5-0.1,0.9c0,0.3,0,0.6,0,0.9
		c0,1.2,0.2,2.2,0.5,3c0.4,0.8,0.9,1.4,1.6,1.8c0.7,0.4,1.6,0.6,2.7,0.6c0.7,0,1.4,0,2-0.1c0.6-0.1,1.2-0.1,1.7-0.2
		c0.6-0.1,1.2-0.1,1.8-0.1c0.7,0,1.3,0.2,1.8,0.5s0.8,0.8,1.1,1.5c0.2,0.6,0.4,1.3,0.5,2.2h-0.7c-1.3,0-2.5,0.3-3.6,1
		c-1.1,0.7-2.1,1.6-2.9,2.7c-0.8,1.1-1.5,2.5-1.9,3.9s-0.7,3-0.7,4.6c0,2.4,0.4,4.5,1.1,6.3c0.7,1.7,1.7,3,2.8,3.9
		c1.2,0.9,2.4,1.3,3.7,1.3c0.9,0,1.6-0.2,2.1-0.7c0.5-0.5,0.7-1.1,0.7-1.9c0-0.7-0.2-1.3-0.6-1.8c-0.4-0.5-1-0.7-1.8-0.7
		c-0.7,0-1.2,0.2-1.6,0.6c-0.4,0.4-0.7,0.9-0.7,1.6c0,0.4,0.1,0.8,0.2,1.1c0,0.1,0.1,0.2,0.2,0.3c-0.8-0.4-1.4-0.9-2-1.6
		c-0.7-0.9-1.3-2-1.6-3.2c-0.4-1.3-0.6-2.7-0.6-4.2c0-1.7,0.2-3.2,0.7-4.6c0.5-1.4,1.1-2.6,1.9-3.7c0.8-1.1,1.7-1.9,2.8-2.5
		s2.1-0.9,3.2-0.9h1.4h0.9h2.1v14l1.4,0.9c1.2-1.2,2.4-2.4,3.6-3.6c1.2-1.1,2.5-2.2,3.7-3.1c0.9-0.7,1.9-1.3,2.7-1.8
		c-0.2,0.4-0.4,0.9-0.5,1.4c-0.3,0.8-0.4,1.7-0.6,2.7c-0.1,0.9-0.2,1.9-0.2,2.9c0,1.5,0.2,3.1,0.5,4.6c0.3,1.5,0.8,3,1.4,4.4
		l1.1-0.5c-0.3-0.8-0.5-1.6-0.7-2.4c-0.2-0.8-0.4-1.6-0.5-2.4s-0.2-1.8-0.2-2.8c0-1.6,0.2-3.2,0.6-4.6c0.4-1.4,0.9-2.7,1.6-3.8
		l-2.3-2.2c-0.9,0.5-1.9,1.1-2.9,1.8c-1,0.7-2,1.4-3,2.2c-1,0.8-1.9,1.6-2.7,2.4c-0.6,0.5-1.1,1-1.5,1.5V27.4H43H44h2.4v22l1.4,0.8
		l0.1,0V27.4h3.3h0.9h13.5v11.4c0,0.7,0,1.4,0,2.2c0,0.7,0.1,1.4,0.1,2c0-0.2-0.1-0.4-0.1-0.6c-0.3-1-0.7-2-1.2-3
		c-0.5-1-1.1-1.9-1.9-2.7c-0.7-0.8-1.6-1.4-2.6-1.9c-1-0.5-2.1-0.7-3.3-0.7c-1.2,0-2.1,0.3-2.8,0.9c-0.7,0.6-1.1,1.4-1.1,2.5
		c0,0.9,0.3,1.7,0.8,2.3s1.3,0.9,2.3,0.9c0.6,0,1.1-0.1,1.5-0.4c0.4-0.2,0.7-0.6,1-1c0.2-0.4,0.3-0.9,0.3-1.4c0-0.4-0.1-0.8-0.2-1.2
		c0-0.1-0.1-0.1-0.1-0.2c0.9,0,1.7,0.3,2.4,0.8c0.8,0.5,1.5,1.3,2.1,2.2c0.6,0.9,1.1,1.9,1.5,3c0.4,1.1,0.7,2.2,1,3.3
		c0.2,1.1,0.4,2.2,0.4,3.2l1.2,0.9l0.2,0V27.4h3.3h0.9h13.8V30c-1.5,0.5-3,1-4.3,1.7c-1.5,0.7-3,1.4-4.4,2.3
		c-1.4,0.8-2.9,1.8-4.5,2.9l1.1,2.8c1.8,0.4,3.5,1,5,1.9c1.5,0.8,2.9,1.9,4.1,3.1s2.3,2.7,3.2,4.3l1.2,1l0.2,0V32.3c0,0,0,0,0.1,0
		c1.1,0,2.1,0.2,3.1,0.5s1.8,0.8,2.5,1.4c0.7,0.6,1.2,1.3,1.6,2c0.4,0.8,0.6,1.6,0.6,2.4c0,0.3,0,0.5-0.1,0.7
		c-0.1-0.3-0.3-0.6-0.5-0.8C93.5,38.2,93,38,92.5,38c-0.7,0-1.2,0.2-1.6,0.6c-0.4,0.4-0.5,1-0.5,1.6c0,0.6,0.2,1.1,0.6,1.6
		c0.4,0.5,1,0.7,1.8,0.7c0.9,0,1.6-0.3,2.1-1s0.8-1.7,0.8-3c0-1.5-0.4-2.8-1.2-4.1C93.6,33.1,92.5,32.1,91.1,31.3z M78.2,39.5
		c-1.2-0.7-2.4-1.2-3.6-1.6c1.1-0.8,2.3-1.6,3.4-2.2c1.3-0.8,2.6-1.4,3.9-2c1.1-0.5,2.2-0.9,3.3-1.3v14.1c-0.9-1.5-1.8-2.8-2.9-3.9
		C80.9,41.4,79.6,40.3,78.2,39.5z"/>
	<g>
		<linearGradient id="SVGID_3_" gradientUnits="userSpaceOnUse" x1="118.6157" y1="40.7248" x2="174.7334" y2="40.3719">
			<stop  offset="0" style="stop-color:#51BA78"/>
			<stop  offset="2.015191e-02" style="stop-color:#4EB173"/>
			<stop  offset="0.1176" style="stop-color:#438A5D"/>
			<stop  offset="0.2222" style="stop-color:#39694A"/>
			<stop  offset="0.3337" style="stop-color:#314E3B"/>
			<stop  offset="0.4546" style="stop-color:#2B392F"/>
			<stop  offset="0.5894" style="stop-color:#262A26"/>
			<stop  offset="0.7496" style="stop-color:#242221"/>
			<stop  offset="1" style="stop-color:#231F20"/>
		</linearGradient>
		<path class="st3" d="M169.7,38.4c-1.4-1.4-3.2-2.2-5-2.8c-5.1-1.9-10.5-2.7-15.9-3.2c-0.8-0.1-1.7-0.1-2.6-0.2c0-0.1,0-0.2,0-0.2
			c-2.1-0.1-4.2-0.2-6.4-0.2c-1.9,0-3.7,0-5.5,0.1c0,0.1,0.1,0.1,0.1,0.2c-0.3,0-0.4,0-0.5,0.1c-2.6,0.2-5.2,0.4-7.8,0.8
			c-3.8,0.5-7.6,1.3-11.1,2.7c-1.7,0.7-3.4,1.5-4.7,2.7c-1.6,1.5-1.7,3.3-0.2,4.9c0.4,0.4,0.8,0.7,1.3,1.1c0.4,0.2,0.7,0.5,1.1,0.7
			c0,0,0,0,0.1,0c5.5,2.6,15.6,4.4,27.3,4.4c13.6,0,25.2-2.4,29.7-5.8c0.1-0.1,0.2-0.1,0.2-0.2C171.4,41.8,171.4,40,169.7,38.4z
			 M138.1,37.7c0.3,0.5,0.7,1.1,1.1,1.6c-0.6,0.1-1.1,0.2-1.5,0.4c-0.4,0.1-0.8,0.3-1.2,0.5c-0.5,0.3-0.5,0.8,0,1.1
			c0.3,0.2,0.5,0.3,0.8,0.4c2.1,0.7,4.1,0.6,6.2,0c0,0,0.1,0,0.1,0c0.4-0.3,0.9-0.4,0.9-0.9c0-0.6-0.5-0.7-0.9-0.9
			c-0.6-0.2-1.3-0.4-2.1-0.6c0.4-0.6,0.8-1.3,1.3-1.9c0.1-0.1,0.3-0.1,0.5-0.1c4,0.1,8,0.4,11.9,1.4c0.8,0.2,1.7,0.6,2.4,1
			c0.9,0.5,0.9,1.2,0,1.7c-1,0.5-2,0.9-3.1,1.2c-3,0.7-6,1-9.1,1.2c-4.1,0.2-8.2,0.2-12.3-0.2c-2.8-0.2-5.7-0.5-8.4-1.5
			c-0.5-0.2-1.1-0.4-1.6-0.8c-0.7-0.5-0.7-1.1,0-1.6c0.5-0.3,1.1-0.6,1.7-0.8c2.2-0.7,4.6-1,6.9-1.3c1.7-0.2,3.5-0.2,5.2-0.4
			C137.6,37.3,137.9,37.4,138.1,37.7z M165.4,42.9c-1.7,1.2-3.7,1.8-5.8,2.4c-3.5,0.9-7.1,1.4-10.8,1.7c-3.9,0.3-7.8,0.4-11.7,0.3
			c-5.7-0.2-11.4-0.7-16.9-2.3c-1.8-0.5-3.6-1.1-5.2-2.3c-0.2-0.1-0.3-0.2-0.5-0.4c-1.4-1.2-1.5-2.7,0-3.8c1-0.8,2.2-1.4,3.4-1.9
			c3.2-1.2,6.5-1.9,9.9-2.3c2.3-0.3,4.7-0.5,7.1-0.6c0.2,0,0.6,0.1,0.7,0.3c0.4,0.5,0.7,1.1,1.1,1.8c-1.5,0.1-2.8,0.1-4.2,0.2
			c-3.5,0.3-7.1,0.7-10.5,1.7c-1,0.3-2,0.7-3,1.2c-1.6,0.9-1.6,2,0,3c1.7,1,3.7,1.5,5.7,1.9c3.4,0.7,6.9,1,10.4,1.2
			c4.1,0.2,8.2,0.2,12.2-0.2c3.6-0.3,7.3-0.7,10.7-1.8c1-0.3,1.9-0.7,2.8-1.2c1.3-0.8,1.3-1.8,0-2.6c-1.3-0.9-2.8-1.3-4.4-1.7
			c-3.7-0.9-7.4-1.3-11.2-1.5c-0.5,0-1-0.1-1.5-0.1c0,0-0.1,0-0.2-0.1c0.4-0.7,0.8-1.3,1.3-1.9c0.1-0.1,0.3-0.2,0.5-0.2
			c5.7,0.3,11.4,0.9,16.8,2.8c1.1,0.4,2.1,0.9,3.1,1.5C167.6,39.6,167.6,41.4,165.4,42.9z"/>
		<g>
			<ellipse class="st2" cx="140.2" cy="14.6" rx="7.8" ry="7.7"/>
			<path class="st4" d="M145.1,18.1c-1.3-0.8-2.7-1.5-3.9-2.3c-0.9-0.6-1.7-0.7-2.6,0c-1.1,0.8-2.3,1.4-3.6,2
				c1.6-2.9,3.3-5.7,5.1-8.8c1.8,3.1,3.6,6.1,5.3,9C145.2,18,145.2,18,145.1,18.1z"/>
			<path class="st5" d="M148.3,5.3c0,0-9-7.2-18,1.6c0,0-6.8,5.7-0.2,17.3c6.6,11.6,10,17.3,10.4,17.3c0.6,0,8.5-14.3,9.5-16.7
				C151,22.4,157.2,13,148.3,5.3z M140.1,21.5c-3.7,0-6.7-3-6.7-6.7s3-6.7,6.7-6.7c3.7,0,6.7,3,6.7,6.7S143.8,21.5,140.1,21.5z"/>
		</g>
	</g>
	<g>
		<g>
			<linearGradient id="SVGID_4_" gradientUnits="userSpaceOnUse" x1="34.9411" y1="124.8682" x2="34.9411" y2="115.957">
				<stop  offset="0" style="stop-color:#FF0000"/>
				<stop  offset="4.602104e-02" style="stop-color:#E30404"/>
				<stop  offset="0.1283" style="stop-color:#B60A0B"/>
				<stop  offset="0.2165" style="stop-color:#8E1010"/>
				<stop  offset="0.3095" style="stop-color:#6D1515"/>
				<stop  offset="0.4084" style="stop-color:#521819"/>
				<stop  offset="0.5157" style="stop-color:#3D1B1C"/>
				<stop  offset="0.6355" style="stop-color:#2E1D1E"/>
				<stop  offset="0.7777" style="stop-color:#261F20"/>
				<stop  offset="1" style="stop-color:#231F20"/>
			</linearGradient>
			<path class="st6" d="M54,116.1c-0.2-0.2-0.5-0.4-0.8-0.4h-37c-0.4,0-0.7,0.2-0.9,0.5s-0.2,0.6,0,0.9l1.3,1.8
				c0.2,0.3,0.5,0.4,0.9,0.4c0.1,0,0.1,0,0.2,0c0.1,0,0.2,0,0.4,0c0.2,0,0.4,0,0.6,0c0.5,0,1,0.1,1.4,0.2c0.4,0.1,0.8,0.3,1.1,0.6
				c0.3,0.3,0.6,0.7,0.8,1.2c0.2,0.4,0.3,0.9,0.3,1.5c-0.2,0.4-0.4,0.7-0.5,0.9c-0.3,0.5-0.5,0.7-0.6,0.7c-0.2,0.1-0.3,0.1-0.3,0.1
				c-0.1,0-0.1,0-0.3-0.1c-0.2-0.1-0.3-0.2-0.5-0.4c-0.2-0.2-0.4-0.5-0.6-0.8c-0.2-0.3-0.5-0.4-0.9-0.4c-0.1,0-0.3,0-0.4,0.1
				l-0.7,0.3c-0.5,0.2-0.7,0.7-0.5,1.2c0.3,0.6,0.7,1.1,1,1.6c0.4,0.5,0.8,0.9,1.3,1.2c0.6,0.3,1.1,0.5,1.8,0.5
				c0.6,0,1.1-0.1,1.6-0.3c0.5-0.2,1-0.6,1.4-1.2c0.4-0.5,0.7-1.1,1.1-1.9c0.3-0.6,0.6-1.1,0.8-1.4c0.2-0.3,0.3-0.4,0.4-0.4
				c0.1,0.1,0.2,0.2,0.4,0.4c0.1,0.1,0.2,0.3,0.3,0.4v6.6c0,0.3,0.2,0.6,0.5,0.8l0.9,0.4c0.1,0.1,0.3,0.1,0.5,0.1
				c0.1,0,0.3,0,0.4-0.1c0.4-0.1,0.7-0.5,0.7-0.8v-11.9h2l-0.6,0.2c-0.5,0.1-0.8,0.6-0.7,1.1c0.5,1.7,1.1,3.1,1.8,4.3
				c0.7,1.2,1.4,2.2,2.2,3c0.8,0.8,1.7,1.4,2.6,1.8c0.9,0.4,2,0.6,3,0.6c1,0,2-0.2,2.8-0.5c0.9-0.4,1.6-1,2-1.7
				c0.5-0.7,0.7-1.7,0.7-2.8c0-1-0.2-2-0.7-2.8c-0.5-0.9-1.2-1.6-2.1-2.1c-0.9-0.5-2-0.8-3.3-0.8c-1.1,0-2.1,0.3-2.7,0.8
				c-0.6,0.5-1,1.2-1,2.1c0,0.7,0.3,1.3,0.8,1.8c0.4,0.4,1.1,0.8,2.2,0.8c1.1,0,1.7-0.4,2.1-0.8c0.4-0.4,0.6-0.9,0.7-1.4
				c0.3,0.2,0.5,0.4,0.7,0.7c0.2,0.3,0.4,0.8,0.4,1.4c0,0.8-0.2,1.4-0.7,1.7c-0.5,0.4-1.1,0.6-2,0.6c-0.9,0-1.7-0.2-2.4-0.6
				c-0.8-0.4-1.6-1.2-2.3-2.2c-0.8-1.1-1.5-2.5-2.1-4.4c-0.1-0.2-0.3-0.4-0.5-0.5c0,0-0.1,0-0.1,0h15.1c-0.2,0.2-0.3,0.5-0.4,0.8
				c-0.3,0.6-0.4,1.2-0.4,1.8c0,0.6,0.1,1.3,0.4,1.8c0.2,0.5,0.5,1,0.8,1.5c0.3,0.4,0.5,0.8,0.7,1.3c0.2,0.4,0.2,0.7,0.2,1.1
				c0,0.5-0.1,0.9-0.4,1.4c-0.3,0.4-0.7,0.8-1.3,1.2c-0.2,0.1-0.4,0.4-0.4,0.6c0,0.2,0,0.5,0.2,0.7l0.5,0.6c0.2,0.2,0.5,0.3,0.8,0.3
				c0.2,0,0.4,0,0.6-0.1c0.9-0.5,1.7-1.2,2.3-1.9c0.7-0.8,1.1-1.8,1.1-2.9c0-0.7-0.1-1.3-0.4-1.9c-0.2-0.5-0.5-1-0.8-1.4
				c-0.2-0.4-0.5-0.8-0.6-1.2c-0.2-0.3-0.2-0.7-0.2-1.1c0-0.4,0.1-0.8,0.2-1.1c0.2-0.4,0.4-0.7,0.6-0.9c0.1-0.1,0.3-0.3,0.4-0.4h2.1
				c0.4,0,0.7-0.2,0.9-0.5c0.2-0.3,0.2-0.6-0.1-0.9L54,116.1z M25.8,119.3c-0.3,0-0.7,0.1-1.1,0.2c-0.1,0.1-0.3,0.1-0.4,0.2
				c-0.2-0.5-0.5-1-0.9-1.4l3.6,0c0,0,0,1.1,0,1.2C26.6,119.4,26.2,119.3,25.8,119.3z"/>
			<linearGradient id="SVGID_5_" gradientUnits="userSpaceOnUse" x1="97.1079" y1="124.8682" x2="97.1079" y2="115.957">
				<stop  offset="0" style="stop-color:#FF0000"/>
				<stop  offset="4.602104e-02" style="stop-color:#E30404"/>
				<stop  offset="0.1283" style="stop-color:#B60A0B"/>
				<stop  offset="0.2165" style="stop-color:#8E1010"/>
				<stop  offset="0.3095" style="stop-color:#6D1515"/>
				<stop  offset="0.4084" style="stop-color:#521819"/>
				<stop  offset="0.5157" style="stop-color:#3D1B1C"/>
				<stop  offset="0.6355" style="stop-color:#2E1D1E"/>
				<stop  offset="0.7777" style="stop-color:#261F20"/>
				<stop  offset="1" style="stop-color:#231F20"/>
			</linearGradient>
			<path class="st7" d="M135.4,116.1c-0.2-0.2-0.5-0.4-0.8-0.4H99.7l0,0c0-0.3-0.2-0.5-0.4-0.7l-0.8-0.5c-0.2-0.1-0.4-0.2-0.6-0.2
				c-0.1,0-0.2,0-0.3,0c-0.4,0.1-0.8,0.5-0.8,0.9v0.6c-0.2-0.1-0.5-0.1-0.7-0.1H81.8l0,0c0-0.3-0.2-0.5-0.4-0.7l-0.8-0.5
				c-0.2-0.1-0.4-0.2-0.6-0.2c-0.1,0-0.2,0-0.3,0c-0.5,0.1-0.8,0.5-0.8,0.9v0.6c-0.2-0.1-0.5-0.1-0.7-0.1H59.1
				c-0.4,0-0.7,0.2-0.9,0.5c-0.2,0.3-0.2,0.6,0,0.9l0.6,0.8c0.2,0.3,0.5,0.4,0.9,0.4H65c0.2,0.1,0.4,0.2,0.6,0.3
				c-0.1,0.1-0.2,0.1-0.3,0.2c-0.5,0.3-1.1,1-1.1,2.1c0,0.8,0.3,1.4,0.9,1.9c0.5,0.4,1.2,0.7,2,0.7c1.1,0,1.8-0.5,2.1-0.9
				c0.3-0.3,0.5-0.7,0.6-1.1c0.2,0.1,0.3,0.3,0.5,0.5c0.2,0.3,0.3,0.7,0.3,1.2c0,0.8-0.2,1.3-0.6,1.6c-0.4,0.4-1.1,0.5-2,0.5
				c-0.7,0-1.4-0.2-2-0.5c-0.7-0.3-1.3-1-1.9-1.9c-0.7-0.9-1.3-2.3-1.8-3.9c-0.1-0.2-0.3-0.4-0.5-0.5c-0.1-0.1-0.3-0.1-0.5-0.1
				c-0.1,0-0.2,0-0.3,0l-0.7,0.2c-0.5,0.1-0.8,0.6-0.7,1.1c0.5,1.6,1.1,3,1.7,4.1c0.6,1.1,1.3,2,2.1,2.7c0.8,0.7,1.6,1.2,2.4,1.5
				c0.8,0.3,1.7,0.4,2.5,0.4c0.9,0,1.6-0.1,2.3-0.4c0.6-0.2,1.1-0.5,1.5-0.8c0.3,0.2,0.5,0.4,0.8,0.7c0.5,0.5,1,1.2,1.4,2
				c0.1,0.1,0.2,0.2,0.3,0.3l0.8,0.6c0.2,0.1,0.4,0.2,0.7,0.2c0.1,0,0.2,0,0.3,0c0.4-0.1,0.8-0.5,0.8-0.9v-11.7h1.3
				c0.2,0,0.2,0,0.3,0.1c0.2,0.2,0.3,0.6,0.4,1v10.3c0,0.3,0.2,0.6,0.5,0.8l0.9,0.4c0.1,0.1,0.3,0.1,0.5,0.1c0.1,0,0.3,0,0.4-0.1
				c0.4-0.1,0.7-0.5,0.7-0.8v-11.9h0.7c0,0.4,0.2,0.7,0.4,1.1c0.3,0.4,0.6,0.7,1.1,1c0.4,0.2,1,0.5,1.6,0.7c0.7,0.2,1,0.4,1.1,0.5
				c0.2,0.1,0.3,0.3,0.4,0.4c0,0,0,0,0,0c-0.9,0-1.6,0.3-2.1,0.7c-0.5,0.5-0.8,1.1-0.8,1.8c0,1,0.5,1.5,0.9,1.9
				c0.6,0.4,1.2,0.6,2,0.6c0.9,0,1.6-0.2,2.1-0.7c0.1-0.1,0.2-0.2,0.4-0.4c0.2,0.1,0.3,0.3,0.5,0.5c0.3,0.4,0.6,0.8,0.8,1.3
				c0.3,0.5,0.5,1.1,0.7,1.8c0.1,0.2,0.2,0.3,0.3,0.5l0.8,0.6c0.2,0.1,0.4,0.2,0.7,0.2c0.1,0,0.2,0,0.3,0c0.4-0.1,0.8-0.5,0.8-0.9
				v-11.7h1.5c0.1,0,0.2,0,0.3,0.2c0.2,0.2,0.3,0.6,0.4,1v10.3c0,0.3,0.2,0.6,0.5,0.8l0.9,0.4c0.1,0.1,0.3,0.1,0.5,0.1
				c0.1,0,0.3,0,0.4-0.1c0.4-0.1,0.7-0.5,0.7-0.8v-11.9h3.5c-0.5,0.6-0.9,1.3-1.2,2c-0.4,1-0.6,2.1-0.6,3.3c0,1.4,0.3,2.6,0.8,3.7
				c0.5,1.1,1.2,1.9,2.1,2.5c0.9,0.6,1.9,0.9,3,0.9c0.8,0,1.5-0.2,2-0.7c0.5-0.4,0.8-1,0.8-1.7c0-0.6-0.2-1.2-0.7-1.6
				c-0.3-0.3-0.9-0.7-1.9-0.7c-0.7,0-1.3,0.2-1.7,0.6c-0.2,0.1-0.3,0.3-0.4,0.4c-0.2-0.3-0.4-0.6-0.5-1c-0.2-0.6-0.3-1.3-0.3-2.1
				c0-0.8,0.1-1.5,0.4-2.2c0.3-0.7,0.6-1.3,1.1-1.9c0.4-0.5,0.9-0.9,1.5-1.2c0.5-0.3,1-0.4,1.5-0.4h1.8v7c0,0.3,0.2,0.6,0.5,0.7
				l0.9,0.5c0.2,0.1,0.4,0.2,0.6,0.2c0.3,0,0.5-0.1,0.7-0.3c0.7-0.7,1.5-1.3,2.2-1.9c0.6-0.5,1.2-0.9,1.7-1.3c0,0,0,0,0,0
				c-0.1,0.6-0.1,1.2-0.1,1.8c0,0.9,0.1,1.9,0.4,2.8c0.2,0.9,0.5,1.8,0.9,2.6c0.1,0.2,0.3,0.4,0.6,0.5c0.1,0,0.3,0.1,0.4,0.1
				c0.1,0,0.3,0,0.4-0.1l0.7-0.3c0.5-0.2,0.7-0.7,0.6-1.1c-0.2-0.4-0.3-0.9-0.5-1.3c-0.1-0.4-0.2-0.8-0.3-1.3
				c-0.1-0.4-0.1-0.9-0.1-1.4c0-0.8,0.1-1.6,0.3-2.4c0.2-0.7,0.5-1.4,0.9-1.9c0.3-0.4,0.2-0.8-0.2-1.1l-1.4-1.2
				c-0.2-0.2-0.4-0.2-0.7-0.2c-0.2,0-0.3,0-0.5,0.1c-0.6,0.3-1.3,0.6-2,1c-0.7,0.4-1.3,0.8-2,1.3c-0.4,0.3-0.7,0.5-1.1,0.8v-3.5
				h16.4c-0.7,0.2-1.3,0.4-1.9,0.7c-1,0.4-2,0.8-2.9,1.3c-0.9,0.5-1.9,1-2.9,1.6c-0.4,0.2-0.5,0.7-0.4,1.1l0.7,1.6
				c0.1,0.3,0.4,0.5,0.7,0.5c1.1,0.2,2,0.5,2.9,0.9c0.1,0,0.1,0.1,0.2,0.1c0,0,0,0,0,0c-0.2,0-0.4,0.1-0.5,0.2c0,0-0.1,0-0.1,0
				c-0.2,0.1-0.3,0.2-0.5,0.3c-0.5,0.4-0.7,0.9-0.7,1.5c0,0.6,0.2,1.1,0.7,1.5c0.4,0.4,1,0.5,1.6,0.5c0.6,0,1.1-0.2,1.6-0.5
				c0.1-0.1,0.2-0.2,0.3-0.3c0.1-0.1,0.1-0.2,0.2-0.2c0,0,0,0,0-0.1c0.1-0.2,0.2-0.5,0.2-0.7c0.2,0.2,0.4,0.4,0.6,0.7
				c0.2,0.3,0.5,0.6,0.7,0.9c0.1,0.1,0.1,0.2,0.2,0.3l0.8,0.6c0.2,0.1,0.4,0.2,0.7,0.2c0.1,0,0.2,0,0.3,0c0.4-0.1,0.8-0.5,0.8-0.9
				v-11.7h1.7c0.4,0,0.7-0.2,0.9-0.5c0.2-0.3,0.2-0.6-0.1-0.9L135.4,116.1z M73.8,125.2c-0.2-0.2-0.4-0.3-0.6-0.5
				c0.1-0.5,0.2-0.9,0.2-1.4c0-1-0.2-1.8-0.7-2.6c-0.5-0.8-1.1-1.4-2-1.9c-0.3-0.2-0.7-0.3-1.1-0.4h4.2V125.2z M91.6,123.9
				c-0.1-0.1-0.1-0.1-0.2-0.2c-0.3-0.2-0.5-0.5-0.8-0.6c0,0,0-0.1,0-0.1c0-0.6-0.1-1.1-0.3-1.6c-0.2-0.5-0.6-1-1.1-1.4
				c-0.5-0.4-1.1-0.7-1.9-1c-0.6-0.3-0.9-0.5-1.1-0.6c0,0,0,0,0,0h5.4V123.9z M127.4,122.8c0.8-0.4,1.6-0.8,2.4-1.1
				c0.2-0.1,0.4-0.2,0.6-0.2v4c0,0-0.1-0.1-0.1-0.1c-0.8-0.7-1.8-1.4-2.8-1.9c-0.2-0.1-0.5-0.2-0.7-0.3
				C127.1,123,127.2,122.9,127.4,122.8z"/>
			<linearGradient id="SVGID_6_" gradientUnits="userSpaceOnUse" x1="155.7359" y1="124.8682" x2="155.7359" y2="115.957">
				<stop  offset="0" style="stop-color:#FF0000"/>
				<stop  offset="4.602104e-02" style="stop-color:#E30404"/>
				<stop  offset="0.1283" style="stop-color:#B60A0B"/>
				<stop  offset="0.2165" style="stop-color:#8E1010"/>
				<stop  offset="0.3095" style="stop-color:#6D1515"/>
				<stop  offset="0.4084" style="stop-color:#521819"/>
				<stop  offset="0.5157" style="stop-color:#3D1B1C"/>
				<stop  offset="0.6355" style="stop-color:#2E1D1E"/>
				<stop  offset="0.7777" style="stop-color:#261F20"/>
				<stop  offset="1" style="stop-color:#231F20"/>
			</linearGradient>
			<path class="st8" d="M170.7,116.9l-0.6-0.8c-0.2-0.2-0.5-0.4-0.8-0.4h-1.2l0,0c0-0.3-0.2-0.5-0.4-0.7l-0.8-0.5
				c-0.2-0.1-0.4-0.2-0.6-0.2c-0.1,0-0.2,0-0.3,0c-0.4,0.1-0.8,0.5-0.8,0.9v10.2c-0.4-0.3-0.7-0.6-1.1-0.9c-0.4-0.3-0.9-0.6-1.4-0.9
				c0.7-0.4,1.2-0.8,1.6-1.4c0.4-0.6,0.7-1.4,0.7-2.2c0-0.9-0.2-1.7-0.7-2.3c-0.4-0.6-1.1-1.1-1.8-1.5c-0.7-0.3-1.5-0.5-2.4-0.5
				c-0.8,0-1.5,0.1-2.2,0.4c-0.3,0.1-0.5,0.2-0.7,0.4l-0.2-0.3c-0.2-0.2-0.5-0.4-0.8-0.4h-1.2l0,0c0-0.3-0.2-0.5-0.4-0.6l-0.8-0.5
				c-0.2-0.1-0.4-0.2-0.6-0.2c-0.1,0-0.2,0-0.3,0c-0.4,0.1-0.8,0.5-0.8,0.9v2.7c-0.7-0.7-1.4-1.2-2.1-1.6c-0.9-0.5-1.8-0.7-2.8-0.7
				c-0.9,0-1.7,0.2-2.5,0.5c-0.7,0.3-1.4,0.8-2.1,1.4c-0.6,0.6-1.2,1.3-1.8,2.1c-0.2,0.4-0.2,0.8,0.1,1.1l1.2,1
				c0.2,0.2,0.5,0.3,0.7,0.3c0.2,0,0.4-0.1,0.6-0.2c0.2-0.1,0.3-0.2,0.5-0.3c0.1,0,0.2-0.1,0.6-0.1c0.2,0,0.3,0,0.3,0
				c0.1,0,0.1,0.1,0.1,0.1c0.1,0.1,0.1,0.3,0.1,0.4c0,0.4-0.1,0.7-0.2,0.9c-0.1,0.3-0.3,0.5-0.6,0.7c-0.4,0.3-0.4,0.9,0,1.3l1,0.9
				c0.2,0.2,0.5,0.3,0.7,0.3c0,0,0,0,0,0c0.3,0,0.5-0.1,0.7-0.3l4.8-4.4c0.2,0.3,0.4,0.5,0.6,0.8v7.3c0,0.3,0.2,0.6,0.5,0.8l0.9,0.4
				c0.1,0.1,0.3,0.1,0.5,0.1c0.1,0,0.3,0,0.4-0.1c0.4-0.1,0.7-0.5,0.7-0.8v-11.9h0.9c0,0.1,0,0.3,0,0.4c0,0.7,0.3,1.3,0.8,1.8
				c0.5,0.4,1.1,0.7,1.9,0.7c0.9,0,1.4-0.3,1.7-0.6c0.4-0.4,0.7-0.9,0.7-1.5c0-0.2,0-0.4-0.1-0.6c0.5,0,0.7,0.2,0.8,0.3
				c0.2,0.2,0.4,0.5,0.4,0.9c0,0.3-0.1,0.6-0.3,0.8c-0.2,0.3-0.5,0.5-0.9,0.6c-0.4,0.2-0.9,0.3-1.4,0.4c-0.6,0.1-1.1,0.1-1.7,0.1
				c-0.3,0-0.6,0.1-0.8,0.4c-0.2,0.2-0.2,0.5-0.1,0.8l0.7,1.6c0.1,0.3,0.4,0.5,0.8,0.6c1.1,0.2,2.1,0.5,3,0.9c0.9,0.4,1.7,1,2.4,1.6
				c0.7,0.6,1.4,1.4,1.9,2.3c0.1,0.1,0.1,0.2,0.2,0.3l0.8,0.6c0.2,0.1,0.4,0.2,0.7,0.2c0.1,0,0.2,0,0.3,0c0.4-0.1,0.8-0.5,0.8-0.9
				v-11.7h1.7c0.4,0,0.7-0.2,0.9-0.5C171,117.6,170.9,117.2,170.7,116.9z M147.5,120.9c-0.1-0.4-0.3-0.7-0.6-1
				c-0.2-0.3-0.6-0.6-1.2-0.8c0.2-0.2,0.5-0.3,0.7-0.4c0.3-0.1,0.7-0.2,1-0.2c0.4,0,0.8,0.1,1.1,0.2c0.3,0.1,0.5,0.3,0.8,0.5
				L147.5,120.9z"/>
		</g>
		<g>
			<path class="st2" d="M42.5,120c-0.8-0.4-1.7-0.6-2.8-0.6c-0.9,0-1.5,0.2-2,0.6c-0.4,0.4-0.7,0.8-0.7,1.4c0,0.5,0.2,0.9,0.5,1.3
				c0.3,0.3,0.8,0.5,1.4,0.5c0.6,0,1-0.2,1.3-0.5c0.3-0.3,0.5-0.7,0.5-1.2c0-0.3-0.1-0.6-0.2-0.9c0,0,0,0,0,0c0,0,0,0,0,0
				c0.5,0,1,0.1,1.5,0.3c0.5,0.2,0.9,0.6,1.2,1.1c0.3,0.5,0.5,1.1,0.5,1.9c0,1.1-0.3,1.9-1,2.4c-0.7,0.5-1.5,0.8-2.7,0.8
				c-1,0-2-0.3-3-0.8c-0.9-0.5-1.8-1.3-2.6-2.5c-0.8-1.1-1.6-2.7-2.2-4.6l-0.7,0.2c0.5,1.6,1.1,3,1.7,4.1c0.6,1.1,1.3,2.1,2,2.8
				c0.7,0.7,1.5,1.2,2.3,1.5c0.8,0.3,1.7,0.5,2.6,0.5c0.9,0,1.7-0.1,2.3-0.4c0.7-0.3,1.2-0.8,1.6-1.4c0.4-0.6,0.6-1.4,0.6-2.3
				c0-0.9-0.2-1.7-0.6-2.4C43.9,121,43.3,120.4,42.5,120z"/>
			<path class="st2" d="M50.5,118.1c0.3-0.3,0.5-0.5,0.8-0.7h2.5l-0.6-0.8h-6.9h-0.6H31.1h-0.6H16.1l1.3,1.8c0.2,0,0.3,0,0.5-0.1
				c0.2,0,0.4,0,0.6,0c0.6,0,1.2,0.1,1.7,0.2c0.6,0.2,1.1,0.4,1.5,0.8c0.4,0.4,0.8,0.9,1,1.5c0.2,0.6,0.3,1.2,0.4,2
				c-0.2,0.5-0.4,0.9-0.7,1.2c-0.3,0.5-0.6,0.8-0.9,1c-0.3,0.2-0.6,0.3-1,0.3c-0.3,0-0.6-0.1-0.8-0.2c-0.3-0.1-0.5-0.4-0.7-0.6
				c-0.2-0.3-0.5-0.6-0.7-0.9l-0.6,0.3c0.3,0.6,0.6,1,0.9,1.4c0.3,0.4,0.7,0.7,1.1,0.9c0.4,0.2,0.8,0.3,1.2,0.3
				c0.4,0,0.8-0.1,1.2-0.2c0.4-0.2,0.7-0.5,1-0.9c0.3-0.4,0.6-1,1-1.7c0.3-0.7,0.6-1.2,0.9-1.5c0.2-0.3,0.4-0.6,0.7-0.7
				c0.2-0.1,0.4-0.2,0.6-0.2c0.2,0,0.4,0.1,0.6,0.2s0.4,0.3,0.6,0.6c0.2,0.2,0.4,0.4,0.5,0.7v6.9l0.9,0.4l0.1,0v-12.8h2.1h0.6h14.6
				h0.6h3.2c-0.3,0.2-0.6,0.5-0.9,0.8c-0.3,0.4-0.6,0.8-0.8,1.2c-0.2,0.5-0.3,0.9-0.3,1.5c0,0.5,0.1,1,0.3,1.5
				c0.2,0.5,0.4,0.9,0.7,1.4c0.3,0.5,0.5,0.9,0.7,1.4c0.2,0.5,0.3,0.9,0.3,1.4c0,0.7-0.2,1.3-0.6,1.8c-0.4,0.5-0.9,1-1.6,1.5
				l0.5,0.6c0.8-0.5,1.5-1,2.1-1.7c0.6-0.7,0.9-1.5,0.9-2.4c0-0.6-0.1-1.1-0.3-1.5c-0.2-0.5-0.4-0.9-0.7-1.3
				c-0.3-0.4-0.5-0.9-0.7-1.3c-0.2-0.4-0.3-0.9-0.3-1.4c0-0.5,0.1-1,0.3-1.4C49.9,118.9,50.2,118.5,50.5,118.1z M26.7,120.4
				c-0.3-0.2-0.6-0.2-0.9-0.2c-0.2,0-0.4,0-0.7,0.1c-0.3,0.1-0.5,0.3-0.8,0.6c-0.2,0.2-0.4,0.5-0.6,0.9c0-0.6-0.1-1.1-0.3-1.5
				c-0.2-0.6-0.6-1.1-1.1-1.6c-0.5-0.4-1-0.7-1.6-1c-0.3-0.1-0.5-0.2-0.8-0.3l8.1,0v1.7c0,0.3,0,0.7,0,1.1c0,0.4,0,0.8,0,1.1
				c0,0.2,0,0.4,0.1,0.6c-0.2-0.3-0.4-0.6-0.6-0.8C27.3,120.8,27,120.6,26.7,120.4z"/>
			<path class="st2" d="M127.2,127.1c-0.4,0-0.7,0.1-0.9,0.3s-0.4,0.5-0.4,0.8c0,0.3,0.1,0.6,0.4,0.8c0.3,0.2,0.6,0.3,0.9,0.3
				c0.3,0,0.6-0.1,0.9-0.3c0.3-0.2,0.4-0.5,0.4-0.8c0-0.3-0.1-0.6-0.4-0.8C127.8,127.2,127.5,127.1,127.2,127.1z"/>
			<path class="st2" d="M122.1,116.6h-0.6h-11.6h-0.6h-8.5h-0.6h-1.5l-0.1-0.9l-0.8-0.5l-0.1,0v1.4c0,0.2,0,0.5,0,0.9
				c0,0.1,0,0.2,0,0.4c-0.1-0.2-0.1-0.3-0.2-0.4c-0.2-0.3-0.5-0.6-0.8-0.7c-0.3-0.1-0.6-0.2-0.8-0.2h-0.4h-0.6H82.9h-0.6h-1.5
				l-0.1-0.9l-0.8-0.5l-0.1,0v1.4c0,0.2,0,0.5,0,0.9c0,0.1,0,0.2,0,0.3c-0.1-0.1-0.1-0.3-0.2-0.4c-0.2-0.3-0.5-0.6-0.8-0.7
				c-0.3-0.1-0.6-0.2-0.8-0.2h-1.1h-0.2H59.1l0.6,0.8h5.5c0.6,0.2,1,0.4,1.4,0.7c0.3,0.3,0.6,0.6,0.8,0.9c-0.6,0.1-1.2,0.2-1.6,0.5
				c-0.5,0.3-0.7,0.8-0.7,1.3c0,0.5,0.2,0.9,0.5,1.2c0.4,0.3,0.8,0.4,1.3,0.4c0.6,0,1-0.2,1.3-0.5c0.3-0.3,0.5-0.8,0.5-1.3
				c0-0.2,0-0.3,0-0.5c0.4,0,0.8,0.1,1.2,0.3c0.4,0.2,0.8,0.5,1.1,0.9c0.3,0.4,0.4,1,0.4,1.6c0,1-0.3,1.8-1,2.3
				c-0.6,0.5-1.5,0.8-2.7,0.8c-0.9,0-1.7-0.2-2.5-0.6c-0.8-0.4-1.6-1.1-2.3-2.2c-0.7-1-1.4-2.4-2-4.1l-0.7,0.2
				c0.5,1.6,1,2.9,1.6,3.9c0.6,1,1.2,1.9,1.9,2.5c0.7,0.6,1.3,1,2,1.3c0.7,0.2,1.4,0.4,2.1,0.4c0.7,0,1.4-0.1,1.9-0.3
				c0.5-0.2,1-0.5,1.4-0.9c0.1-0.1,0.2-0.3,0.3-0.4c0.6,0.4,1.2,0.8,1.7,1.4c0.6,0.6,1.1,1.3,1.6,2.2l0.8,0.6l0.1,0v-12.6h1.7h0.2
				h0.4c0.5,0,0.9,0.2,1.2,0.5c0.3,0.4,0.5,0.8,0.6,1.5v10.3l0.9,0.4l0.1,0v-12.8h2.1h0.6h0.1c0,0,0,0,0,0c0,0.2-0.1,0.4-0.1,0.6
				c0,0.4,0.1,0.7,0.3,0.9c0.2,0.3,0.4,0.5,0.8,0.7c0.4,0.2,0.8,0.4,1.4,0.6c0.6,0.2,1.1,0.4,1.5,0.6c0.3,0.2,0.6,0.5,0.7,0.8
				c0.1,0.3,0.2,0.6,0.2,1c0,0.1,0,0.3-0.1,0.4c0,0,0,0,0,0c-0.3-0.1-0.6-0.1-0.9-0.1c-0.7,0-1.2,0.2-1.5,0.5
				c-0.3,0.3-0.5,0.7-0.5,1.2c0,0.5,0.2,0.9,0.5,1.2c0.4,0.3,0.8,0.4,1.3,0.4c0.6,0,1.1-0.1,1.4-0.4c0.3-0.3,0.5-0.6,0.7-1
				c0.2,0.1,0.4,0.2,0.6,0.3c0.3,0.2,0.7,0.6,1,1c0.3,0.4,0.7,0.9,1,1.5c0.3,0.6,0.6,1.2,0.8,2l0.8,0.6l0.1,0v-12.6h2.1h0.4
				c0.5,0,0.9,0.2,1.2,0.5c0.3,0.4,0.5,0.8,0.6,1.5v10.3l0.9,0.4l0.1,0v-12.8h2.1h0.6h4.3c-0.4,0.3-0.8,0.6-1.3,1
				c-0.6,0.6-1.1,1.3-1.5,2.2c-0.4,0.9-0.6,1.9-0.6,3c0,1.3,0.2,2.4,0.7,3.3c0.5,0.9,1.1,1.7,1.8,2.2c0.7,0.5,1.5,0.8,2.3,0.8
				c0.6,0,1-0.1,1.3-0.4c0.3-0.3,0.5-0.6,0.5-1.1c0-0.4-0.1-0.7-0.4-1c-0.3-0.3-0.7-0.4-1.2-0.4c-0.4,0-0.8,0.1-1,0.3
				c-0.3,0.2-0.4,0.5-0.4,0.9c0,0.2,0,0.4,0.1,0.6c0,0.1,0.1,0.1,0.1,0.2c-0.5-0.2-0.9-0.5-1.3-0.9c-0.5-0.5-0.8-1.1-1-1.8
				c-0.2-0.7-0.4-1.5-0.4-2.4s0.2-1.7,0.5-2.5c0.3-0.8,0.7-1.5,1.2-2.1c0.5-0.6,1.1-1.1,1.8-1.5c0.7-0.4,1.4-0.5,2.1-0.5h0.9h0.6
				h1.3v7.9l0.9,0.5c0.7-0.7,1.5-1.4,2.3-2c0.8-0.6,1.6-1.2,2.4-1.7c0.6-0.4,1.2-0.7,1.7-1c-0.1,0.2-0.2,0.5-0.3,0.8
				c-0.2,0.5-0.3,1-0.4,1.5c-0.1,0.5-0.1,1.1-0.1,1.6c0,0.9,0.1,1.7,0.3,2.6c0.2,0.8,0.5,1.7,0.9,2.5l0.7-0.3
				c-0.2-0.5-0.3-0.9-0.5-1.3c-0.1-0.4-0.2-0.9-0.3-1.4c-0.1-0.5-0.1-1-0.1-1.5c0-0.9,0.1-1.8,0.4-2.6s0.6-1.5,1-2.1l-1.4-1.2
				c-0.6,0.3-1.2,0.6-1.9,1c-0.7,0.4-1.3,0.8-1.9,1.2c-0.6,0.4-1.2,0.9-1.7,1.3c-0.4,0.3-0.7,0.6-1,0.8v-6.5h9.3h0.6h8.7v1.5
				c-1,0.3-1.9,0.6-2.8,0.9c-0.9,0.4-1.9,0.8-2.8,1.3c-0.9,0.5-1.9,1-2.9,1.6l0.7,1.6c1.2,0.2,2.2,0.6,3.2,1c1,0.5,1.8,1,2.6,1.7
				c0.8,0.7,1.5,1.5,2,2.4l0.8,0.6l0.1,0v-12.6h2.7l-0.6-0.8H122.1z M72.1,125.1C72.1,125,72.1,125,72.1,125.1
				c0.2-0.6,0.3-1.2,0.3-1.8c0-0.8-0.2-1.6-0.5-2.2c-0.4-0.7-0.9-1.2-1.6-1.6c-0.6-0.3-1.2-0.5-1.9-0.5c-0.2-0.3-0.4-0.6-0.6-0.9
				c-0.3-0.3-0.5-0.5-0.8-0.7h7.9v10.7c-0.4-0.7-0.8-1.3-1.3-1.8C73.1,125.8,72.6,125.4,72.1,125.1z M90.7,124.3
				c-0.4-0.4-0.7-0.6-1.1-0.8c0,0,0-0.1,0-0.1c0-0.2,0-0.3,0-0.5c0-0.5-0.1-0.9-0.2-1.3c-0.2-0.4-0.4-0.7-0.8-1
				c-0.4-0.3-1-0.6-1.7-0.9c-0.6-0.3-1.1-0.5-1.4-0.8c-0.3-0.3-0.4-0.6-0.4-1c0-0.1,0-0.3,0-0.4c0,0,0-0.1,0-0.1h7.5v6.7
				c0,0.4,0,0.8,0,1.3c0,0.5,0,1.1,0,1.6c0,0.3,0,0.5,0,0.7c-0.2-0.6-0.4-1.2-0.7-1.7C91.6,125.3,91.1,124.8,90.7,124.3z M127,124.2
				c-0.8-0.4-1.5-0.7-2.3-0.9c0.7-0.5,1.5-0.9,2.2-1.3c0.8-0.4,1.7-0.8,2.5-1.1c0.7-0.3,1.4-0.5,2.1-0.7v7.9
				c-0.6-0.8-1.2-1.6-1.9-2.2C128.8,125.3,128,124.7,127,124.2z"/>
			<path class="st2" d="M154,116.6l-0.1-0.9l-0.8-0.5l-0.1,0v2.8c0,0.6,0,1.1,0,1.6c0,0.4,0,0.9,0,1.3c-0.5-0.9-1.1-1.7-1.7-2.3
				c-0.6-0.7-1.3-1.2-2-1.6c-0.7-0.4-1.4-0.6-2.3-0.6c-0.7,0-1.4,0.1-2,0.4c-0.6,0.3-1.3,0.7-1.8,1.3c-0.6,0.5-1.1,1.2-1.7,1.9
				l1.2,1c0.2-0.1,0.4-0.2,0.7-0.3c0.3-0.1,0.6-0.1,1-0.1c0.4,0,0.6,0.1,0.9,0.2c0.2,0.1,0.4,0.3,0.5,0.5c0.1,0.2,0.2,0.5,0.2,0.8
				c0,0.5-0.1,0.9-0.3,1.3c-0.2,0.4-0.5,0.7-0.8,0.9l1,0.9l5.7-5.2c0.1,0.1,0.2,0.2,0.2,0.3c0.4,0.5,0.8,1.1,1.2,1.7v7.5l0.9,0.4
				l0.1,0v-12.8h2.7l-0.6-0.8H154z M146.6,123.1c0,0,0-0.1,0-0.1c0.1-0.3,0.1-0.6,0.1-0.9c0-0.7-0.2-1.2-0.6-1.6
				c-0.4-0.4-0.9-0.6-1.6-0.6c-0.3,0-0.6,0-0.9,0.1c0.3-0.4,0.7-0.8,1-1.1c0.5-0.4,0.9-0.7,1.4-0.9c0.5-0.2,0.9-0.3,1.4-0.3
				c0.6,0,1.1,0.1,1.6,0.3c0.5,0.2,1,0.6,1.4,1c0.1,0.1,0.2,0.2,0.3,0.3L146.6,123.1z"/>
			<path class="st2" d="M169.3,116.6h-2.1l-0.1-0.9l-0.8-0.5l-0.1,0v12.9c-0.3-0.5-0.7-1-1.1-1.5c-0.5-0.5-1.1-1-1.7-1.5
				c-0.6-0.4-1.3-0.8-2-1.2c-0.4-0.2-0.8-0.4-1.3-0.5c0.7-0.1,1.2-0.3,1.7-0.5c0.7-0.3,1.2-0.7,1.5-1.2c0.3-0.5,0.5-1.1,0.5-1.8
				c0-0.7-0.2-1.4-0.5-1.9c-0.4-0.5-0.8-0.9-1.4-1.2s-1.2-0.4-1.9-0.4c-0.7,0-1.3,0.1-1.7,0.3c-0.5,0.2-0.8,0.5-1.1,0.8
				c-0.2,0.3-0.4,0.7-0.4,1.1c0,0.5,0.2,0.9,0.5,1.1c0.3,0.3,0.7,0.4,1.1,0.4c0.4,0,0.8-0.1,1-0.3c0.2-0.2,0.4-0.5,0.4-0.9
				c0-0.3-0.1-0.5-0.3-0.7c-0.1-0.1-0.3-0.2-0.5-0.3c0.1-0.1,0.2-0.1,0.3-0.2c0.3-0.2,0.7-0.3,1.2-0.3c0.8,0,1.3,0.2,1.8,0.6
				c0.4,0.4,0.6,0.9,0.6,1.5c0,0.5-0.2,0.9-0.5,1.3c-0.3,0.4-0.7,0.7-1.2,0.9c-0.5,0.2-1.1,0.4-1.7,0.5c-0.6,0.1-1.3,0.2-1.9,0.2
				l0.7,1.6c1.2,0.2,2.3,0.6,3.3,1c1,0.5,1.9,1,2.6,1.7c0.8,0.7,1.5,1.5,2.1,2.4l0.8,0.6l0.1,0v-12.6h2.7L169.3,116.6z"/>
		</g>
	</g>
</g>
</svg>
