<?xml version="1.0" encoding="utf-8"?>
<!-- Generator: Adobe Illustrator 24.0.1, SVG Export Plug-In . SVG Version: 6.00 Build 0)  -->
<svg version="1.1" id="Layer_1" xmlns="http://www.w3.org/2000/svg" xmlns:xlink="http://www.w3.org/1999/xlink" x="0px" y="0px"
	 viewBox="0 0 161 16.7" style="enable-background:new 0 0 161 16.7;" xml:space="preserve">
<style type="text/css">
	.st0{fill:#FFFFFF;}
</style>
<g>
	<path class="st0" d="M123.7,0v16.7h16.8V0H123.7z M136.5,6.1h-3.2v6.5h-2.6V6.1h-3.2V4h9V6.1z"/>
	<path class="st0" d="M144.2,0v16.7H161V0H144.2z M157.2,12.6h-2.6V9.3h-3.9v3.4H148V4h2.6v3.2h3.9V4h2.6V12.6z"/>
	<path class="st0" d="M92.1,6.7c0,0.8-0.4,1-1.7,1h-0.6V5.7h0.6C91.6,5.7,92.1,5.9,92.1,6.7z"/>
	<path class="st0" d="M82.6,0v16.7h16.8V0H82.6z M91.5,9.4h-1.7v3.2h-2.6V4h4.3c2.4,0,3.2,1.6,3.2,2.7S94,9.4,91.5,9.4z"/>
	<polygon class="st0" points="111.5,6.2 112.8,9.4 110.2,9.4 	"/>
	<path class="st0" d="M103.1,0v16.7h16.8V0H103.1z M114.1,12.6l-0.7-1.8h-3.8l-0.7,1.8h-2.7l3.8-8.6h2.9l3.8,8.6H114.1z"/>
	<path class="st0" d="M41.5,0v16.7h16.8V0H41.5z M54.6,12.6h-2.3l-4.5-4.8v4.8h-2.6V4h2.3L52,8.8V4h2.6V12.6z"/>
	<path class="st0" d="M72.7,8.3c0,1.3-0.8,2.2-2.3,2.2c-1.4,0-2.3-0.9-2.3-2.2c0-1.3,0.8-2.2,2.3-2.2C71.9,6.1,72.7,7.1,72.7,8.3z"
		/>
	<path class="st0" d="M62,0v16.7h16.8V0H62z M70.4,12.7c-3.4,0-4.9-2.2-4.9-4.4c0-2.2,1.5-4.4,4.9-4.4c3.3,0,4.9,2.1,4.9,4.4
		C75.4,10.7,73.7,12.7,70.4,12.7z"/>
	<path class="st0" d="M0,0v16.7h16.8V0H0z M10.5,10.2c0,1.8-0.2,3.8-2.9,3.8c-0.5,0-0.7,0-0.9-0.1l-0.4-2.1c0.9,0,1.4,0,1.6-0.7
		c0.1-0.3,0.1-1.5,0.1-1.8V2.6h2.6V10.2z"/>
	<path class="st0" d="M31.6,8.3c0,1.3-0.8,2.2-2.3,2.2c-1.4,0-2.3-0.9-2.3-2.2c0-1.3,0.8-2.2,2.3-2.2C30.8,6.1,31.6,7.1,31.6,8.3z"
		/>
	<path class="st0" d="M20.9,0v16.7h16.8V0H20.9z M29.3,12.7c-3.4,0-4.9-2.2-4.9-4.4c0-2.2,1.5-4.4,4.9-4.4c3.3,0,4.9,2.1,4.9,4.4
		C34.3,10.7,32.6,12.7,29.3,12.7z"/>
</g>
</svg>
