<?xml version="1.0" encoding="utf-8"?>
<!-- Generator: Adobe Illustrator 24.0.1, SVG Export Plug-In . SVG Version: 6.00 Build 0)  -->
<svg version="1.1" id="Layer_1" xmlns="http://www.w3.org/2000/svg" xmlns:xlink="http://www.w3.org/1999/xlink" x="0px" y="0px"
	 viewBox="0 0 236 50" style="enable-background:new 0 0 236 50;" xml:space="preserve">
<style type="text/css">
	.st0{fill:#FFFFFF;}
</style>
<g>
	<path class="st0" d="M3.65,38.92c-0.53,0.37-0.79,0.84-0.79,1.42c0,0.34,0.12,0.62,0.35,0.84c0.23,0.22,0.54,0.39,0.93,0.51
		c0.73,0.25,1.61,0.44,2.65,0.58c1.04,0.12,1.97,0.39,2.79,0.79c0.54,0.26,0.98,0.62,1.32,1.07c0.34,0.45,0.51,1.04,0.51,1.79
		c0,0.53-0.08,0.99-0.26,1.39c-0.17,0.4-0.41,0.75-0.72,1.04c-0.56,0.56-1.27,0.96-2.14,1.21c-0.87,0.23-1.73,0.35-2.58,0.35
		S4,49.77,3.14,49.51c-0.88-0.26-1.6-0.69-2.16-1.28c-0.29-0.31-0.53-0.68-0.72-1.12C0.08,46.7,0,46.22,0,45.68h2.49
		c0,0.74,0.32,1.32,0.95,1.72C4.06,47.8,4.82,48,5.71,48c0.88,0,1.64-0.15,2.28-0.46c0.62-0.31,0.93-0.81,0.93-1.51
		c0-0.36-0.12-0.64-0.35-0.86c-0.23-0.22-0.55-0.39-0.95-0.53c-0.71-0.26-1.59-0.46-2.63-0.6c-1.04-0.14-1.97-0.41-2.79-0.81
		c-0.54-0.26-0.98-0.63-1.32-1.09c-0.36-0.45-0.53-1.04-0.53-1.79c0-0.48,0.09-0.91,0.28-1.3c0.17-0.39,0.4-0.72,0.7-1
		c0.54-0.56,1.22-0.96,2.04-1.21c0.82-0.25,1.6-0.37,2.35-0.37c0.4,0,0.82,0.04,1.25,0.12c0.43,0.08,0.86,0.19,1.28,0.33
		c0.76,0.29,1.42,0.74,1.97,1.32c0.56,0.59,0.84,1.37,0.84,2.35H8.57c0-0.62-0.27-1.15-0.81-1.58c-0.54-0.42-1.22-0.63-2.04-0.63
		C4.88,38.36,4.19,38.55,3.65,38.92z"/>
	<path class="st0" d="M15.19,48c-1.25-1.32-1.88-2.92-1.88-4.81c0-1.9,0.63-3.51,1.88-4.83c1.24-1.3,2.89-1.95,4.95-1.95
		c2.06,0,3.72,0.65,4.97,1.95c1.25,1.32,1.88,2.93,1.88,4.83c0,1.89-0.63,3.49-1.88,4.81c-1.25,1.3-2.91,1.95-4.97,1.95
		C18.08,49.95,16.43,49.3,15.19,48z M23.28,39.71c-0.82-0.9-1.87-1.35-3.14-1.35c-1.27,0-2.31,0.45-3.11,1.35
		c-0.82,0.88-1.23,2.04-1.23,3.48c0,1.42,0.41,2.58,1.23,3.46c0.81,0.9,1.84,1.35,3.11,1.35c1.27,0,2.32-0.45,3.14-1.35
		c0.81-0.88,1.21-2.04,1.21-3.46C24.49,41.75,24.08,40.59,23.28,39.71z"/>
	<path class="st0" d="M32.99,45.07v-6.41h-5.11v-1.9h10.62h2v1.14v0.77h-5.11V49.6h-2.39V45.07z"/>
	<path class="st0" d="M46.67,45.07v-6.41h-5.11v-1.9h10.62h2v1.14v0.77h-5.11V49.6h-2.39V45.07z"/>
	<path class="st0" d="M56.38,36.76h2.37h8.08v1.9h-8.08v3.44H66v1.9h-7.25v3.69h8.08v1.9h-8.08h-2.37V36.76z"/>
	<path class="st0" d="M81.61,49.6h-2.86c-0.64-0.88-1.86-2.54-3.66-4.99H73.8h-1.84v2.32v2.67h-1.51H69.6v-2.62v-2.14v-4.37v-3.72
		h2.02h4.16c1.7,0,3,0.36,3.9,1.07c0.88,0.71,1.32,1.66,1.32,2.86s-0.44,2.14-1.32,2.86c-0.52,0.41-1.18,0.7-2,0.88
		C78.51,45.51,79.82,47.23,81.61,49.6z M77.8,39.13c-0.48-0.31-1.15-0.46-2.02-0.46h-1.84h-1.97v1.97v0.46v1.6h1.93h1.88
		c0.87,0,1.54-0.16,2.02-0.46c0.48-0.33,0.72-0.84,0.72-1.56S78.28,39.45,77.8,39.13z"/>
	<path class="st0" d="M93.13,44.84h-2.07v2.21v2.55h-1.51h-0.86v-2.62v-2.14v-4.37v-3.72h2.18h4.35c1.67,0,2.97,0.36,3.88,1.07
		s1.37,1.7,1.37,2.95v0.02c-0.02,1.27-0.48,2.26-1.39,2.97c-0.9,0.71-2.18,1.07-3.86,1.07H93.13z M97.24,39.13
		c-0.47-0.31-1.14-0.46-2.02-0.46h-2h-2.16v2.09v0.53v1.65h2.11h2.04c0.88,0,1.56-0.16,2.02-0.46c0.48-0.33,0.72-0.88,0.72-1.67
		C97.96,40.01,97.72,39.45,97.24,39.13z"/>
	<path class="st0" d="M104.07,48c-1.25-1.32-1.88-2.92-1.88-4.81c0-1.9,0.63-3.51,1.88-4.83c1.24-1.3,2.89-1.95,4.95-1.95
		c2.06,0,3.72,0.65,4.97,1.95c1.25,1.32,1.88,2.93,1.88,4.83c0,1.89-0.63,3.49-1.88,4.81c-1.26,1.3-2.91,1.95-4.97,1.95
		C106.96,49.95,105.31,49.3,104.07,48z M112.16,39.71c-0.82-0.9-1.87-1.35-3.14-1.35c-1.27,0-2.31,0.45-3.11,1.35
		c-0.82,0.88-1.23,2.04-1.23,3.48c0,1.42,0.41,2.58,1.23,3.46c0.8,0.9,1.84,1.35,3.11,1.35c1.27,0,2.32-0.45,3.14-1.35
		c0.8-0.88,1.21-2.04,1.21-3.46C113.37,41.75,112.96,40.59,112.16,39.71z"/>
	<path class="st0" d="M121.87,45.07v-6.41h-5.11v-1.9h10.62h2v1.14v0.77h-5.11V49.6h-2.39V45.07z"/>
	<path class="st0" d="M131.58,43.98v-7.22h1.49h0.88v5.34h8.08v-5.34h1.49h0.91V49.6h-2.39v-5.6h-8.08v5.6h-2.37V43.98z"/>
	<path class="st0" d="M147.75,36.76h2.37h8.08v1.9h-8.08v3.44h7.25v1.9h-7.25v3.69h8.08v1.9h-8.08h-2.37V36.76z"/>
	<path class="st0" d="M165.73,43.98v-7.22h0.16h1.02h0.02h1.16h0.35c1.83,2.35,4.41,5.68,7.74,9.99v-2.76v-7.22h1.49h0.91V49.6
		h-0.19h-2.21h-0.35c-1.4-1.8-3.98-5.13-7.74-9.99v9.99h-2.37V43.98z"/>
	<path class="st0" d="M182.01,43.98v-7.22h1.49h0.88V49.6h-2.37V43.98z"/>
	<path class="st0" d="M199.85,49.6H197c-0.64-0.88-1.86-2.54-3.66-4.99h-1.29h-1.84v2.32v2.67h-1.51h-0.86v-2.62v-2.14v-4.37v-3.72
		h2.02h4.16c1.7,0,3,0.36,3.9,1.07c0.88,0.71,1.32,1.66,1.32,2.86s-0.44,2.14-1.32,2.86c-0.52,0.41-1.18,0.7-1.99,0.88
		C196.76,45.51,198.06,47.23,199.85,49.6z M196.04,39.13c-0.48-0.31-1.15-0.46-2.02-0.46h-1.84h-1.97v1.97v0.46v1.6h1.93h1.88
		c0.87,0,1.54-0.16,2.02-0.46c0.48-0.33,0.72-0.84,0.72-1.56S196.52,39.45,196.04,39.13z"/>
	<path class="st0" d="M208.94,49.6h-0.05h-1.05h-0.19h-0.95h-0.14c-1.38-2.85-3.44-7.13-6.18-12.84h2.67
		c0.85,1.86,2.43,5.34,4.74,10.44c1.22-2.67,2.82-6.16,4.78-10.44h2.56C214.1,38.9,212.03,43.18,208.94,49.6z"/>
	<path class="st0" d="M217.21,43.98v-7.22h1.49h0.88V49.6h-2.37V43.98z"/>
	<path class="st0" d="M236,49.6h-2.93c-0.82-1.12-2.41-3.28-4.74-6.48c-0.9,0.82-1.88,1.7-2.92,2.65v3.82h-2.37v-4.53v-1.09v-7.22
		h1.18h1.18v6.19c1.84-1.65,4.14-3.71,6.9-6.19h3.04c-1.12,1.02-2.89,2.62-5.3,4.8C231.09,42.97,233.08,45.65,236,49.6z"/>
</g>
<g>
	<g>
		<path class="st0" d="M43.6,7.04c-2.31,0-4.2,0.81-5.67,2.43c-1.49,1.59-2.24,3.67-2.24,6.26c0,2.55,0.75,4.63,2.24,6.21
			c1.47,1.62,3.36,2.43,5.67,2.43c2.32,0,4.22-0.81,5.72-2.43c1.46-1.59,2.2-3.66,2.2-6.21c0-2.59-0.74-4.67-2.2-6.26
			C47.83,7.85,45.93,7.04,43.6,7.04z"/>
		<path class="st0" d="M29.75,0v31.41H57.5V0H29.75z M52.67,24.37c-2.29,2.34-5.31,3.5-9.06,3.5s-6.76-1.16-9.01-3.5
			c-2.29-2.37-3.43-5.25-3.43-8.64c0-3.42,1.14-6.32,3.43-8.69c2.25-2.34,5.26-3.5,9.01-3.5s6.77,1.16,9.06,3.5
			c2.28,2.37,3.43,5.27,3.43,8.69C56.1,19.12,54.95,22,52.67,24.37z"/>
	</g>
	<path class="st0" d="M0,0v31.41h27.75V0H0z M22.87,18.48c0,3.2-0.89,5.49-2.67,6.88c-1.75,1.39-3.89,2.09-6.43,2.09
		c-2.45,0-4.54-0.64-6.26-1.92c-1.75-1.28-2.63-3.33-2.63-6.17h4.11c0,1.59,0.48,2.77,1.44,3.55c0.93,0.75,2.06,1.12,3.38,1.12
		c1.3,0,2.42-0.41,3.35-1.25c0.93-0.84,1.39-2.27,1.39-4.3V3.95h4.32V18.48z"/>
	<path class="st0" d="M59.5,0v31.41h27.75V0H59.5z M85.08,27.25h-4.99c-2.55-3.24-7.25-9.23-14.1-17.96v17.96h-4.31V4.16h4.95
		c3.33,4.23,8.03,10.22,14.09,17.95V4.16h4.36V27.25z"/>
	<g>
		<path class="st0" d="M103.09,7.04c-2.31,0-4.2,0.81-5.67,2.43c-1.49,1.59-2.24,3.67-2.24,6.26c0,2.55,0.75,4.63,2.24,6.21
			c1.47,1.62,3.36,2.43,5.67,2.43c2.32,0,4.22-0.81,5.72-2.43c1.46-1.59,2.2-3.66,2.2-6.21c0-2.59-0.74-4.67-2.2-6.26
			C107.32,7.85,105.42,7.04,103.09,7.04z"/>
		<path class="st0" d="M89.24,0v31.41H117V0H89.24z M112.16,24.37c-2.28,2.34-5.3,3.5-9.06,3.5c-3.75,0-6.75-1.16-9.01-3.5
			c-2.29-2.37-3.43-5.25-3.43-8.64c0-3.42,1.14-6.32,3.43-8.69c2.26-2.34,5.26-3.5,9.01-3.5c3.76,0,6.78,1.16,9.06,3.5
			c2.29,2.37,3.43,5.27,3.43,8.69C115.59,19.12,114.45,22,112.16,24.37z"/>
	</g>
	<g>
		<path class="st0" d="M137.73,8.42c-0.85-0.55-2.08-0.84-3.69-0.84h-7.57v7.68h7.57c1.61,0,2.84-0.28,3.69-0.84
			c0.87-0.58,1.31-1.58,1.31-3S138.6,9,137.73,8.42z"/>
		<path class="st0" d="M119,0v31.41h27.75V0H119z M143.61,11.43c-0.03,2.28-0.88,4.06-2.54,5.34c-1.64,1.28-3.98,1.92-7.03,1.92
			h-7.57v8.56h-4.32V4.16h11.89c3.05,0,5.41,0.64,7.07,1.92c1.67,1.28,2.5,3.05,2.5,5.31V11.43z"/>
	</g>
	<g>
		<path class="st0" d="M157.63,18.99h9.71c-1.34-2.93-2.95-6.44-4.83-10.52C161.14,11.42,159.51,14.92,157.63,18.99z"/>
		<path class="st0" d="M148.74,0v31.41h27.76V0H148.74z M171.13,27.25c-0.57-1.27-1.34-2.95-2.31-5.05h-12.67
			c-0.74,1.61-1.52,3.28-2.33,5.05h-4.53c1.87-3.85,5.62-11.54,11.26-23.09h4.11c2.51,5.13,6.27,12.82,11.3,23.09H171.13z"/>
	</g>
	<path class="st0" d="M178.5,0v31.41h27.75V0H178.5z M203.87,7.58h-9.31v19.67h-4.36V7.58h-9.31V4.16h22.99V7.58z"/>
	<path class="st0" d="M208.25,0v31.41H236V0H208.25z M233.83,27.25h-4.36V17.19h-14.73v10.06h-4.31V4.16h4.31v9.61h14.73V4.16h4.36
		V27.25z"/>
</g>
</svg>
