<?xml version="1.0" encoding="utf-8"?>
<!-- Generator: Adobe Illustrator 24.0.1, SVG Export Plug-In . SVG Version: 6.00 Build 0)  -->
<svg version="1.1" id="Layer_1" xmlns="http://www.w3.org/2000/svg" xmlns:xlink="http://www.w3.org/1999/xlink" x="0px" y="0px"
	 viewBox="0 0 161 60" style="enable-background:new 0 0 161 60;" xml:space="preserve">
<style type="text/css">
	.st0{fill:#FFFFFF;}
</style>
<g>
	<g>
		<path class="st0" d="M123.5,18.1v16.6h16.8V18.1H123.5z M136.4,24.2h-3.2v6.5h-2.6v-6.5h-3.2v-2.1h8.9V24.2z"/>
		<path class="st0" d="M144.1,18.1v16.6h16.8V18.1H144.1z M157,30.8h-2.6v-3.4h-3.9v3.4h-2.6v-8.6h2.6v3.2h3.9v-3.2h2.6V30.8z"/>
		<path class="st0" d="M92,24.9c0,0.8-0.4,1-1.7,1h-0.6v-2.1h0.6C91.5,23.8,92,24,92,24.9z"/>
		<path class="st0" d="M82.5,18.1v16.6h16.8V18.1H82.5z M91.5,27.5h-1.7v3.2h-2.6v-8.6h4.3c2.4,0,3.2,1.6,3.2,2.7
			S93.9,27.5,91.5,27.5z"/>
		<polygon class="st0" points="111.4,24.4 112.7,27.5 110.1,27.5 		"/>
		<path class="st0" d="M103,18.1v16.6h16.8V18.1H103z M114,30.8l-0.7-1.8h-3.8l-0.7,1.8h-2.7l3.8-8.6h2.9l3.8,8.6H114z"/>
		<path class="st0" d="M41.4,18.1v16.6h16.8V18.1H41.4z M54.5,30.8h-2.3l-4.5-4.8v4.8h-2.6v-8.6h2.3l4.5,4.8v-4.8h2.6V30.8z"/>
		<path class="st0" d="M72.6,26.4c0,1.3-0.8,2.2-2.3,2.2c-1.4,0-2.3-0.9-2.3-2.2c0-1.3,0.8-2.2,2.3-2.2
			C71.8,24.2,72.6,25.2,72.6,26.4z"/>
		<path class="st0" d="M62,18.1v16.6h16.8V18.1H62z M70.4,30.9c-3.4,0-4.9-2.2-4.9-4.4c0-2.2,1.5-4.4,4.9-4.4c3.3,0,4.9,2.1,4.9,4.4
			C75.3,28.8,73.6,30.9,70.4,30.9z"/>
		<path class="st0" d="M0,18.1v16.6h16.8V18.1H0z M10.5,28.3c0,1.8-0.2,3.8-2.9,3.8c-0.5,0-0.7,0-0.9-0.1L6.3,30
			c0.9,0,1.4,0,1.6-0.7c0.1-0.3,0.1-1.5,0.1-1.8v-6.7h2.6V28.3z"/>
		<path class="st0" d="M31.6,26.4c0,1.3-0.8,2.2-2.3,2.2c-1.4,0-2.3-0.9-2.3-2.2c0-1.3,0.8-2.2,2.3-2.2
			C30.7,24.2,31.6,25.2,31.6,26.4z"/>
		<path class="st0" d="M20.9,18.1v16.6h16.8V18.1H20.9z M29.3,30.9c-3.4,0-4.9-2.2-4.9-4.4c0-2.2,1.5-4.4,4.9-4.4
			c3.3,0,4.9,2.1,4.9,4.4C34.2,28.8,32.6,30.9,29.3,30.9z"/>
	</g>
	<path class="st0" d="M2.3,38.8c-0.4-0.3-0.7-0.4-1-0.4c-0.4,0-0.7,0.2-0.7,0.5c0,0.3,0.3,0.5,1.1,0.9c0.2,0.1,0.4,0.2,0.6,0.4
		c0.1,0.2,0.2,0.4,0.2,0.7C2.5,41.5,2,42,1.2,42c-0.4,0-0.9-0.1-1.2-0.4v-0.7c0.1,0.1,0.5,0.6,1.2,0.6c0.3,0,0.7-0.2,0.7-0.5
		c0-0.3-0.4-0.6-0.6-0.7c-0.7-0.4-0.9-0.5-1.1-0.7C0.1,39.4,0,39.2,0,39c0-0.6,0.5-1.1,1.3-1.1c0.4,0,0.7,0.1,1,0.3V38.8z"/>
	<path class="st0" d="M13.5,39.9c0,1.1-1,2.1-2.4,2.1c-1.4,0-2.4-0.9-2.4-2c0-1.1,0.9-2.1,2.4-2.1C12.6,37.9,13.5,38.9,13.5,39.9z
		 M9.4,40c0,0.9,0.8,1.5,1.7,1.5c0.5,0,1-0.2,1.3-0.5c0.3-0.3,0.4-0.7,0.4-1.1c0-0.7-0.6-1.5-1.7-1.5C9.9,38.4,9.4,39.3,9.4,40z"/>
	<path class="st0" d="M22.8,38.5h-1.6v3.5h-0.6v-3.5h-1.5v-0.5h3.7V38.5z"/>
	<path class="st0" d="M32.7,38.5h-1.6v3.5h-0.6v-3.5H29v-0.5h3.7V38.5z"/>
	<path class="st0" d="M41.9,38.5H40v1.2h1.8v0.5H40v1.2h2v0.5h-2.6v-4h2.5V38.5z"/>
	<path class="st0" d="M49.9,37.9c0.2,0,0.5,0,0.8,0.1c0.5,0.2,0.7,0.6,0.7,1c0,0.5-0.3,0.8-0.7,1c0.4,0.2,0.7,0.6,1,1.1
		c0.2,0.3,0.3,0.4,0.6,0.8h-0.8c-0.2-0.2-0.8-1.1-0.9-1.2c-0.4-0.5-0.7-0.5-1-0.5h-0.2v1.7h-0.6v-4H49.9z M49.5,38.4v1.3h0.2
		c0.1,0,0.4,0,0.6-0.1c0.3-0.1,0.4-0.4,0.4-0.6c0-0.2-0.1-0.4-0.3-0.5c-0.2-0.1-0.4-0.1-0.8-0.1H49.5z"/>
	<path class="st0" d="M60.1,37.9c0.5,0,0.9,0,1.3,0.3c0.2,0.2,0.3,0.4,0.3,0.8c0,0.2,0,0.5-0.4,0.8c-0.3,0.2-0.6,0.3-1.3,0.3h-0.5
		v1.7H59v-4H60.1z M59.6,38.5v1.2h0.5c0.3,0,0.5,0,0.7-0.1c0.2-0.1,0.3-0.3,0.3-0.5c0-0.1,0-0.3-0.2-0.4c-0.2-0.2-0.4-0.2-0.8-0.2
		H59.6z"/>
	<path class="st0" d="M72.7,39.9c0,1.1-1,2.1-2.4,2.1c-1.4,0-2.4-0.9-2.4-2c0-1.1,0.9-2.1,2.4-2.1C71.7,37.9,72.7,38.9,72.7,39.9z
		 M68.5,40c0,0.9,0.8,1.5,1.7,1.5c0.5,0,1-0.2,1.3-0.5c0.3-0.3,0.4-0.7,0.4-1.1c0-0.7-0.6-1.5-1.7-1.5C69,38.4,68.5,39.3,68.5,40z"
		/>
	<path class="st0" d="M82,38.5h-1.6v3.5h-0.6v-3.5h-1.5v-0.5H82V38.5z"/>
	<path class="st0" d="M91.9,41.9h-0.6v-1.7h-2.5v1.7h-0.6v-4h0.6v1.7h2.5v-1.7h0.6V41.9z"/>
	<path class="st0" d="M101.1,38.5h-1.9v1.2h1.8v0.5h-1.8v1.2h2v0.5h-2.6v-4h2.5V38.5z"/>
	<path class="st0" d="M111.7,41.9h-0.6l-3-3.1v3.1h-0.6v-4h0.5l3,3.1v-3.1h0.6V41.9z"/>
	<path class="st0" d="M119.8,41.9h-0.6v-4h0.6V41.9z"/>
	<path class="st0" d="M128.8,37.9c0.2,0,0.5,0,0.8,0.1c0.5,0.2,0.7,0.6,0.7,1c0,0.5-0.3,0.8-0.7,1c0.4,0.2,0.7,0.6,1,1.1
		c0.2,0.3,0.3,0.4,0.6,0.8h-0.8c-0.2-0.2-0.8-1.1-0.9-1.2c-0.4-0.5-0.7-0.5-1-0.5h-0.2v1.7h-0.6v-4H128.8z M128.3,38.4v1.3h0.2
		c0.1,0,0.4,0,0.6-0.1c0.3-0.1,0.4-0.4,0.4-0.6c0-0.2-0.1-0.4-0.3-0.5c-0.2-0.1-0.4-0.1-0.8-0.1H128.3z"/>
	<path class="st0" d="M139.3,42h-0.1l-1.9-4h0.6l1.3,2.8l1.3-2.8h0.6L139.3,42z"/>
	<path class="st0" d="M149.4,41.9h-0.6v-4h0.6V41.9z"/>
	<path class="st0" d="M158.4,39.8l2.4,2.1H160l-2.3-2v2H157v-4h0.6v1.8l1.9-1.8h0.8L158.4,39.8z"/>
</g>
</svg>
