<?xml version="1.0" encoding="utf-8"?>
<!-- Generator: Adobe Illustrator 24.0.1, SVG Export Plug-In . SVG Version: 6.00 Build 0)  -->
<svg version="1.1" id="Layer_1" xmlns="http://www.w3.org/2000/svg" xmlns:xlink="http://www.w3.org/1999/xlink" x="0px" y="0px"
	 viewBox="0 0 156 40" style="enable-background:new 0 0 156 40;" xml:space="preserve">
<style type="text/css">
	.st0{fill:#FFFFFF;}
</style>
<g>
	<g>
		<path class="st0" d="M119.8,7.5v16.1h16.3V7.5H119.8z M132.3,13.4h-3.1v6.3h-2.5v-6.3h-3.1v-2h8.7V13.4z"/>
		<path class="st0" d="M139.7,7.5v16.1H156V7.5H139.7z M152.3,19.8h-2.5v-3.3h-3.8v3.3h-2.5v-8.4h2.5v3.1h3.8v-3.1h2.5V19.8z"/>
		<path class="st0" d="M89.2,14.1c0,0.8-0.4,1-1.6,1H87v-2h0.5C88.8,13,89.2,13.2,89.2,14.1z"/>
		<path class="st0" d="M80,7.5v16.1h16.3V7.5H80z M88.7,16.6H87v3.1h-2.5v-8.4h4.2c2.3,0,3.1,1.5,3.1,2.6S91,16.6,88.7,16.6z"/>
		<polygon class="st0" points="108.1,13.6 109.3,16.6 106.8,16.6 		"/>
		<path class="st0" d="M99.9,7.5v16.1h16.3V7.5H99.9z M110.6,19.8l-0.7-1.7h-3.6l-0.7,1.7h-2.6l3.7-8.4h2.8l3.7,8.4H110.6z"/>
		<path class="st0" d="M40.2,7.5v16.1h16.3V7.5H40.2z M52.9,19.8h-2.2l-4.4-4.7v4.7h-2.5v-8.4H46l4.3,4.6v-4.6h2.5V19.8z"/>
		<path class="st0" d="M70.4,15.6c0,1.2-0.8,2.2-2.2,2.2c-1.4,0-2.2-0.9-2.2-2.2c0-1.3,0.8-2.1,2.2-2.1
			C69.6,13.4,70.4,14.3,70.4,15.6z"/>
		<path class="st0" d="M60.1,7.5v16.1h16.3V7.5H60.1z M68.2,19.9c-3.3,0-4.8-2.1-4.8-4.3c0-2.2,1.5-4.3,4.8-4.3c3.2,0,4.8,2,4.8,4.3
			C73,17.9,71.4,19.9,68.2,19.9z"/>
		<path class="st0" d="M0,7.5v16.1h16.3V7.5H0z M10.2,17.4c0,1.8-0.2,3.7-2.8,3.7c-0.4,0-0.6,0-0.9-0.1l-0.4-2c0.9,0,1.4,0,1.5-0.7
			c0.1-0.3,0.1-1.4,0.1-1.8v-6.5h2.5V17.4z"/>
		<path class="st0" d="M30.6,15.6c0,1.2-0.8,2.2-2.2,2.2c-1.4,0-2.2-0.9-2.2-2.2c0-1.3,0.8-2.1,2.2-2.1
			C29.8,13.4,30.6,14.3,30.6,15.6z"/>
		<path class="st0" d="M20.3,7.5v16.1h16.3V7.5H20.3z M28.4,19.9c-3.3,0-4.8-2.1-4.8-4.3c0-2.2,1.5-4.3,4.8-4.3c3.2,0,4.8,2,4.8,4.3
			C33.2,17.9,31.6,19.9,28.4,19.9z"/>
	</g>
	<path class="st0" d="M2.3,27.6c-0.4-0.3-0.7-0.4-1-0.4c-0.4,0-0.7,0.2-0.7,0.4c0,0.3,0.3,0.5,1.1,0.9C1.8,28.6,2,28.8,2.2,29
		c0.1,0.2,0.2,0.4,0.2,0.6c0,0.6-0.5,1.1-1.3,1.1c-0.4,0-0.8-0.1-1.2-0.4v-0.7c0.1,0.1,0.5,0.6,1.2,0.6c0.3,0,0.7-0.2,0.7-0.5
		c0-0.3-0.4-0.6-0.6-0.7c-0.7-0.4-0.9-0.5-1.1-0.7C0.1,28.1,0,28,0,27.7c0-0.6,0.5-1,1.3-1c0.4,0,0.7,0.1,1,0.3V27.6z"/>
	<path class="st0" d="M13.1,28.7c0,1.1-1,2-2.4,2c-1.4,0-2.3-0.9-2.3-2c0-1,0.8-2,2.3-2C12.2,26.7,13.1,27.6,13.1,28.7z M9.1,28.7
		c0,0.9,0.8,1.5,1.7,1.5c0.5,0,1-0.2,1.3-0.5c0.3-0.3,0.4-0.7,0.4-1c0-0.6-0.5-1.5-1.7-1.5C9.6,27.2,9.1,28,9.1,28.7z"/>
	<path class="st0" d="M22.2,27.2h-1.5v3.4H20v-3.4h-1.5v-0.5h3.6V27.2z"/>
	<path class="st0" d="M31.7,27.2h-1.5v3.4h-0.6v-3.4h-1.5v-0.5h3.6V27.2z"/>
	<path class="st0" d="M40.7,27.2h-1.8v1.2h1.8v0.5h-1.8v1.2h1.9v0.5h-2.5v-3.9h2.5V27.2z"/>
	<path class="st0" d="M48.4,26.7c0.2,0,0.5,0,0.7,0.1c0.5,0.2,0.7,0.6,0.7,1c0,0.4-0.3,0.8-0.7,1c0.4,0.2,0.6,0.6,1,1.1
		c0.2,0.3,0.3,0.4,0.6,0.8h-0.7c-0.1-0.2-0.8-1-0.9-1.2c-0.4-0.5-0.6-0.5-0.9-0.5H48v1.7h-0.6v-3.9H48.4z M48,27.2v1.2h0.2
		c0.1,0,0.4,0,0.6-0.1c0.3-0.1,0.4-0.3,0.4-0.6c0-0.2-0.1-0.4-0.3-0.5c-0.2-0.1-0.4-0.1-0.7-0.1H48z"/>
	<path class="st0" d="M58.3,26.7c0.5,0,0.9,0,1.3,0.3c0.2,0.2,0.3,0.4,0.3,0.8c0,0.2,0,0.5-0.4,0.8c-0.3,0.2-0.6,0.3-1.3,0.3h-0.5
		v1.7h-0.6v-3.9H58.3z M57.8,27.2v1.2h0.5c0.2,0,0.5,0,0.7-0.1c0.2-0.1,0.3-0.3,0.3-0.5c0-0.1,0-0.3-0.2-0.4
		c-0.2-0.2-0.4-0.2-0.8-0.2H57.8z"/>
	<path class="st0" d="M70.5,28.7c0,1.1-1,2-2.4,2c-1.4,0-2.3-0.9-2.3-2c0-1,0.8-2,2.3-2C69.6,26.7,70.5,27.6,70.5,28.7z M66.4,28.7
		c0,0.9,0.8,1.5,1.7,1.5c0.5,0,1-0.2,1.3-0.5c0.3-0.3,0.4-0.7,0.4-1c0-0.6-0.5-1.5-1.7-1.5C66.9,27.2,66.4,28,66.4,28.7z"/>
	<path class="st0" d="M79.5,27.2H78v3.4h-0.6v-3.4h-1.5v-0.5h3.6V27.2z"/>
	<path class="st0" d="M89.1,30.6h-0.6v-1.7H86v1.7h-0.6v-3.9H86v1.7h2.4v-1.7h0.6V30.6z"/>
	<path class="st0" d="M98,27.2h-1.8v1.2h1.8v0.5h-1.8v1.2h1.9v0.5h-2.5v-3.9H98V27.2z"/>
	<path class="st0" d="M108.4,30.6h-0.5l-2.9-3v3h-0.6v-3.9h0.5l2.9,3v-3h0.6V30.6z"/>
	<path class="st0" d="M116.2,30.6h-0.6v-3.9h0.6V30.6z"/>
	<path class="st0" d="M124.9,26.7c0.2,0,0.5,0,0.7,0.1c0.5,0.2,0.7,0.6,0.7,1c0,0.4-0.3,0.8-0.7,1c0.4,0.2,0.6,0.6,1,1.1
		c0.2,0.3,0.3,0.4,0.6,0.8h-0.7c-0.1-0.2-0.8-1-0.9-1.2c-0.4-0.5-0.6-0.5-0.9-0.5h-0.2v1.7h-0.6v-3.9H124.9z M124.4,27.2v1.2h0.2
		c0.1,0,0.4,0,0.6-0.1c0.3-0.1,0.4-0.3,0.4-0.6c0-0.2-0.1-0.4-0.3-0.5c-0.2-0.1-0.4-0.1-0.7-0.1H124.4z"/>
	<path class="st0" d="M135.1,30.6H135l-1.9-3.9h0.6l1.3,2.7l1.3-2.7h0.6L135.1,30.6z"/>
	<path class="st0" d="M144.9,30.6h-0.6v-3.9h0.6V30.6z"/>
	<path class="st0" d="M153.7,28.6l2.3,2h-0.9l-2.2-1.9v1.9h-0.6v-3.9h0.6v1.8l1.8-1.8h0.8L153.7,28.6z"/>
</g>
</svg>
