<?xml version="1.0" encoding="utf-8"?>
<!-- Generator: Adobe Illustrator 24.0.1, SVG Export Plug-In . SVG Version: 6.00 Build 0)  -->
<svg version="1.1" id="Layer_1" xmlns="http://www.w3.org/2000/svg" xmlns:xlink="http://www.w3.org/1999/xlink" x="0px" y="0px"
	 viewBox="0 0 161 16.7" style="enable-background:new 0 0 161 16.7;" xml:space="preserve">
<style type="text/css">
	.st0{fill:#00DB80;}
	.st1{fill:#FFFFFF;}
</style>
<g>
	<path class="st0" d="M91.5,6.1c0,0.9-0.5,1.1-1.8,1.1h-0.6V5h0.6C91.1,5,91.5,5.2,91.5,6.1z"/>
	<polygon class="st0" points="112.3,5.6 113.7,8.9 110.9,8.9 	"/>
	<path class="st0" d="M70.9,7.8c0,1.4-0.9,2.4-2.4,2.4c-1.5,0-2.4-1-2.4-2.4c0-1.4,0.9-2.4,2.4-2.4C70,5.4,70.9,6.4,70.9,7.8z"/>
	<path class="st0" d="M27,7.8c0,1.4-0.9,2.4-2.4,2.4c-1.5,0-2.4-1-2.4-2.4c0-1.4,0.9-2.4,2.4-2.4C26.1,5.4,27,6.4,27,7.8z"/>
</g>
<g>
	<path class="st1" d="M4.6,1.7v8.1c0,2-0.2,4.1-3.1,4.1c-0.5,0-0.7,0-1-0.1L0,11.6c1,0,1.5,0,1.7-0.8c0.1-0.3,0.1-1.6,0.1-2V1.7H4.6
		z"/>
	<path class="st1" d="M24.6,3.1c-3.6,0-5.3,2.4-5.3,4.8c0,2.4,1.6,4.8,5.3,4.8c3.5,0,5.3-2.2,5.3-4.8C29.9,5.3,28.1,3.1,24.6,3.1z
		 M24.6,10.2c-1.5,0-2.4-1-2.4-2.4c0-1.4,0.9-2.4,2.4-2.4c1.5,0,2.4,1,2.4,2.4C27,9.2,26.1,10.2,24.6,10.2z"/>
	<polygon class="st1" points="51.5,3.2 51.5,12.5 49.1,12.5 44.3,7.3 44.3,12.5 41.5,12.5 41.5,3.2 44,3.2 48.8,8.3 48.8,3.2 	"/>
	<path class="st1" d="M68.4,3.1c-3.6,0-5.3,2.4-5.3,4.8c0,2.4,1.6,4.8,5.3,4.8c3.5,0,5.3-2.2,5.3-4.8C73.7,5.3,72,3.1,68.4,3.1z
		 M68.4,10.2c-1.5,0-2.4-1-2.4-2.4c0-1.4,0.9-2.4,2.4-2.4c1.5,0,2.4,1,2.4,2.4C70.9,9.2,70,10.2,68.4,10.2z"/>
	<path class="st1" d="M91,3.2h-4.6v9.3h2.8V9H91c2.6,0,3.4-1.6,3.4-2.9S93.6,3.2,91,3.2z M89.7,7.2h-0.6V5h0.6
		c1.3,0,1.8,0.3,1.8,1.2C91.5,7,91.1,7.2,89.7,7.2z"/>
	<path class="st1" d="M113.8,3.2h-3.1l-4.1,9.3h2.9l0.8-1.9h4l0.7,1.9h2.9L113.8,3.2z M110.9,8.9l1.4-3.4l1.4,3.4H110.9z"/>
	<polygon class="st1" points="139,3.2 139,5.4 135.6,5.4 135.6,12.5 132.8,12.5 132.8,5.4 129.4,5.4 129.4,3.2 	"/>
	<polygon class="st1" points="161,3.2 161,12.5 158.2,12.5 158.2,8.8 154,8.8 154,12.5 151.2,12.5 151.2,3.2 154,3.2 154,6.6 
		158.2,6.6 158.2,3.2 	"/>
</g>
</svg>
