<?xml version="1.0" encoding="utf-8"?>
<!-- Generator: Adobe Illustrator 24.0.1, SVG Export Plug-In . SVG Version: 6.00 Build 0)  -->
<svg version="1.1" id="Layer_1" xmlns="http://www.w3.org/2000/svg" xmlns:xlink="http://www.w3.org/1999/xlink" x="0px" y="0px"
	 viewBox="0 0 160 60" style="enable-background:new 0 0 160 60;" xml:space="preserve">
<style type="text/css">
	.st0{fill:#FFFFFF;}
	.st1{fill:url(#SVGID_1_);}
	.st2{fill:#39B54A;}
	.st3{fill:#FF0000;}
	.st4{fill:#006837;}
	.st5{fill:url(#SVGID_2_);}
	.st6{fill:url(#SVGID_3_);}
	.st7{fill:url(#SVGID_4_);}
</style>
<g>
	<g>
		<path class="st0" d="M121,27.8l-1.1-1.8c-0.2-0.3-0.5-0.4-0.8-0.4h-1.5l-0.1-0.6c0-0.3-0.2-0.5-0.4-0.7l-1.6-1.1
			c-0.2-0.1-0.3-0.2-0.5-0.2c-0.1,0-0.2,0-0.2,0l-0.1,0c-0.4,0.1-0.7,0.5-0.7,0.9v15.6c-0.6-0.6-1.2-1.1-1.8-1.6
			c-0.4-0.3-0.8-0.6-1.3-0.8c0.8-0.5,1.4-1.2,1.9-2c0.5-0.9,0.8-2,0.8-3.2c0-1.3-0.3-2.5-0.9-3.4c-0.6-1-1.4-1.8-2.4-2.3
			c-1-0.5-2.1-0.8-3.3-0.8c-1.1,0-2,0.2-2.8,0.5c-0.5,0.2-0.9,0.5-1.3,0.9l-0.6-0.9c-0.2-0.3-0.5-0.4-0.8-0.4h-1.5l-0.1-0.6
			c0-0.3-0.2-0.5-0.4-0.7l-1.6-1.1c-0.2-0.1-0.3-0.2-0.5-0.2c-0.1,0-0.2,0-0.2,0l-0.1,0c-0.4,0.1-0.7,0.5-0.7,0.9v4.7
			c0,0.2,0,0.3,0,0.5c-0.1-0.2-0.3-0.4-0.4-0.6c-0.9-1.1-1.9-1.9-2.9-2.5c-1.1-0.6-2.2-0.9-3.4-0.9c-1.1,0-2.2,0.3-3.2,0.8
			c-1,0.5-1.9,1.2-2.8,2.1c0,0,0,0-0.1,0.1c0-0.2,0-0.4-0.1-0.6L82,26.1c-0.2-0.3-0.5-0.4-0.8-0.4H39c-0.3,0-0.7,0.2-0.8,0.5
			c-0.2,0.3-0.2,0.7,0,1l1.1,1.8c0.2,0.3,0.5,0.4,0.8,0.4h6.5c-0.1,0.2-0.3,0.3-0.4,0.5c-0.4,0.5-0.7,1.1-0.9,1.7
			c-0.2,0.6-0.3,1.3-0.3,1.9c0,1.1,0.2,2.1,0.7,3c0.5,0.9,1.1,1.6,1.9,2.2c0.8,0.5,1.8,0.8,2.8,0.8c0.8,0,1.6-0.2,2.4-0.5
			c0.5-0.2,1-0.5,1.4-0.8c0,0.4-0.2,0.7-0.3,1.1c-0.2,0.4-0.6,0.8-1.1,1.1c-0.5,0.3-1.2,0.4-2.1,0.4c-1.3,0-2.3-0.3-3.2-1
			c-1-0.7-1.8-1.8-2.6-3.3c-0.8-1.5-1.5-3.6-2.1-6c-0.1-0.3-0.2-0.5-0.5-0.6c-0.1-0.1-0.3-0.1-0.5-0.1c-0.1,0-0.2,0-0.3,0l-1.3,0.4
			c-0.5,0.1-0.8,0.6-0.7,1.1c0.7,3.2,1.5,5.8,2.5,7.9c1,2.1,2.2,3.8,3.7,4.8c1.5,1.1,3.1,1.6,5,1.6c1.6,0,2.9-0.3,3.9-1
			c1-0.7,1.8-1.6,2.3-2.7c0.5-1.1,0.7-2.3,0.7-3.6c0-0.8-0.1-1.6-0.3-2.4c-0.2-0.8-0.5-1.5-0.9-2.2c0,0,0,0,0,0
			c0.3,0.1,0.5,0.3,0.8,0.4c0.4,0.2,0.9,0.4,1.3,0.5c-0.1,0.4-0.2,0.8-0.3,1.2c-0.2,1.2-0.3,2.3-0.3,3.5c0,1.4,0.1,2.8,0.4,3.9
			c0.3,1.2,0.6,2.4,1.1,3.6c0.1,0.2,0.3,0.4,0.5,0.5c0.1,0,0.2,0.1,0.4,0.1c0.1,0,0.3,0,0.4-0.1l1.3-0.6c0.4-0.2,0.7-0.7,0.5-1.2
			c-0.2-0.6-0.3-1.2-0.5-1.8c-0.1-0.6-0.2-1.1-0.2-1.7c0-0.6-0.1-1.2-0.1-1.7c0-1,0.2-2.1,0.5-3.1c0.4-1,0.9-2.1,1.7-3.1
			c0.2-0.3,0.2-0.8,0-1.1l-1.6-2.3c-0.2-0.3-0.5-0.4-0.8-0.4c-1.2,0-2.2-0.1-3.1-0.4c-0.7-0.2-1.3-0.4-1.8-0.8H76V35
			c-0.3-0.4-0.6-0.7-1-1.1c-0.7-0.7-1.5-1.2-2.3-1.6c-0.9-0.4-1.8-0.6-2.9-0.6c-1.4,0-2.6,0.4-3.5,1.2c-0.9,0.8-1.4,1.9-1.4,3.3
			c0,1.2,0.4,2.3,1.1,3.1c0.8,0.9,1.9,1.3,3.3,1.3c0.8,0,1.5-0.2,2.1-0.5c0.6-0.3,1.1-0.8,1.4-1.4c0.2-0.4,0.4-0.9,0.4-1.4
			c0.4,0.3,0.7,0.7,1.1,1.2c0.4,0.6,0.7,1.3,1,2c0.3,0.7,0.5,1.5,0.7,2.3c0.2,0.8,0.3,1.6,0.3,2.3c0,0.3,0.1,0.5,0.4,0.7l1.5,1.2
			c0.2,0.1,0.4,0.2,0.6,0.2c0.1,0,0.2,0,0.3,0l0.2-0.1c0.4-0.1,0.7-0.5,0.7-0.9v-17h2.5c0.1,0,0.1,0,0.2,0c-0.6,0.7-1.1,1.5-1.6,2.3
			c-0.2,0.4-0.2,0.9,0.2,1.2l2.4,2.4c0.2,0.2,0.4,0.3,0.7,0.3c0.2,0,0.4-0.1,0.6-0.2c0.2-0.2,0.5-0.3,0.7-0.4
			c0.2-0.1,0.4-0.1,0.7-0.1c0.1,0,0.3,0,0.4,0.1c0.1,0,0.1,0.1,0.2,0.1c0,0,0.1,0.1,0.1,0.4c0,0.4-0.1,0.8-0.3,1.1
			c-0.3,0.4-0.7,0.8-1.1,1.1c-0.2,0.2-0.3,0.4-0.4,0.7c0,0.3,0.1,0.5,0.3,0.7l2.1,2.2c0.2,0.2,0.4,0.3,0.7,0.3c0,0,0,0,0,0
			c0.3,0,0.5-0.1,0.7-0.3l6.6-6.7c0.3,0.4,0.5,0.9,0.8,1.3v10c0,0.4,0.2,0.7,0.5,0.9l1.8,0.9c0.1,0.1,0.3,0.1,0.4,0.1
			c0.1,0,0.2,0,0.2,0l0.1,0c0.4-0.1,0.7-0.5,0.7-0.9V29.3h1.4c0,0.2-0.1,0.4-0.1,0.7c0,1.2,0.4,2.2,1.1,2.8c0.7,0.7,1.5,1,2.5,1
			c1,0,1.8-0.3,2.4-0.9c0.6-0.6,0.9-1.3,0.9-2.2c0-0.4,0-0.7-0.1-1c0.4,0,0.7,0.2,0.9,0.4c0.3,0.3,0.4,0.7,0.4,1.2s-0.1,1-0.4,1.3
			c-0.3,0.4-0.8,0.7-1.3,0.9c-0.6,0.3-1.3,0.4-2,0.5c-0.5,0.1-1,0.1-1.6,0.1c-0.2,0-0.4,0-0.6,0c0,0,0,0-0.1,0
			c-0.3,0-0.6,0.1-0.8,0.4c-0.2,0.3-0.2,0.6-0.1,0.9l1.3,3.8c0.1,0.3,0.4,0.6,0.8,0.6c1.4,0.1,2.7,0.5,3.8,0.9
			c1.1,0.5,2.2,1.1,3.1,1.9c0.9,0.8,1.7,1.8,2.4,2.9c0.1,0.1,0.2,0.2,0.3,0.3l1.6,1.2c0.2,0.1,0.4,0.2,0.6,0.2c0.1,0,0.1,0,0.2,0
			l0.2,0c0.5-0.1,0.8-0.5,0.8-0.9v-17h2.5c0.3,0,0.7-0.2,0.8-0.5C121.2,28.5,121.2,28.1,121,27.8z M53.7,32c-0.7,0.9-1.4,1.7-2,2.2
			c-0.5,0.4-1.1,0.7-1.5,0.7c-0.3,0-0.6-0.1-0.8-0.2c-0.1,0-0.2-0.2-0.2-0.6c0-0.3,0.1-0.7,0.3-1c0.2-0.4,0.6-0.8,1-1.2
			c0.5-0.4,1-0.9,1.7-1.3c0.2-0.1,0.4-0.3,0.7-0.4c0.4,0.6,0.7,1.1,1.2,1.6C53.9,31.8,53.8,31.9,53.7,32z M89.9,33.2
			c-0.2-0.5-0.4-0.9-0.7-1.3c-0.4-0.4-0.8-0.7-1.4-0.9c0.3-0.3,0.7-0.5,1-0.7c0.4-0.2,0.8-0.3,1.2-0.3c0.5,0,1,0.1,1.5,0.4
			c0.2,0.1,0.5,0.3,0.7,0.4L89.9,33.2z"/>
		<g>
			<path d="M81.2,26.6H64.6h-0.8H39l1.1,1.8h8.8c-0.3,0.2-0.5,0.4-0.7,0.7c-0.5,0.4-0.8,0.9-1.2,1.3c-0.3,0.5-0.6,1-0.7,1.5
				c-0.2,0.5-0.3,1.1-0.3,1.6c0,0.9,0.2,1.8,0.6,2.5c0.4,0.8,0.9,1.4,1.6,1.8c0.7,0.4,1.4,0.7,2.3,0.7c0.7,0,1.4-0.1,2-0.4
				c0.6-0.3,1.2-0.6,1.7-1.1c0.3-0.2,0.5-0.5,0.8-0.8c0,0,0,0,0,0.1c0.2,0.4,0.2,0.9,0.2,1.5c0,0.7-0.2,1.3-0.5,1.9
				c-0.3,0.6-0.8,1.1-1.5,1.4c-0.7,0.4-1.5,0.5-2.5,0.5c-1.4,0-2.7-0.4-3.8-1.2c-1.1-0.8-2-2-2.9-3.6c-0.8-1.6-1.6-3.7-2.2-6.2
				l-1.3,0.4c0.6,3.1,1.4,5.7,2.4,7.7c1,2,2.1,3.5,3.4,4.5c1.3,1,2.8,1.5,4.4,1.5c1.4,0,2.6-0.3,3.4-0.8c0.9-0.6,1.5-1.3,2-2.3
				c0.4-1,0.7-2,0.7-3.2c0-0.7-0.1-1.5-0.2-2.1s-0.4-1.3-0.8-2c-0.4-0.6-0.8-1.2-1.4-1.7c-0.7,1-1.5,1.8-2.2,2.4
				c-0.7,0.6-1.4,0.9-2.1,0.9c-0.6,0-1-0.2-1.4-0.5c-0.4-0.3-0.5-0.8-0.5-1.3c0-0.5,0.1-1,0.4-1.5c0.3-0.5,0.7-1,1.2-1.4
				c0.5-0.5,1.1-0.9,1.9-1.4c0.5-0.3,1-0.6,1.6-0.9c0.5,1.1,1.2,2,1.9,2.7c0.8,0.8,1.7,1.4,2.7,1.8c0.7,0.3,1.4,0.6,2.2,0.7
				c-0.2,0.6-0.4,1.3-0.6,2.1c-0.2,1.1-0.3,2.2-0.3,3.3c0,1.4,0.1,2.6,0.4,3.7c0.2,1.1,0.6,2.3,1.1,3.5l1.3-0.6
				c-0.2-0.7-0.4-1.3-0.5-1.9c-0.1-0.6-0.2-1.2-0.2-1.8c-0.1-0.6-0.1-1.2-0.1-1.8c0-1.2,0.2-2.3,0.6-3.4c0.4-1.1,1-2.2,1.8-3.3
				L62,31.5c-1.3,0-2.4-0.2-3.3-0.4c-1-0.2-1.8-0.7-2.5-1.3c-0.4-0.4-0.8-0.9-1.2-1.4h10h0.8H77v7.2c0,0.6,0,1.3,0,2.1
				c0,0.6,0.1,1.1,0.1,1.6c0-0.1,0-0.2-0.1-0.2c-0.3-0.8-0.6-1.6-1.1-2.4c-0.4-0.7-1-1.4-1.6-2c-0.6-0.6-1.3-1-2-1.4
				c-0.8-0.3-1.6-0.5-2.5-0.5c-1.2,0-2.1,0.3-2.9,0.9c-0.7,0.6-1.1,1.5-1.1,2.6c0,1,0.3,1.8,0.9,2.5c0.6,0.7,1.4,1,2.6,1
				c0.6,0,1.2-0.1,1.6-0.4c0.4-0.2,0.8-0.6,1-1c0.2-0.4,0.3-0.9,0.3-1.5c0-0.3-0.1-0.6-0.1-0.9c0.5,0.1,1,0.2,1.5,0.6
				c0.5,0.4,1,0.9,1.5,1.6c0.4,0.7,0.8,1.4,1.1,2.2c0.3,0.8,0.6,1.6,0.7,2.5c0.2,0.9,0.3,1.7,0.3,2.5l1.5,1.2l0.2-0.1v-18h3.4
				L81.2,26.6z"/>
			<path d="M101.4,26.6H99l-0.2-1.4l-1.6-1.1l-0.1,0v4.7c0,0.8,0,1.5,0,2.2c0,0.5,0.1,1.2,0.1,1.9c-0.7-1.4-1.5-2.6-2.3-3.5
				c-0.8-1-1.7-1.7-2.7-2.2c-0.9-0.5-1.9-0.8-3-0.8c-1,0-1.9,0.2-2.8,0.7c-0.9,0.5-1.8,1.1-2.6,2c-0.8,0.8-1.6,1.9-2.3,3.1l2.4,2.4
				c0.3-0.2,0.6-0.4,0.9-0.6c0.3-0.1,0.7-0.2,1.1-0.2c0.3,0,0.5,0.1,0.8,0.2c0.2,0.1,0.4,0.3,0.6,0.5c0.1,0.2,0.2,0.5,0.2,0.9
				c0,0.6-0.2,1.2-0.5,1.7c-0.3,0.5-0.8,0.9-1.3,1.3l2.1,2.2l7.5-7.5c0.5,0.8,1,1.6,1.6,2.6v10.2l1.8,0.9l0.1,0V28.4h3.4L101.4,26.6
				z M86.6,31.7c-0.2,0-0.5,0-0.7,0.1c0.3-0.4,0.6-0.8,0.9-1.1c0.5-0.6,1.1-1,1.6-1.3c0.6-0.3,1.1-0.4,1.7-0.4c0.7,0,1.3,0.2,2,0.4
				c0.6,0.3,1.2,0.7,1.7,1.2l-4.6,4.7c0-0.2,0.1-0.4,0.1-0.7c0-0.9-0.2-1.7-0.7-2.2C88,32,87.4,31.7,86.6,31.7z"/>
			<path d="M119,26.6h-2.4l-0.2-1.4l-1.6-1.1l-0.1,0v18.5c-0.4-0.7-0.8-1.3-1.3-1.8c-0.6-0.7-1.3-1.3-2-1.9c-0.7-0.5-1.5-1-2.4-1.4
				c-0.2-0.1-0.4-0.2-0.5-0.2c0.5-0.2,1-0.4,1.5-0.6c0.8-0.4,1.4-1,1.9-1.8c0.4-0.7,0.7-1.7,0.7-2.8c0-1.1-0.2-2.1-0.7-3
				c-0.5-0.8-1.2-1.5-2-2c-0.8-0.5-1.8-0.7-2.9-0.7c-0.9,0-1.7,0.2-2.4,0.4c-0.7,0.3-1.2,0.7-1.5,1.2s-0.5,1.1-0.5,1.8
				c0,1,0.3,1.7,0.8,2.2c0.5,0.5,1.1,0.7,1.9,0.7c0.7,0,1.3-0.2,1.7-0.6c0.4-0.4,0.6-0.9,0.6-1.6c0-0.5-0.1-0.9-0.3-1.2
				c-0.1-0.2-0.2-0.3-0.3-0.4c0.1,0,0.1-0.1,0.2-0.1c0.3-0.2,0.7-0.2,1.1-0.2c0.7,0,1.3,0.2,1.8,0.7c0.5,0.5,0.7,1.1,0.7,1.9
				c0,0.8-0.2,1.4-0.7,1.9c-0.4,0.5-1,0.9-1.7,1.2c-0.7,0.3-1.4,0.5-2.2,0.6c-0.8,0.1-1.6,0.1-2.3,0.1l1.3,3.8
				c1.5,0.1,2.9,0.5,4.1,1c1.2,0.5,2.4,1.2,3.3,2.1c1,0.9,1.8,1.9,2.6,3.1l1.6,1.2l0.2,0v-18h3.4L119,26.6z"/>
		</g>
	</g>
	<path d="M82.9,11.3l-0.5-0.7c-0.2-0.3-0.5-0.4-0.8-0.4H67.8C68,9.9,68,9.4,67.7,9.1c-0.5-0.5-1-1.1-1.6-1.5
		c-0.6-0.5-1.2-0.9-1.7-1.2c-0.6-0.4-1.2-0.6-1.8-0.8c-0.6-0.2-1.3-0.3-1.9-0.3c-0.8,0-1.6,0.2-2.3,0.5c-0.7,0.3-1.3,0.8-1.9,1.4
		c-0.6,0.6-1,1.3-1.4,2.2c-0.1,0.3-0.1,0.7,0.1,1h-7.9c-0.1-0.8-0.4-1.4-0.7-1.8c-0.4-0.5-1.1-1.2-2.5-1.2c-0.3,0-0.6,0-0.9,0.1
		c-0.2,0-0.5,0.1-0.7,0.1c-0.2,0-0.5,0-0.8,0c-0.4,0-0.6,0-0.7-0.1c0,0,0,0,0,0c0,0-0.1-0.2-0.1-0.7c0-0.1,0-0.1,0-0.2
		c0-0.1,0-0.2,0-0.2c0-0.3,0-0.5-0.2-0.7c-0.2-0.2-0.4-0.3-0.7-0.4l-0.6-0.1c0,0-0.1,0-0.1,0c-0.4,0-0.8,0.3-0.9,0.8
		c0,0.2-0.1,0.3-0.1,0.5c0,0.2,0,0.3,0,0.5c0,0.7,0.1,1.3,0.3,1.8c0.3,0.6,0.7,1,1.2,1.3c0.5,0.3,1.1,0.4,1.7,0.4
		c0.4,0,0.7,0,1.1-0.1c0.3,0,0.5-0.1,0.8-0.1c0.2,0,0.5,0,0.8,0c0.1,0,0.2,0,0.3,0.1c0,0,0.1,0.1,0.1,0.1c-0.5,0.1-0.9,0.3-1.3,0.5
		c-0.6,0.4-1.2,0.9-1.7,1.5c-0.5,0.6-0.8,1.4-1.1,2.2c-0.2,0.8-0.4,1.6-0.4,2.5c0,1.3,0.2,2.4,0.6,3.4c0.4,1,1,1.7,1.6,2.3
		c0.7,0.6,1.5,0.8,2.3,0.8c0.8,0,1.4-0.3,1.6-0.6c0.4-0.4,0.6-1,0.6-1.6c0-0.6-0.2-1.1-0.5-1.5c-0.3-0.3-0.8-0.7-1.6-0.7
		c-0.5,0-1,0.2-1.4,0.5c0,0-0.1,0.1-0.1,0.1c-0.1-0.2-0.2-0.4-0.2-0.6c-0.2-0.5-0.2-1.1-0.2-1.7c0-0.7,0.1-1.3,0.3-1.9
		c0.2-0.6,0.5-1.1,0.8-1.5c0.3-0.4,0.7-0.7,1.1-1c0.3-0.2,0.7-0.3,1-0.3h1.2v5.7c0,0.3,0.2,0.6,0.4,0.8l0.6,0.4
		c0.2,0.1,0.3,0.2,0.5,0.2c0.3,0,0.5-0.1,0.7-0.3c0.5-0.6,1.1-1.1,1.7-1.6c0.3-0.3,0.6-0.5,0.9-0.8c0,0.3-0.1,0.7-0.1,1.1
		c0,0.8,0.1,1.6,0.3,2.4c0.2,0.8,0.4,1.5,0.7,2.2c0.1,0.2,0.3,0.4,0.5,0.5c0.1,0,0.2,0.1,0.4,0.1c0.1,0,0.3,0,0.4-0.1l0.5-0.2
		c0.5-0.2,0.7-0.7,0.5-1.2c-0.1-0.4-0.2-0.7-0.3-1.1c-0.1-0.3-0.2-0.7-0.2-1c-0.1-0.4-0.1-0.8-0.1-1.2c0-0.7,0.1-1.3,0.3-2
		c0.2-0.6,0.4-1.1,0.7-1.6c0.2-0.4,0.2-0.9-0.2-1.2l-1.1-1c-0.1-0.1-0.1-0.1-0.2-0.1h2.3v9.5c0,0.3,0.2,0.7,0.5,0.8l0.7,0.4
		c0.1,0.1,0.3,0.1,0.5,0.1c0.1,0,0.2,0,0.3,0l0.1,0c0.4-0.1,0.6-0.5,0.6-0.9v-9.9h6.5v2.6c-0.4-0.4-0.8-0.7-1.3-0.9
		c-0.6-0.3-1.3-0.4-2-0.4c-0.8,0-1.4,0.2-1.9,0.6c-0.6,0.5-0.8,1.1-0.8,1.9c0,0.7,0.2,1.3,0.6,1.7c0.3,0.3,0.9,0.8,1.8,0.8
		c0.5,0,0.9-0.1,1.2-0.3c0.4-0.2,0.6-0.5,0.8-0.8c0.1-0.1,0.1-0.2,0.1-0.3c0.1,0.1,0.2,0.3,0.4,0.5c0.2,0.4,0.5,0.8,0.6,1.2
		c0.2,0.5,0.3,1,0.4,1.4c0.1,0.5,0.2,0.9,0.2,1.4c0,0.3,0.1,0.6,0.4,0.7l0.6,0.4c0.2,0.1,0.4,0.2,0.6,0.2c0.1,0,0.2,0,0.2,0l0.1,0
		c0.4-0.1,0.7-0.5,0.7-0.9v-9.7h5.7c-0.2,0.1-0.3,0.1-0.5,0.2c-0.7,0.3-1.5,0.7-2.2,1.1c-0.7,0.4-1.4,0.9-2.2,1.4
		c-0.4,0.3-0.5,0.7-0.3,1.1l0.5,1.3c0.1,0.3,0.4,0.5,0.7,0.6c0.8,0.2,1.5,0.4,2.1,0.8c0.6,0.4,1.2,0.8,1.7,1.3
		c0.5,0.5,1,1.1,1.4,1.8c0.1,0.1,0.1,0.2,0.2,0.3l0.6,0.5c0.2,0.1,0.4,0.2,0.6,0.2c0.1,0,0.2,0,0.2,0l0.1,0c0.4-0.1,0.7-0.5,0.7-0.9
		v-3.8c0.1,0.2,0.2,0.4,0.4,0.6c0.3,0.3,0.8,0.7,1.6,0.7c0.7,0,1.3-0.3,1.8-0.8c0.4-0.5,0.6-1.2,0.6-2c0-0.9-0.2-1.7-0.7-2.5
		c-0.5-0.7-1.1-1.3-1.9-1.8c0,0-0.1,0-0.1-0.1h3.1c0.4,0,0.7-0.2,0.8-0.5C83.1,12,83.1,11.6,82.9,11.3z M51.7,13.7
		c-0.5,0.3-1,0.7-1.5,1.1c-0.2,0.1-0.3,0.3-0.5,0.4v-2.4h3.4C52.7,13.1,52.2,13.4,51.7,13.7z M58.4,10.2
		C58.4,10.2,58.3,10.2,58.4,10.2c-0.1-0.2-0.2-0.3-0.3-0.4c0.1-0.2,0.3-0.4,0.4-0.6c0.3-0.3,0.7-0.6,1.1-0.9C59.9,8.1,60.4,8,60.8,8
		c0.5,0,1,0.1,1.5,0.3c0.5,0.2,1.1,0.5,1.7,0.8c0.5,0.3,1,0.7,1.5,1.1H58.4z M74.9,18.2c-0.6-0.5-1.2-1-1.9-1.4
		c-0.1,0-0.1-0.1-0.2-0.1c0,0,0.1,0,0.1-0.1c0.6-0.3,1.2-0.7,1.8-0.9c0.1,0,0.1-0.1,0.2-0.1V18.2z M77.8,16.6
		c-0.2,0.2-0.3,0.4-0.3,0.6v-1.9c0.1,0,0.2,0,0.2,0.1c0.3,0.1,0.6,0.3,0.9,0.5c0.1,0.1,0.2,0.1,0.2,0.2C78.3,16.1,78,16.4,77.8,16.6
		z"/>
	<path class="st0" d="M78.7,13.7c-0.6-0.4-1.3-0.6-2.1-0.6v-1.2h5.5l-0.5-0.7H68.8h-0.4h-8.7h-0.4h-1.3c-0.1-0.1-0.2-0.3-0.3-0.4
		c-0.1-0.2-0.2-0.3-0.3-0.5c-0.1-0.2-0.2-0.3-0.3-0.4c0.2-0.4,0.4-0.9,0.8-1.3c0.4-0.4,0.8-0.8,1.4-1.1c0.5-0.3,1.1-0.4,1.7-0.4
		c0.6,0,1.2,0.1,1.8,0.3c0.6,0.2,1.3,0.5,1.9,1c0.7,0.4,1.4,1,2.1,1.7L67,9.7c-0.5-0.5-1-1-1.5-1.4c-0.5-0.4-1.1-0.8-1.6-1.1
		c-0.5-0.3-1.1-0.6-1.6-0.7c-0.6-0.2-1.1-0.3-1.6-0.3c-0.6,0-1.3,0.1-1.9,0.4c-0.6,0.3-1.1,0.7-1.6,1.2s-0.9,1.2-1.3,1.9
		c0.2,0.2,0.4,0.5,0.7,0.7c0.2,0.3,0.5,0.5,0.7,0.7h-1.5h-0.4h-8.7h-0.3c-0.1-1-0.3-1.7-0.7-2.2c-0.4-0.5-0.9-0.8-1.7-0.8
		c-0.3,0-0.5,0-0.7,0.1c-0.2,0-0.5,0.1-0.8,0.1c-0.3,0-0.5,0-0.9,0c-0.4,0-0.7,0-1-0.1c-0.3-0.1-0.5-0.3-0.6-0.5
		c-0.1-0.3-0.2-0.6-0.2-1.1c0-0.1,0-0.2,0-0.3c0-0.1,0-0.2,0-0.3L39.2,6c0,0.1,0,0.3-0.1,0.4c0,0.2,0,0.3,0,0.4c0,0.6,0.1,1,0.3,1.4
		c0.2,0.4,0.4,0.7,0.8,0.8c0.3,0.2,0.8,0.3,1.3,0.3c0.3,0,0.7,0,0.9-0.1c0.3,0,0.6-0.1,0.8-0.1c0.3,0,0.6,0,0.9,0
		c0.3,0,0.6,0.1,0.8,0.2s0.4,0.4,0.5,0.7c0.1,0.3,0.2,0.6,0.2,1h-0.3c-0.6,0-1.2,0.2-1.7,0.5c-0.5,0.3-1,0.7-1.4,1.3
		c-0.4,0.5-0.7,1.2-0.9,1.9C41.1,15.5,41,16.3,41,17c0,1.2,0.2,2.2,0.5,3c0.3,0.8,0.8,1.4,1.4,1.9c0.6,0.4,1.1,0.6,1.7,0.6
		c0.4,0,0.7-0.1,1-0.3c0.2-0.2,0.4-0.5,0.4-0.9c0-0.3-0.1-0.6-0.3-0.9c-0.2-0.2-0.5-0.3-0.9-0.3c-0.3,0-0.6,0.1-0.8,0.3
		c-0.2,0.2-0.3,0.4-0.3,0.7c0,0.2,0,0.4,0.1,0.5c0,0.1,0,0.1,0.1,0.1c-0.4-0.2-0.7-0.4-1-0.8c-0.3-0.4-0.6-0.9-0.8-1.5
		c-0.2-0.6-0.3-1.3-0.3-2c0-0.8,0.1-1.5,0.3-2.2c0.2-0.7,0.5-1.3,0.9-1.8c0.4-0.5,0.8-0.9,1.3-1.2c0.5-0.3,1-0.4,1.5-0.4h0.7h0.4h1
		v6.7l0.6,0.4c0.6-0.6,1.1-1.2,1.7-1.7c0.6-0.5,1.2-1,1.8-1.5c0.5-0.3,0.9-0.6,1.3-0.9c-0.1,0.2-0.2,0.4-0.3,0.7
		c-0.1,0.4-0.2,0.8-0.3,1.3c-0.1,0.5-0.1,0.9-0.1,1.4c0,0.7,0.1,1.5,0.2,2.2c0.2,0.7,0.4,1.4,0.7,2.1l0.5-0.2
		c-0.1-0.4-0.2-0.8-0.4-1.1c-0.1-0.4-0.2-0.8-0.2-1.2c-0.1-0.4-0.1-0.8-0.1-1.3c0-0.8,0.1-1.5,0.3-2.2c0.2-0.7,0.5-1.3,0.8-1.8
		l-1.1-1c-0.4,0.2-0.9,0.5-1.4,0.8c-0.5,0.3-1,0.7-1.4,1.1c-0.5,0.4-0.9,0.7-1.3,1.1c-0.3,0.2-0.5,0.5-0.7,0.7v-5.5h7h0.5h1.1v10.5
		l0.7,0.4l0.1,0V11.9h1.6h0.5h6.4v5.4c0,0.3,0,0.7,0,1.1c0,0.3,0,0.6,0,1c0-0.1,0-0.2-0.1-0.3c-0.1-0.5-0.3-1-0.6-1.4
		c-0.2-0.5-0.5-0.9-0.9-1.3c-0.3-0.4-0.8-0.7-1.2-0.9c-0.5-0.2-1-0.3-1.6-0.3c-0.6,0-1,0.1-1.3,0.4c-0.3,0.3-0.5,0.7-0.5,1.2
		c0,0.4,0.1,0.8,0.4,1.1c0.3,0.3,0.6,0.4,1.1,0.4c0.3,0,0.5-0.1,0.7-0.2c0.2-0.1,0.4-0.3,0.5-0.5c0.1-0.2,0.2-0.4,0.2-0.7
		c0-0.2,0-0.4-0.1-0.6c0,0,0-0.1,0-0.1c0.4,0,0.8,0.1,1.1,0.4c0.4,0.3,0.7,0.6,1,1c0.3,0.4,0.5,0.9,0.7,1.4c0.2,0.5,0.4,1.1,0.5,1.6
		c0.1,0.5,0.2,1,0.2,1.5l0.6,0.4l0.1,0V11.9h1.6h0.4h6.6v1.2c-0.7,0.2-1.4,0.5-2.1,0.8c-0.7,0.3-1.4,0.7-2.1,1.1
		c-0.7,0.4-1.4,0.9-2.1,1.4l0.5,1.3c0.9,0.2,1.7,0.5,2.4,0.9c0.7,0.4,1.4,0.9,1.9,1.5s1.1,1.3,1.5,2l0.6,0.5l0.1,0v-8.4c0,0,0,0,0,0
		c0.5,0,1,0.1,1.5,0.2c0.5,0.2,0.8,0.4,1.2,0.7c0.3,0.3,0.6,0.6,0.8,1c0.2,0.4,0.3,0.7,0.3,1.1c0,0.1,0,0.2,0,0.3
		c-0.1-0.1-0.2-0.3-0.3-0.4c-0.2-0.2-0.4-0.2-0.6-0.2c-0.3,0-0.6,0.1-0.8,0.3c-0.2,0.2-0.3,0.5-0.3,0.8c0,0.3,0.1,0.5,0.3,0.8
		c0.2,0.2,0.5,0.3,0.9,0.3c0.4,0,0.8-0.2,1-0.5s0.4-0.8,0.4-1.4c0-0.7-0.2-1.3-0.6-1.9C79.9,14.6,79.3,14.1,78.7,13.7z M72.5,17.6
		c-0.6-0.3-1.1-0.6-1.7-0.8c0.5-0.4,1.1-0.7,1.6-1.1c0.6-0.4,1.3-0.7,1.9-1c0.5-0.2,1.1-0.4,1.6-0.6V21c-0.4-0.7-0.9-1.3-1.4-1.9
		C73.8,18.5,73.2,18,72.5,17.6z"/>
	<g>
		<linearGradient id="SVGID_1_" gradientUnits="userSpaceOnUse" x1="91.7851" y1="18.2166" x2="118.5428" y2="18.0483">
			<stop  offset="0" style="stop-color:#51BA78"/>
			<stop  offset="2.015191e-02" style="stop-color:#4EB173"/>
			<stop  offset="0.1176" style="stop-color:#438A5D"/>
			<stop  offset="0.2222" style="stop-color:#39694A"/>
			<stop  offset="0.3337" style="stop-color:#314E3B"/>
			<stop  offset="0.4546" style="stop-color:#2B392F"/>
			<stop  offset="0.5894" style="stop-color:#262A26"/>
			<stop  offset="0.7496" style="stop-color:#242221"/>
			<stop  offset="1" style="stop-color:#231F20"/>
		</linearGradient>
		<path class="st1" d="M116.1,17.1c-0.7-0.6-1.5-1-2.4-1.4c-2.4-0.9-5-1.3-7.6-1.5c-0.4,0-0.8-0.1-1.2-0.1c0-0.1,0-0.1,0-0.1
			c-1-0.1-2-0.1-3.1-0.1c-0.9,0-1.8,0-2.6,0.1c0,0,0,0.1,0.1,0.1c-0.1,0-0.2,0-0.3,0c-1.2,0.1-2.5,0.2-3.7,0.4
			c-1.8,0.2-3.6,0.6-5.3,1.3c-0.8,0.3-1.6,0.7-2.3,1.3c-0.8,0.7-0.8,1.6-0.1,2.3c0.2,0.2,0.4,0.4,0.6,0.5c0.2,0.1,0.4,0.2,0.5,0.3
			c0,0,0,0,0,0c2.6,1.2,7.5,2.1,13,2.1c6.5,0,12-1.2,14.1-2.8c0,0,0.1-0.1,0.1-0.1C117,18.7,117,17.9,116.1,17.1z M101.1,16.8
			c0.2,0.3,0.3,0.5,0.5,0.8c-0.3,0.1-0.5,0.1-0.7,0.2c-0.2,0.1-0.4,0.1-0.6,0.3c-0.2,0.2-0.2,0.4,0,0.5c0.1,0.1,0.3,0.2,0.4,0.2
			c1,0.3,2,0.3,2.9,0c0,0,0,0,0.1,0c0.2-0.1,0.4-0.2,0.5-0.4c0-0.3-0.2-0.4-0.4-0.4c-0.3-0.1-0.6-0.2-1-0.3c0.2-0.3,0.4-0.6,0.6-0.9
			c0,0,0.2-0.1,0.2-0.1c1.9,0.1,3.8,0.2,5.7,0.7c0.4,0.1,0.8,0.3,1.2,0.5c0.4,0.2,0.4,0.6,0,0.8c-0.5,0.2-1,0.4-1.5,0.6
			c-1.4,0.4-2.9,0.5-4.3,0.6c-2,0.1-3.9,0.1-5.9-0.1c-1.3-0.1-2.7-0.3-4-0.7c-0.3-0.1-0.5-0.2-0.7-0.4c-0.3-0.2-0.3-0.5,0-0.8
			c0.2-0.2,0.5-0.3,0.8-0.4c1.1-0.4,2.2-0.5,3.3-0.6c0.8-0.1,1.7-0.1,2.5-0.2C100.8,16.6,101,16.6,101.1,16.8z M114.1,19.2
			c-0.8,0.6-1.8,0.9-2.8,1.1c-1.7,0.4-3.4,0.7-5.1,0.8c-1.8,0.2-3.7,0.2-5.6,0.1c-2.7-0.1-5.4-0.3-8-1.1c-0.9-0.2-1.7-0.5-2.5-1.1
			c-0.1,0-0.2-0.1-0.2-0.2c-0.7-0.6-0.7-1.3,0-1.8c0.5-0.4,1-0.7,1.6-0.9c1.5-0.6,3.1-0.9,4.7-1.1c1.1-0.1,2.2-0.2,3.4-0.3
			c0.1,0,0.3,0.1,0.3,0.2c0.2,0.3,0.3,0.5,0.5,0.9c-0.7,0-1.4,0.1-2,0.1c-1.7,0.1-3.4,0.3-5,0.8c-0.5,0.1-1,0.3-1.4,0.6
			c-0.8,0.4-0.8,1,0,1.4c0.8,0.5,1.8,0.7,2.7,0.9c1.6,0.3,3.3,0.5,5,0.6c1.9,0.1,3.9,0.1,5.8-0.1c1.7-0.1,3.5-0.3,5.1-0.9
			c0.5-0.1,0.9-0.3,1.3-0.6c0.6-0.4,0.6-0.9,0-1.3c-0.6-0.4-1.3-0.6-2.1-0.8c-1.8-0.4-3.6-0.6-5.4-0.7c-0.2,0-0.5,0-0.7,0
			c0,0,0,0-0.1,0c0.2-0.3,0.4-0.6,0.6-0.9c0,0,0.1-0.1,0.2-0.1c2.7,0.2,5.4,0.4,8,1.3c0.5,0.2,1,0.4,1.5,0.7
			C115.1,17.7,115.1,18.5,114.1,19.2z"/>
		<g>
			<ellipse class="st0" cx="102.1" cy="5.8" rx="3.7" ry="3.7"/>
			<path class="st2" d="M104.4,7.4c-0.6-0.4-1.3-0.7-1.9-1.1c-0.4-0.3-0.8-0.3-1.3,0c-0.5,0.4-1.1,0.7-1.7,1
				c0.8-1.4,1.6-2.7,2.4-4.2C102.8,4.5,103.7,5.9,104.4,7.4C104.5,7.4,104.4,7.4,104.4,7.4z"/>
			<path class="st3" d="M106,1.3c0,0-4.3-3.4-8.6,0.8c0,0-3.2,2.7-0.1,8.2c3.1,5.5,4.8,8.3,5,8.3c0.3,0,4.1-6.8,4.5-7.9
				C107.2,9.5,110.2,5,106,1.3z M102,9.1c-1.8,0-3.2-1.4-3.2-3.2s1.4-3.2,3.2-3.2c1.8,0,3.2,1.4,3.2,3.2S103.8,9.1,102,9.1z"/>
		</g>
	</g>
	<path class="st4" d="M116.1,60H43c-2.7,0-4.9-2.2-4.9-4.9v-0.2c0-2.7,2.2-4.9,4.9-4.9h73.1c2.7,0,4.9,2.2,4.9,4.9v0.2
		C121.1,57.8,118.9,60,116.1,60z"/>
	<g>
		<linearGradient id="SVGID_2_" gradientUnits="userSpaceOnUse" x1="51.8877" y1="55.9534" x2="51.8877" y2="51.7044">
			<stop  offset="0" style="stop-color:#FF0000"/>
			<stop  offset="4.602104e-02" style="stop-color:#E30404"/>
			<stop  offset="0.1283" style="stop-color:#B60A0B"/>
			<stop  offset="0.2165" style="stop-color:#8E1010"/>
			<stop  offset="0.3095" style="stop-color:#6D1515"/>
			<stop  offset="0.4084" style="stop-color:#521819"/>
			<stop  offset="0.5157" style="stop-color:#3D1B1C"/>
			<stop  offset="0.6355" style="stop-color:#2E1D1E"/>
			<stop  offset="0.7777" style="stop-color:#261F20"/>
			<stop  offset="1" style="stop-color:#231F20"/>
		</linearGradient>
		<path class="st5" d="M61,51.8c-0.1-0.1-0.2-0.2-0.4-0.2H42.9c-0.2,0-0.3,0.1-0.4,0.2c-0.1,0.1-0.1,0.3,0,0.4l0.6,0.8
			c0.1,0.1,0.2,0.2,0.4,0.2c0,0,0.1,0,0.1,0c0.1,0,0.1,0,0.2,0c0.1,0,0.2,0,0.3,0c0.2,0,0.5,0,0.7,0.1c0.2,0.1,0.4,0.2,0.5,0.3
			c0.2,0.1,0.3,0.3,0.4,0.6c0.1,0.2,0.1,0.4,0.1,0.7c-0.1,0.2-0.2,0.3-0.2,0.4c-0.1,0.2-0.3,0.3-0.3,0.3c-0.1,0-0.1,0.1-0.2,0.1
			c0,0-0.1,0-0.1,0c-0.1,0-0.2-0.1-0.2-0.2c-0.1-0.1-0.2-0.2-0.3-0.4C44.4,55,44.2,55,44,55c-0.1,0-0.1,0-0.2,0l-0.3,0.1
			c-0.2,0.1-0.3,0.4-0.2,0.6c0.1,0.3,0.3,0.5,0.5,0.7c0.2,0.2,0.4,0.4,0.6,0.6c0.3,0.1,0.5,0.2,0.8,0.2c0.3,0,0.5-0.1,0.8-0.2
			c0.2-0.1,0.5-0.3,0.7-0.6c0.2-0.2,0.3-0.5,0.5-0.9c0.2-0.3,0.3-0.5,0.4-0.7c0.1-0.1,0.2-0.2,0.2-0.2c0,0,0.1,0.1,0.2,0.2
			c0.1,0.1,0.1,0.1,0.2,0.2v3.2c0,0.2,0.1,0.3,0.2,0.4l0.4,0.2c0.1,0,0.2,0,0.2,0c0.1,0,0.1,0,0.2,0c0.2-0.1,0.3-0.2,0.3-0.4v-5.7h1
			l-0.3,0.1c-0.2,0.1-0.4,0.3-0.3,0.5c0.3,0.8,0.5,1.5,0.8,2c0.3,0.6,0.7,1.1,1,1.4c0.4,0.4,0.8,0.7,1.3,0.8
			c0.5,0.2,0.9,0.3,1.4,0.3c0.5,0,0.9-0.1,1.3-0.3c0.4-0.2,0.7-0.5,1-0.8c0.2-0.4,0.3-0.8,0.4-1.3c0-0.5-0.1-0.9-0.3-1.3
			c-0.2-0.4-0.6-0.8-1-1c-0.4-0.3-1-0.4-1.6-0.4c-0.5,0-1,0.1-1.3,0.4c-0.3,0.3-0.5,0.6-0.5,1c0,0.3,0.1,0.6,0.4,0.9
			c0.2,0.2,0.5,0.4,1.1,0.4c0.5,0,0.8-0.2,1-0.4c0.2-0.2,0.3-0.4,0.3-0.7c0.1,0.1,0.2,0.2,0.3,0.3c0.1,0.2,0.2,0.4,0.2,0.7
			c0,0.4-0.1,0.6-0.3,0.8c-0.2,0.2-0.5,0.3-0.9,0.3c-0.4,0-0.8-0.1-1.2-0.3c-0.4-0.2-0.7-0.6-1.1-1c-0.4-0.5-0.7-1.2-1-2.1
			c0-0.1-0.1-0.2-0.2-0.3c0,0,0,0,0,0h7.2c-0.1,0.1-0.1,0.2-0.2,0.4c-0.1,0.3-0.2,0.6-0.2,0.9c0,0.3,0.1,0.6,0.2,0.9
			c0.1,0.2,0.2,0.5,0.4,0.7c0.1,0.2,0.2,0.4,0.3,0.6c0.1,0.2,0.1,0.3,0.1,0.5c0,0.2-0.1,0.5-0.2,0.6c-0.1,0.2-0.3,0.4-0.6,0.6
			c-0.1,0.1-0.2,0.2-0.2,0.3c0,0.1,0,0.2,0.1,0.3l0.2,0.3C58,59,58.2,59,58.3,59c0.1,0,0.2,0,0.3-0.1c0.4-0.2,0.8-0.6,1.1-0.9
			c0.3-0.4,0.5-0.9,0.5-1.4c0-0.3-0.1-0.6-0.2-0.9c-0.1-0.2-0.2-0.5-0.4-0.7c-0.1-0.2-0.2-0.4-0.3-0.6c-0.1-0.2-0.1-0.3-0.1-0.5
			c0-0.2,0-0.4,0.1-0.5c0.1-0.2,0.2-0.3,0.3-0.4c0.1-0.1,0.1-0.1,0.2-0.2h1c0.2,0,0.3-0.1,0.4-0.2c0.1-0.1,0.1-0.3,0-0.4L61,51.8z
			 M47.5,53.3c-0.2,0-0.3,0-0.5,0.1c-0.1,0-0.1,0.1-0.2,0.1c-0.1-0.2-0.3-0.5-0.4-0.7l1.7,0c0,0,0,0.5,0,0.6
			C47.9,53.3,47.7,53.3,47.5,53.3z"/>
		<linearGradient id="SVGID_3_" gradientUnits="userSpaceOnUse" x1="81.5298" y1="55.9534" x2="81.5298" y2="51.7044">
			<stop  offset="0" style="stop-color:#FF0000"/>
			<stop  offset="4.602104e-02" style="stop-color:#E30404"/>
			<stop  offset="0.1283" style="stop-color:#B60A0B"/>
			<stop  offset="0.2165" style="stop-color:#8E1010"/>
			<stop  offset="0.3095" style="stop-color:#6D1515"/>
			<stop  offset="0.4084" style="stop-color:#521819"/>
			<stop  offset="0.5157" style="stop-color:#3D1B1C"/>
			<stop  offset="0.6355" style="stop-color:#2E1D1E"/>
			<stop  offset="0.7777" style="stop-color:#261F20"/>
			<stop  offset="1" style="stop-color:#231F20"/>
		</linearGradient>
		<path class="st6" d="M99.8,51.8c-0.1-0.1-0.2-0.2-0.4-0.2H82.8l0,0c0-0.1-0.1-0.2-0.2-0.3L82.2,51C82.1,51,82,51,81.9,51
			c-0.1,0-0.1,0-0.2,0c-0.2,0-0.4,0.2-0.4,0.4v0.3c-0.1,0-0.2,0-0.3,0h-6.8l0,0c0-0.1-0.1-0.2-0.2-0.3L73.6,51
			C73.6,51,73.4,51,73.3,51c-0.1,0-0.1,0-0.1,0c-0.2,0-0.4,0.2-0.4,0.4v0.3c-0.1,0-0.2,0-0.3,0h-9.1c-0.2,0-0.3,0.1-0.4,0.2
			c-0.1,0.1-0.1,0.3,0,0.4l0.3,0.4c0.1,0.1,0.2,0.2,0.4,0.2h2.5c0.1,0,0.2,0.1,0.3,0.1c-0.1,0-0.1,0.1-0.1,0.1
			c-0.2,0.2-0.5,0.5-0.5,1c0,0.4,0.1,0.7,0.4,0.9c0.3,0.2,0.6,0.3,1,0.3c0.5,0,0.8-0.2,1-0.4c0.1-0.2,0.2-0.3,0.3-0.5
			c0.1,0.1,0.2,0.1,0.2,0.2c0.1,0.1,0.1,0.3,0.1,0.6c0,0.4-0.1,0.6-0.3,0.8c-0.2,0.2-0.5,0.3-0.9,0.3c-0.3,0-0.7-0.1-1-0.2
			c-0.3-0.2-0.6-0.5-0.9-0.9c-0.3-0.4-0.6-1.1-0.9-1.9c0-0.1-0.1-0.2-0.2-0.3c-0.1,0-0.1,0-0.2,0c-0.1,0-0.1,0-0.1,0L63.8,53
			c-0.2,0.1-0.4,0.3-0.3,0.5c0.2,0.8,0.5,1.4,0.8,2c0.3,0.5,0.6,1,1,1.3c0.4,0.3,0.7,0.6,1.1,0.7c0.4,0.1,0.8,0.2,1.2,0.2
			c0.4,0,0.8-0.1,1.1-0.2c0.3-0.1,0.5-0.2,0.7-0.4c0.1,0.1,0.3,0.2,0.4,0.3c0.3,0.3,0.5,0.6,0.7,0.9c0,0.1,0.1,0.1,0.1,0.1l0.4,0.3
			c0.1,0.1,0.2,0.1,0.3,0.1c0.1,0,0.1,0,0.1,0c0.2,0,0.4-0.2,0.4-0.4v-5.6h0.6c0.1,0,0.1,0,0.2,0.1c0.1,0.1,0.1,0.3,0.2,0.5v4.9
			c0,0.2,0.1,0.3,0.2,0.4l0.4,0.2c0.1,0,0.2,0,0.2,0c0.1,0,0.1,0,0.2,0c0.2-0.1,0.3-0.2,0.3-0.4v-5.7h0.3c0,0.2,0.1,0.4,0.2,0.5
			c0.1,0.2,0.3,0.3,0.5,0.5c0.2,0.1,0.5,0.2,0.8,0.3c0.3,0.1,0.5,0.2,0.5,0.2c0.1,0.1,0.1,0.1,0.2,0.2c0,0,0,0,0,0
			c-0.4,0-0.7,0.1-1,0.3c-0.3,0.2-0.4,0.5-0.4,0.9c0,0.5,0.2,0.7,0.4,0.9c0.3,0.2,0.6,0.3,1,0.3c0.4,0,0.7-0.1,1-0.3
			c0.1-0.1,0.1-0.1,0.2-0.2c0.1,0.1,0.1,0.1,0.2,0.2c0.1,0.2,0.3,0.4,0.4,0.6c0.1,0.3,0.2,0.5,0.3,0.9c0,0.1,0.1,0.2,0.2,0.2
			l0.4,0.3c0.1,0.1,0.2,0.1,0.3,0.1c0.1,0,0.1,0,0.1,0c0.2,0,0.4-0.2,0.4-0.4v-5.6H81c0.1,0,0.1,0,0.2,0.1c0.1,0.1,0.1,0.3,0.2,0.5
			v4.9c0,0.2,0.1,0.3,0.2,0.4l0.4,0.2c0.1,0,0.2,0,0.2,0c0.1,0,0.1,0,0.2,0c0.2-0.1,0.3-0.2,0.3-0.4v-5.7h1.7
			c-0.2,0.3-0.4,0.6-0.6,1c-0.2,0.5-0.3,1-0.3,1.6c0,0.7,0.1,1.3,0.4,1.8c0.2,0.5,0.6,0.9,1,1.2c0.4,0.3,0.9,0.5,1.4,0.5
			c0.4,0,0.7-0.1,1-0.3c0.2-0.2,0.4-0.5,0.4-0.8c0-0.3-0.1-0.6-0.3-0.8c-0.2-0.2-0.4-0.3-0.9-0.3c-0.3,0-0.6,0.1-0.8,0.3
			c-0.1,0.1-0.1,0.1-0.2,0.2c-0.1-0.1-0.2-0.3-0.2-0.5c-0.1-0.3-0.2-0.6-0.2-1c0-0.4,0.1-0.7,0.2-1c0.1-0.3,0.3-0.6,0.5-0.9
			c0.2-0.2,0.5-0.4,0.7-0.6c0.2-0.1,0.5-0.2,0.7-0.2h0.8v3.3c0,0.1,0.1,0.3,0.2,0.4l0.4,0.2c0.1,0,0.2,0.1,0.3,0.1
			c0.1,0,0.3,0,0.4-0.1c0.3-0.3,0.7-0.6,1.1-0.9c0.3-0.2,0.6-0.4,0.8-0.6c0,0,0,0,0,0c0,0.3-0.1,0.6-0.1,0.8c0,0.4,0.1,0.9,0.2,1.3
			c0.1,0.4,0.3,0.8,0.4,1.2c0,0.1,0.1,0.2,0.3,0.2c0.1,0,0.1,0,0.2,0c0.1,0,0.1,0,0.2,0l0.3-0.1c0.2-0.1,0.3-0.3,0.3-0.5
			c-0.1-0.2-0.2-0.4-0.2-0.6c-0.1-0.2-0.1-0.4-0.1-0.6c0-0.2-0.1-0.4-0.1-0.7c0-0.4,0.1-0.8,0.2-1.1c0.1-0.3,0.3-0.6,0.4-0.9
			c0.1-0.2,0.1-0.4-0.1-0.5l-0.7-0.6C92.4,53,92.2,53,92.1,53c-0.1,0-0.2,0-0.2,0c-0.3,0.1-0.6,0.3-0.9,0.5
			c-0.3,0.2-0.6,0.4-0.9,0.6c-0.2,0.1-0.3,0.2-0.5,0.4v-1.7h7.8c-0.3,0.1-0.6,0.2-0.9,0.3c-0.5,0.2-0.9,0.4-1.4,0.6
			c-0.4,0.2-0.9,0.5-1.4,0.8c-0.2,0.1-0.3,0.3-0.2,0.5l0.3,0.7c0.1,0.1,0.2,0.2,0.3,0.3c0.5,0.1,1,0.3,1.4,0.5c0,0,0.1,0,0.1,0.1
			c0,0,0,0,0,0c-0.1,0-0.2,0-0.3,0.1c0,0,0,0,0,0c-0.1,0-0.2,0.1-0.2,0.1c-0.2,0.2-0.3,0.4-0.3,0.7c0,0.3,0.1,0.5,0.3,0.7
			c0.2,0.2,0.5,0.3,0.8,0.3c0.3,0,0.5-0.1,0.7-0.2c0.1,0,0.1-0.1,0.1-0.1c0,0,0.1-0.1,0.1-0.1c0,0,0,0,0,0c0.1-0.1,0.1-0.2,0.1-0.3
			c0.1,0.1,0.2,0.2,0.3,0.3c0.1,0.1,0.2,0.3,0.3,0.4c0,0,0.1,0.1,0.1,0.1l0.4,0.3c0.1,0.1,0.2,0.1,0.3,0.1c0.1,0,0.1,0,0.1,0
			c0.2,0,0.4-0.2,0.4-0.4v-5.6h0.8c0.2,0,0.3-0.1,0.4-0.2c0.1-0.1,0.1-0.3,0-0.4L99.8,51.8z M70.4,56.1c-0.1-0.1-0.2-0.2-0.3-0.2
			c0.1-0.2,0.1-0.4,0.1-0.7c0-0.5-0.1-0.9-0.3-1.3c-0.2-0.4-0.5-0.7-1-0.9c-0.2-0.1-0.3-0.2-0.5-0.2h2V56.1z M78.9,55.5
			C78.9,55.5,78.8,55.4,78.9,55.5c-0.2-0.2-0.3-0.3-0.5-0.4c0,0,0,0,0-0.1c0-0.3,0-0.5-0.1-0.8c-0.1-0.2-0.3-0.5-0.5-0.7
			c-0.2-0.2-0.5-0.3-0.9-0.5c-0.3-0.1-0.4-0.2-0.5-0.3c0,0,0,0,0,0h2.6V55.5z M96,55c0.4-0.2,0.8-0.4,1.1-0.5c0.1,0,0.2-0.1,0.3-0.1
			v1.9c0,0,0,0-0.1-0.1c-0.4-0.4-0.8-0.7-1.3-0.9c-0.1-0.1-0.2-0.1-0.3-0.2C95.8,55.1,95.9,55,96,55z"/>
		<linearGradient id="SVGID_4_" gradientUnits="userSpaceOnUse" x1="109.4846" y1="55.9534" x2="109.4846" y2="51.7044">
			<stop  offset="0" style="stop-color:#FF0000"/>
			<stop  offset="4.602104e-02" style="stop-color:#E30404"/>
			<stop  offset="0.1283" style="stop-color:#B60A0B"/>
			<stop  offset="0.2165" style="stop-color:#8E1010"/>
			<stop  offset="0.3095" style="stop-color:#6D1515"/>
			<stop  offset="0.4084" style="stop-color:#521819"/>
			<stop  offset="0.5157" style="stop-color:#3D1B1C"/>
			<stop  offset="0.6355" style="stop-color:#2E1D1E"/>
			<stop  offset="0.7777" style="stop-color:#261F20"/>
			<stop  offset="1" style="stop-color:#231F20"/>
		</linearGradient>
		<path class="st7" d="M116.6,52.2l-0.3-0.4c-0.1-0.1-0.2-0.2-0.4-0.2h-0.6l0,0c0-0.1-0.1-0.2-0.2-0.3l-0.4-0.2
			c-0.1-0.1-0.2-0.1-0.3-0.1c-0.1,0-0.1,0-0.1,0c-0.2,0-0.4,0.2-0.4,0.4v4.8c-0.2-0.2-0.4-0.3-0.5-0.4c-0.2-0.2-0.4-0.3-0.7-0.4
			c0.3-0.2,0.6-0.4,0.8-0.7c0.2-0.3,0.3-0.7,0.3-1.1c0-0.4-0.1-0.8-0.3-1.1c-0.2-0.3-0.5-0.5-0.9-0.7c-0.3-0.2-0.7-0.2-1.1-0.2
			c-0.4,0-0.7,0.1-1,0.2c-0.1,0.1-0.2,0.1-0.3,0.2l-0.1-0.2c-0.1-0.1-0.2-0.2-0.4-0.2h-0.6l0,0c0-0.1-0.1-0.2-0.2-0.3l-0.4-0.2
			c-0.1-0.1-0.2-0.1-0.3-0.1c-0.1,0-0.1,0-0.1,0c-0.2,0-0.4,0.2-0.4,0.4v1.3c-0.3-0.3-0.7-0.6-1-0.8c-0.4-0.2-0.9-0.3-1.3-0.3
			c-0.4,0-0.8,0.1-1.2,0.3c-0.4,0.2-0.7,0.4-1,0.7c-0.3,0.3-0.6,0.6-0.8,1c-0.1,0.2-0.1,0.4,0.1,0.5l0.6,0.5
			c0.1,0.1,0.2,0.1,0.3,0.1c0.1,0,0.2,0,0.3-0.1c0.1,0,0.2-0.1,0.2-0.1c0,0,0.1,0,0.3,0c0.1,0,0.1,0,0.1,0c0,0,0,0,0.1,0.1
			c0,0.1,0,0.1,0,0.2c0,0.2,0,0.3-0.1,0.4c-0.1,0.1-0.2,0.2-0.3,0.3c-0.2,0.2-0.2,0.4,0,0.6l0.5,0.4c0.1,0.1,0.2,0.1,0.3,0.1
			c0,0,0,0,0,0c0.1,0,0.3,0,0.3-0.1l2.3-2.1c0.1,0.1,0.2,0.3,0.3,0.4v3.5c0,0.2,0.1,0.3,0.2,0.4l0.4,0.2c0.1,0,0.2,0.1,0.2,0.1
			c0.1,0,0.1,0,0.2,0c0.2-0.1,0.3-0.2,0.3-0.4v-5.7h0.4c0,0.1,0,0.1,0,0.2c0,0.4,0.1,0.6,0.4,0.8c0.2,0.2,0.5,0.3,0.9,0.3
			c0.4,0,0.7-0.2,0.8-0.3c0.2-0.2,0.3-0.4,0.3-0.7c0-0.1,0-0.2,0-0.3c0.2,0,0.3,0.1,0.4,0.1c0.1,0.1,0.2,0.3,0.2,0.4
			c0,0.1,0,0.3-0.1,0.4c-0.1,0.1-0.2,0.2-0.4,0.3c-0.2,0.1-0.4,0.2-0.7,0.2c-0.3,0-0.5,0.1-0.8,0.1c-0.2,0-0.3,0.1-0.4,0.2
			c-0.1,0.1-0.1,0.3-0.1,0.4l0.3,0.8c0.1,0.1,0.2,0.2,0.4,0.3c0.5,0.1,1,0.2,1.4,0.4c0.4,0.2,0.8,0.5,1.1,0.8
			c0.3,0.3,0.6,0.7,0.9,1.1c0,0,0.1,0.1,0.1,0.1l0.4,0.3c0.1,0.1,0.2,0.1,0.3,0.1c0.1,0,0.1,0,0.1,0c0.2,0,0.4-0.2,0.4-0.4v-5.6h0.8
			c0.2,0,0.3-0.1,0.4-0.2C116.7,52.5,116.7,52.3,116.6,52.2z M105.6,54.1c-0.1-0.2-0.2-0.3-0.3-0.5c-0.1-0.1-0.3-0.3-0.5-0.4
			c0.1-0.1,0.2-0.1,0.3-0.2c0.2-0.1,0.3-0.1,0.5-0.1c0.2,0,0.4,0,0.5,0.1c0.1,0.1,0.3,0.1,0.4,0.2L105.6,54.1z"/>
	</g>
	<g>
		<path class="st0" d="M55.5,53.6c-0.4-0.2-0.8-0.3-1.3-0.3c-0.4,0-0.7,0.1-0.9,0.3c-0.2,0.2-0.3,0.4-0.3,0.7c0,0.2,0.1,0.4,0.2,0.6
			c0.2,0.2,0.4,0.2,0.7,0.2c0.3,0,0.5-0.1,0.6-0.2c0.1-0.1,0.2-0.3,0.2-0.6c0-0.1,0-0.3-0.1-0.4c0,0,0,0,0,0c0,0,0,0,0,0
			c0.2,0,0.5,0.1,0.7,0.2c0.2,0.1,0.4,0.3,0.6,0.5c0.2,0.2,0.2,0.5,0.2,0.9c0,0.5-0.2,0.9-0.5,1.1C55.4,56.8,55,57,54.4,57
			c-0.5,0-1-0.1-1.4-0.4c-0.4-0.2-0.9-0.6-1.3-1.2c-0.4-0.5-0.7-1.3-1.1-2.2l-0.4,0.1c0.2,0.8,0.5,1.4,0.8,2c0.3,0.5,0.6,1,1,1.3
			c0.3,0.3,0.7,0.6,1.1,0.7c0.4,0.2,0.8,0.2,1.2,0.2c0.4,0,0.8-0.1,1.1-0.2c0.3-0.1,0.6-0.4,0.8-0.7c0.2-0.3,0.3-0.7,0.3-1.1
			c0-0.4-0.1-0.8-0.3-1.2C56.1,54.1,55.9,53.8,55.5,53.6z"/>
		<path class="st0" d="M59.3,52.7c0.1-0.1,0.2-0.2,0.4-0.3h1.2L60.6,52h-3.3H57h-7h-0.3h-6.9l0.6,0.8c0.1,0,0.2,0,0.2,0
			c0.1,0,0.2,0,0.3,0c0.3,0,0.6,0,0.8,0.1c0.3,0.1,0.5,0.2,0.7,0.4s0.4,0.4,0.5,0.7c0.1,0.3,0.2,0.6,0.2,1c-0.1,0.2-0.2,0.4-0.3,0.6
			c-0.1,0.2-0.3,0.4-0.4,0.5c-0.1,0.1-0.3,0.1-0.5,0.1c-0.1,0-0.3,0-0.4-0.1c-0.1-0.1-0.2-0.2-0.4-0.3c-0.1-0.1-0.2-0.3-0.3-0.4
			l-0.3,0.1c0.1,0.3,0.3,0.5,0.4,0.7c0.2,0.2,0.3,0.3,0.5,0.4c0.2,0.1,0.4,0.2,0.6,0.2c0.2,0,0.4,0,0.6-0.1c0.2-0.1,0.3-0.2,0.5-0.4
			c0.2-0.2,0.3-0.5,0.5-0.8c0.2-0.3,0.3-0.6,0.4-0.7c0.1-0.2,0.2-0.3,0.3-0.3c0.1-0.1,0.2-0.1,0.3-0.1c0.1,0,0.2,0,0.3,0.1
			c0.1,0.1,0.2,0.2,0.3,0.3c0.1,0.1,0.2,0.2,0.3,0.3v3.3l0.4,0.2l0,0v-6.1h1h0.3h7h0.3h1.5c-0.1,0.1-0.3,0.2-0.4,0.4
			c-0.2,0.2-0.3,0.4-0.4,0.6s-0.1,0.5-0.1,0.7c0,0.3,0,0.5,0.1,0.7s0.2,0.4,0.3,0.7c0.1,0.2,0.2,0.4,0.3,0.6
			c0.1,0.2,0.1,0.4,0.1,0.7c0,0.3-0.1,0.6-0.3,0.9c-0.2,0.3-0.4,0.5-0.8,0.7l0.2,0.3c0.4-0.2,0.7-0.5,1-0.8c0.3-0.3,0.4-0.7,0.4-1.1
			c0-0.3,0-0.5-0.1-0.7c-0.1-0.2-0.2-0.4-0.3-0.6c-0.1-0.2-0.2-0.4-0.3-0.6c-0.1-0.2-0.1-0.4-0.1-0.7c0-0.2,0-0.5,0.1-0.7
			C59,53.1,59.1,52.9,59.3,52.7z M48,53.8c-0.1-0.1-0.3-0.1-0.4-0.1c-0.1,0-0.2,0-0.3,0.1c-0.1,0-0.2,0.1-0.4,0.3
			c-0.1,0.1-0.2,0.2-0.3,0.4c0-0.3-0.1-0.5-0.1-0.7c-0.1-0.3-0.3-0.5-0.5-0.7c-0.2-0.2-0.5-0.4-0.8-0.5c-0.1,0-0.3-0.1-0.4-0.1
			l3.9,0v0.8c0,0.2,0,0.3,0,0.5c0,0.2,0,0.4,0,0.5c0,0.1,0,0.2,0,0.3c-0.1-0.2-0.2-0.3-0.3-0.4C48.2,54,48.1,53.9,48,53.8z"/>
		<path class="st0" d="M95.9,57c-0.2,0-0.3,0-0.4,0.1c-0.1,0.1-0.2,0.2-0.2,0.4s0.1,0.3,0.2,0.4c0.1,0.1,0.3,0.1,0.4,0.1
			c0.2,0,0.3,0,0.4-0.1c0.1-0.1,0.2-0.2,0.2-0.4c0-0.2-0.1-0.3-0.2-0.4C96.2,57.1,96,57,95.9,57z"/>
		<path class="st0" d="M93.5,52h-0.3h-5.5h-0.3h-4.1h-0.3h-0.7l0-0.4l-0.4-0.2l0,0v0.7c0,0.1,0,0.2,0,0.4c0,0.1,0,0.1,0,0.2
			c0-0.1-0.1-0.1-0.1-0.2c-0.1-0.2-0.2-0.3-0.4-0.3C81.3,52.1,81.2,52,81,52h-0.2h-0.3h-5.8h-0.3h-0.7l0-0.4l-0.4-0.2l0,0v0.7
			c0,0.1,0,0.2,0,0.4c0,0.1,0,0.1,0,0.2c0-0.1-0.1-0.1-0.1-0.2c-0.1-0.2-0.2-0.3-0.4-0.3c-0.1-0.1-0.3-0.1-0.4-0.1H72h-0.1h-8.5
			l0.3,0.4h2.6c0.3,0.1,0.5,0.2,0.7,0.3c0.2,0.1,0.3,0.3,0.4,0.4c-0.3,0-0.6,0.1-0.7,0.2c-0.2,0.1-0.3,0.4-0.3,0.6
			c0,0.2,0.1,0.4,0.3,0.6c0.2,0.1,0.4,0.2,0.6,0.2c0.3,0,0.5-0.1,0.6-0.2C68,54.4,68,54.2,68,54c0-0.1,0-0.1,0-0.2
			c0.2,0,0.4,0,0.6,0.1c0.2,0.1,0.4,0.2,0.5,0.4c0.1,0.2,0.2,0.5,0.2,0.8c0,0.5-0.2,0.8-0.5,1.1c-0.3,0.2-0.7,0.4-1.3,0.4
			c-0.4,0-0.8-0.1-1.2-0.3c-0.4-0.2-0.7-0.5-1.1-1c-0.3-0.5-0.6-1.1-0.9-2L64,53.4c0.2,0.8,0.5,1.4,0.8,1.9c0.3,0.5,0.6,0.9,0.9,1.2
			c0.3,0.3,0.6,0.5,1,0.6c0.3,0.1,0.7,0.2,1,0.2c0.3,0,0.6,0,0.9-0.1c0.3-0.1,0.5-0.2,0.7-0.4c0.1-0.1,0.1-0.1,0.2-0.2
			c0.3,0.2,0.6,0.4,0.8,0.6c0.3,0.3,0.5,0.6,0.8,1l0.4,0.3l0,0v-6h0.8h0.1h0.2c0.2,0,0.4,0.1,0.6,0.3c0.1,0.2,0.2,0.4,0.3,0.7v4.9
			l0.4,0.2l0,0v-6.1h1h0.3h0c0,0,0,0,0,0c0,0.1,0,0.2,0,0.3c0,0.2,0,0.3,0.1,0.4c0.1,0.1,0.2,0.2,0.4,0.3c0.2,0.1,0.4,0.2,0.7,0.3
			c0.3,0.1,0.5,0.2,0.7,0.3c0.2,0.1,0.3,0.2,0.3,0.4c0.1,0.1,0.1,0.3,0.1,0.5c0,0.1,0,0.1,0,0.2c0,0,0,0,0,0C77.2,55,77,55,76.9,55
			c-0.3,0-0.6,0.1-0.7,0.2c-0.2,0.1-0.2,0.3-0.2,0.6c0,0.2,0.1,0.4,0.3,0.6c0.2,0.1,0.4,0.2,0.6,0.2c0.3,0,0.5-0.1,0.7-0.2
			c0.1-0.1,0.3-0.3,0.3-0.5c0.1,0,0.2,0.1,0.3,0.2c0.2,0.1,0.3,0.3,0.5,0.5c0.2,0.2,0.3,0.4,0.5,0.7c0.1,0.3,0.3,0.6,0.4,0.9
			l0.4,0.3l0,0v-6h1H81c0.2,0,0.4,0.1,0.6,0.3c0.1,0.2,0.2,0.4,0.3,0.7v4.9l0.4,0.2l0,0v-6.1h1h0.3h2c-0.2,0.1-0.4,0.3-0.6,0.5
			c-0.3,0.3-0.5,0.6-0.7,1.1c-0.2,0.4-0.3,0.9-0.3,1.4c0,0.6,0.1,1.1,0.3,1.6c0.2,0.5,0.5,0.8,0.9,1c0.4,0.2,0.7,0.4,1.1,0.4
			c0.3,0,0.5-0.1,0.6-0.2c0.1-0.1,0.2-0.3,0.2-0.5c0-0.2-0.1-0.4-0.2-0.5c-0.1-0.1-0.3-0.2-0.6-0.2c-0.2,0-0.4,0.1-0.5,0.2
			c-0.1,0.1-0.2,0.2-0.2,0.4c0,0.1,0,0.2,0.1,0.3c0,0,0,0.1,0,0.1c-0.2-0.1-0.4-0.2-0.6-0.4c-0.2-0.2-0.4-0.5-0.5-0.9
			c-0.1-0.3-0.2-0.7-0.2-1.1c0-0.4,0.1-0.8,0.2-1.2c0.1-0.4,0.3-0.7,0.6-1c0.2-0.3,0.5-0.5,0.8-0.7c0.3-0.2,0.6-0.3,1-0.3h0.4h0.3
			h0.6v3.8l0.4,0.2c0.4-0.3,0.7-0.6,1.1-1s0.8-0.6,1.1-0.8c0.3-0.2,0.6-0.3,0.8-0.5c-0.1,0.1-0.1,0.2-0.2,0.4
			c-0.1,0.2-0.1,0.5-0.2,0.7s-0.1,0.5-0.1,0.8c0,0.4,0.1,0.8,0.2,1.2c0.1,0.4,0.2,0.8,0.4,1.2l0.3-0.1c-0.1-0.2-0.2-0.4-0.2-0.6
			c-0.1-0.2-0.1-0.4-0.2-0.7c0-0.2-0.1-0.5-0.1-0.7c0-0.4,0.1-0.9,0.2-1.2c0.1-0.4,0.3-0.7,0.5-1l-0.7-0.6c-0.3,0.1-0.6,0.3-0.9,0.5
			c-0.3,0.2-0.6,0.4-0.9,0.6c-0.3,0.2-0.6,0.4-0.8,0.6c-0.2,0.1-0.3,0.3-0.5,0.4v-3.1h4.4h0.3h4.2v0.7c-0.5,0.1-0.9,0.3-1.3,0.4
			c-0.5,0.2-0.9,0.4-1.3,0.6c-0.4,0.2-0.9,0.5-1.4,0.8l0.3,0.7c0.6,0.1,1.1,0.3,1.5,0.5c0.5,0.2,0.9,0.5,1.2,0.8
			c0.4,0.3,0.7,0.7,1,1.1l0.4,0.3l0,0v-6h1.3L99.4,52H93.5z M69.6,56.1C69.6,56,69.6,56,69.6,56.1c0.1-0.3,0.2-0.5,0.2-0.8
			c0-0.4-0.1-0.7-0.3-1.1c-0.2-0.3-0.4-0.6-0.8-0.7c-0.3-0.1-0.6-0.2-0.9-0.2c-0.1-0.1-0.2-0.3-0.3-0.4c-0.1-0.1-0.2-0.2-0.4-0.3
			h3.7v5.1c-0.2-0.3-0.4-0.6-0.6-0.9C70.1,56.4,69.8,56.2,69.6,56.1z M78.5,55.7c-0.2-0.2-0.3-0.3-0.5-0.4c0,0,0,0,0,0
			c0-0.1,0-0.2,0-0.2c0-0.2,0-0.4-0.1-0.6c-0.1-0.2-0.2-0.3-0.4-0.5c-0.2-0.1-0.5-0.3-0.8-0.4c-0.3-0.1-0.5-0.2-0.7-0.4
			c-0.1-0.1-0.2-0.3-0.2-0.5c0-0.1,0-0.1,0-0.2c0,0,0,0,0-0.1h3.6v3.2c0,0.2,0,0.4,0,0.6c0,0.2,0,0.5,0,0.8c0,0.1,0,0.2,0,0.3
			c-0.1-0.3-0.2-0.6-0.3-0.8C78.9,56.2,78.7,55.9,78.5,55.7z M95.8,55.6c-0.4-0.2-0.7-0.3-1.1-0.4c0.3-0.2,0.7-0.4,1-0.6
			c0.4-0.2,0.8-0.4,1.2-0.5c0.3-0.1,0.7-0.2,1-0.3v3.8c-0.3-0.4-0.6-0.7-0.9-1C96.6,56.1,96.2,55.9,95.8,55.6z"/>
		<path class="st0" d="M108.6,52l0-0.4l-0.4-0.2l0,0v1.3c0,0.3,0,0.5,0,0.8c0,0.2,0,0.4,0,0.6c-0.3-0.4-0.5-0.8-0.8-1.1
			c-0.3-0.3-0.6-0.6-1-0.8c-0.3-0.2-0.7-0.3-1.1-0.3c-0.3,0-0.7,0.1-1,0.2c-0.3,0.1-0.6,0.3-0.9,0.6c-0.3,0.3-0.5,0.6-0.8,0.9
			l0.6,0.5c0.1-0.1,0.2-0.1,0.3-0.2c0.1,0,0.3-0.1,0.5-0.1c0.2,0,0.3,0,0.4,0.1c0.1,0.1,0.2,0.1,0.2,0.3c0,0.1,0.1,0.2,0.1,0.4
			c0,0.2,0,0.4-0.1,0.6c-0.1,0.2-0.2,0.3-0.4,0.5l0.5,0.4l2.7-2.5c0,0,0.1,0.1,0.1,0.1c0.2,0.3,0.4,0.5,0.6,0.8v3.6l0.4,0.2l0,0
			v-6.1h1.3l-0.3-0.4H108.6z M105.1,55.1C105.1,55.1,105.1,55.1,105.1,55.1c0-0.2,0.1-0.3,0.1-0.5c0-0.3-0.1-0.6-0.3-0.8
			c-0.2-0.2-0.4-0.3-0.8-0.3c-0.2,0-0.3,0-0.4,0.1c0.2-0.2,0.3-0.4,0.5-0.5c0.2-0.2,0.5-0.3,0.7-0.4c0.2-0.1,0.4-0.1,0.7-0.1
			c0.3,0,0.5,0.1,0.8,0.2c0.2,0.1,0.5,0.3,0.7,0.5c0,0,0.1,0.1,0.1,0.1L105.1,55.1z"/>
		<path class="st0" d="M115.9,52h-1l0-0.4l-0.4-0.2l0,0v6.1c-0.2-0.2-0.3-0.5-0.5-0.7c-0.2-0.3-0.5-0.5-0.8-0.7
			c-0.3-0.2-0.6-0.4-0.9-0.6c-0.2-0.1-0.4-0.2-0.6-0.3c0.3-0.1,0.6-0.2,0.8-0.3c0.3-0.1,0.6-0.3,0.7-0.6c0.2-0.2,0.2-0.5,0.2-0.8
			c0-0.4-0.1-0.6-0.3-0.9c-0.2-0.2-0.4-0.4-0.7-0.6c-0.3-0.1-0.6-0.2-0.9-0.2c-0.3,0-0.6,0-0.8,0.1c-0.2,0.1-0.4,0.2-0.5,0.4
			c-0.1,0.2-0.2,0.3-0.2,0.5c0,0.2,0.1,0.4,0.2,0.5c0.1,0.1,0.3,0.2,0.5,0.2c0.2,0,0.4-0.1,0.5-0.2c0.1-0.1,0.2-0.2,0.2-0.4
			c0-0.1,0-0.2-0.1-0.3c-0.1-0.1-0.1-0.1-0.2-0.1c0,0,0.1-0.1,0.1-0.1c0.1-0.1,0.3-0.1,0.6-0.1c0.4,0,0.6,0.1,0.8,0.3
			c0.2,0.2,0.3,0.4,0.3,0.7c0,0.2-0.1,0.4-0.2,0.6s-0.3,0.3-0.6,0.4c-0.2,0.1-0.5,0.2-0.8,0.2c-0.3,0.1-0.6,0.1-0.9,0.1l0.3,0.8
			c0.6,0.1,1.1,0.3,1.6,0.5c0.5,0.2,0.9,0.5,1.3,0.8c0.4,0.3,0.7,0.7,1,1.2l0.4,0.3l0,0v-6h1.3L115.9,52z"/>
	</g>
</g>
</svg>
