<?xml version="1.0" encoding="utf-8"?>
<!-- Generator: Adobe Illustrator 24.0.1, SVG Export Plug-In . SVG Version: 6.00 Build 0)  -->
<svg version="1.1" id="Layer_1" xmlns="http://www.w3.org/2000/svg" xmlns:xlink="http://www.w3.org/1999/xlink" x="0px" y="0px"
	 viewBox="0 0 161 60" style="enable-background:new 0 0 161 60;" xml:space="preserve">
<style type="text/css">
	.st0{fill:#FFFFFF;}
</style>
<g>
	<path class="st0" d="M123.5,14.1v16.6h16.8V14.1H123.5z M136.4,20.2h-3.2v6.5h-2.6v-6.5h-3.2v-2.1h8.9V20.2z"/>
	<path class="st0" d="M144.1,14.1v16.6h16.8V14.1H144.1z M157,26.8h-2.6v-3.4h-3.9v3.4h-2.6v-8.6h2.6v3.2h3.9v-3.2h2.6V26.8z"/>
	<path class="st0" d="M92,20.9c0,0.8-0.4,1-1.7,1h-0.6v-2.1h0.6C91.5,19.8,92,20,92,20.9z"/>
	<path class="st0" d="M82.5,14.1v16.6h16.8V14.1H82.5z M91.5,23.5h-1.7v3.2h-2.6v-8.6h4.3c2.4,0,3.2,1.6,3.2,2.7
		S93.9,23.5,91.5,23.5z"/>
	<polygon class="st0" points="111.4,20.4 112.7,23.5 110.1,23.5 	"/>
	<path class="st0" d="M103,14.1v16.6h16.8V14.1H103z M114,26.8l-0.7-1.8h-3.8l-0.7,1.8h-2.7l3.8-8.6h2.9l3.8,8.6H114z"/>
	<path class="st0" d="M41.4,14.1v16.6h16.8V14.1H41.4z M54.5,26.8h-2.3l-4.5-4.8v4.8h-2.6v-8.6h2.3l4.5,4.8v-4.8h2.6V26.8z"/>
	<path class="st0" d="M72.6,22.4c0,1.3-0.8,2.2-2.3,2.2c-1.4,0-2.3-0.9-2.3-2.2c0-1.3,0.8-2.2,2.3-2.2
		C71.8,20.2,72.6,21.2,72.6,22.4z"/>
	<path class="st0" d="M62,14.1v16.6h16.8V14.1H62z M70.4,26.9c-3.4,0-4.9-2.2-4.9-4.4c0-2.2,1.5-4.4,4.9-4.4c3.3,0,4.9,2.1,4.9,4.4
		C75.3,24.8,73.6,26.9,70.4,26.9z"/>
	<path class="st0" d="M0,14.1v16.6h16.8V14.1H0z M10.5,24.3c0,1.8-0.2,3.8-2.9,3.8c-0.5,0-0.7,0-0.9-0.1L6.3,26c0.9,0,1.4,0,1.6-0.7
		c0.1-0.3,0.1-1.5,0.1-1.8v-6.7h2.6V24.3z"/>
	<path class="st0" d="M31.6,22.4c0,1.3-0.8,2.2-2.3,2.2c-1.4,0-2.3-0.9-2.3-2.2c0-1.3,0.8-2.2,2.3-2.2
		C30.7,20.2,31.6,21.2,31.6,22.4z"/>
	<path class="st0" d="M20.9,14.1v16.6h16.8V14.1H20.9z M29.3,26.9c-3.4,0-4.9-2.2-4.9-4.4c0-2.2,1.5-4.4,4.9-4.4
		c3.3,0,4.9,2.1,4.9,4.4C34.2,24.8,32.6,26.9,29.3,26.9z"/>
</g>
<g>
	<path class="st0" d="M6.3,37.1c-0.9-0.5-1.6-0.9-2.5-0.9c-1.6,0-2.4,1.2-2.4,2.1c0,1.4,1.3,1.9,2.5,2.3c1.3,0.5,2.8,1.2,2.8,3.2
		s-1.7,3.1-3.2,3.1c-1,0-2-0.4-2.9-1v-1c1,0.7,1.8,1.2,2.8,1.2c1.6,0,2.4-1.2,2.4-2.2c0-1.5-1.4-2.1-2.3-2.4c-1.5-0.5-1.8-0.8-2-1
		c-0.6-0.5-1-1.2-1-2.1c0-1.5,1.3-2.9,3.2-2.9c0.9,0,1.8,0.3,2.6,0.7V37.1z"/>
	<path class="st0" d="M13.8,46.9c-3.3,0-5.9-2.5-5.9-5.7c0-3,2.3-5.7,5.9-5.7c3.6,0,5.9,2.7,5.9,5.7C19.8,44.5,17.1,46.9,13.8,46.9z
		 M13.9,36.3c-2.8,0-5,2.2-5,4.9c0,2.6,2,4.9,4.9,4.9c2.6,0,5-1.9,5-5C18.8,38.6,16.8,36.3,13.9,36.3z"/>
	<path class="st0" d="M28.6,36.3h-4.2v10.4h-0.9V36.3h-4.2v-0.7h9.3V36.3z"/>
	<path class="st0" d="M38,36.3h-4.2v10.4H33V36.3h-4.2v-0.7H38V36.3z"/>
	<path class="st0" d="M45.5,36.3h-5.2v4.5h5.1v0.7h-5.1V46h5.4v0.7h-6.2V35.6h6.1V36.3z"/>
	<path class="st0" d="M49.8,35.6c1.3,0,1.9,0,2.7,0.3c0.9,0.4,1.7,1.3,1.7,2.6c0,1.4-0.8,2.2-2.1,2.7c0.6,0.4,0.9,0.9,3.5,4.8
		l0.5,0.8h-1l-2.1-3.4c-0.3-0.5-0.9-1.3-1.4-1.6c-0.5-0.3-1-0.3-1.9-0.3h-1.2v5.4h-0.9V35.6H49.8z M48.5,36.3v4.4h1.2
		c1.3,0,1.9-0.1,2.5-0.4c0.6-0.3,1-1.1,1-1.8s-0.4-1.5-1-1.8c-0.4-0.2-0.9-0.4-2.3-0.4H48.5z"/>
	<path class="st0" d="M63.6,35.6c1.6,0,2.3,0,3,0.5c0.9,0.5,1.4,1.3,1.4,2.5c0,1.2-0.6,2.1-1.4,2.6c-0.9,0.4-1.6,0.5-2.9,0.5h-1.5
		v5.2h-0.9V35.6H63.6z M62.2,36.3v4.5h1.6c1.1,0,1.8-0.1,2.5-0.5c0.5-0.3,0.8-1.1,0.8-1.8c0-0.7-0.3-1.4-0.8-1.8
		c-0.5-0.3-1-0.5-2.6-0.5H62.2z"/>
	<path class="st0" d="M74.8,46.9c-3.3,0-5.9-2.5-5.9-5.7c0-3,2.3-5.7,5.9-5.7c3.6,0,5.9,2.7,5.9,5.7C80.7,44.5,78,46.9,74.8,46.9z
		 M74.8,36.3c-2.8,0-5,2.2-5,4.9c0,2.6,2,4.9,4.9,4.9c2.6,0,5-1.9,5-5C79.8,38.6,77.8,36.3,74.8,36.3z"/>
	<path class="st0" d="M89.6,36.3h-4.2v10.4h-0.9V36.3h-4.2v-0.7h9.3V36.3z"/>
	<path class="st0" d="M100.2,46.7h-0.9v-5.3h-7.5v5.3H91V35.6h0.9v5.1h7.5v-5.1h0.9V46.7z"/>
	<path class="st0" d="M108.9,36.3h-5.2v4.5h5.1v0.7h-5.1V46h5.4v0.7h-6.2V35.6h6.1V36.3z"/>
	<path class="st0" d="M125.2,46.7h-0.7l-8.5-9.8v9.8h-0.9V35.6h0.8l8.4,9.8v-9.8h0.9V46.7z"/>
	<path class="st0" d="M128.7,46.7h-0.9V35.6h0.9V46.7z"/>
	<path class="st0" d="M133.5,35.6c1.3,0,1.9,0,2.7,0.3c0.9,0.4,1.7,1.3,1.7,2.6c0,1.4-0.8,2.2-2.1,2.7c0.6,0.4,0.9,0.9,3.5,4.8
		l0.5,0.8h-1l-2.1-3.4c-0.3-0.5-0.9-1.3-1.4-1.6c-0.5-0.3-1-0.3-1.8-0.3h-1.2v5.4h-0.9V35.6H133.5z M132.2,36.3v4.4h1.2
		c1.3,0,1.9-0.1,2.5-0.4c0.6-0.3,1-1.1,1-1.8s-0.4-1.5-1-1.8c-0.4-0.2-0.9-0.4-2.3-0.4H132.2z"/>
	<path class="st0" d="M143.6,46.8h-0.3l-4.7-11.2h0.9l4,9.4l3.9-9.4h0.9L143.6,46.8z"/>
	<path class="st0" d="M150.6,46.7h-0.9V35.6h0.9V46.7z"/>
	<path class="st0" d="M155.2,41.1l5.8,5.6h-1.1l-5.9-5.6v5.6h-0.9V35.6h0.9v5.6l5.4-5.6h1.1L155.2,41.1z"/>
</g>
</svg>
